<?xml version="1.0" encoding="utf-8"?>
<!-- Generator: Adobe Illustrator 26.2.1, SVG Export Plug-In . SVG Version: 6.00 Build 0)  -->
<svg version="1.1" id="Layer_1" xmlns="http://www.w3.org/2000/svg" xmlns:xlink="http://www.w3.org/1999/xlink" x="0px" y="0px"
	 viewBox="0 0 85.6 65.4" style="enable-background:new 0 0 85.6 65.4;" xml:space="preserve">
<style type="text/css">
	.st0{display:none;}
	.st1{display:inline;}
	.st2{fill:none;stroke:#000000;stroke-width:2;stroke-miterlimit:10;}
	.st3{display:inline;fill:#010202;}
	.st4{fill:#0088CC;stroke:#0088CC;stroke-miterlimit:10;}
	.st5{fill:none;stroke:#0088CC;stroke-width:3;stroke-miterlimit:100;}
</style>
<g id="servis" class="st0">
	<g class="st1">
		<path class="st2" d="M69,36.3v-6.9l4.5-1.9c-0.5-2.9-1.4-5.7-2.7-8.3L66,20.3l-4-5.6l2.5-4.2c-2.1-2-4.4-3.7-7.1-5.1l-3.2,3.7
			L47.6,7l-0.4-4.9c-2.9-0.4-5.9-0.4-8.7,0L38.1,7l-6.6,2.1l-3.2-3.7c-2.6,1.4-4.9,3.1-7.1,5.1l2.5,4.2l-4.1,5.6l-4.8-1.1
			c-0.6,1.3-1.2,2.6-1.6,4.1c-0.5,1.4-0.8,2.8-1.1,4.2l4.5,1.9v6.9l-4.5,1.9c0.5,2.9,1.4,5.7,2.7,8.3l4.8-1.1l4.1,5.6l-2.5,4.2
			c2.1,2,4.4,3.7,7.1,5.1l3.2-3.7l6.7,2.1l0.4,4.9c2.9,0.4,5.9,0.4,8.7,0l0.4-4.9l6.6-2.1l3.2,3.7c2.6-1.4,4.9-3.1,7.1-5.1L62.1,51
			l4.1-5.6l4.8,1.1c0.6-1.3,1.2-2.6,1.6-4.1c0.5-1.4,0.8-2.8,1.1-4.2L69,36.3z M37.8,48.7c-8.7-2.8-13.5-12.2-10.7-21
			c2.8-8.7,12.2-13.5,21-10.7s13.5,12.2,10.7,21C56,46.7,46.6,51.5,37.8,48.7z"/>
		<path class="st2" d="M46.6,21.6c-6.2-2-12.9,1.4-14.9,7.6s1.4,12.9,7.6,14.9s12.9-1.4,14.9-7.6S52.8,23.6,46.6,21.6z M41.4,37.5
			c-2.6-0.8-4-3.6-3.2-6.2c0.8-2.6,3.6-4,6.2-3.2c2.6,0.8,4,3.6,3.2,6.2C46.8,36.9,44,38.4,41.4,37.5z"/>
	</g>
</g>
<g id="Layer_2_1_" class="st0">
	<path class="st1" d="M75.4,5c0,1.2-0.4,2.2-1.3,3c-0.8,0.8-1.9,1.3-3.1,1.3S68.8,8.9,68,8c-0.8-0.8-1.3-1.9-1.3-3
		c0-1.2,0.4-2.2,1.3-3c0.8-0.8,1.9-1.3,3-1.3c1.2,0,2.2,0.4,3.1,1.3C75,2.8,75.4,3.8,75.4,5z"/>
	<path class="st1" d="M40.3,24.3l-13-13c-1.7-1.7-4.5-1.7-6.2,0s-1.7,4.5,0,6.2l13,13c1.7,1.7,4.5,1.7,6.2,0S42,26,40.3,24.3z"/>
	<path class="st1" d="M27.3,54.9l13-13c1.7-1.7,1.7-4.5,0-6.2s-4.5-1.7-6.2,0l-13,13c-1.7,1.7-1.7,4.5,0,6.2
		C22.9,56.6,25.6,56.6,27.3,54.9z"/>
	<path class="st1" d="M45.7,41.9l13,13c1.7,1.7,4.5,1.7,6.2,0c1.7-1.7,1.7-4.5,0-6.2l-13-13c-1.7-1.7-4.5-1.7-6.2,0
		C44,37.5,44,40.2,45.7,41.9z"/>
	<path class="st1" d="M58.6,11.4l-13,13c-1.7,1.7-1.7,4.5,0,6.2s4.5,1.7,6.2,0l13-13c1.7-1.7,1.7-4.5,0-6.2
		C63.1,9.7,60.3,9.7,58.6,11.4z"/>
</g>
<g id="Layer_4" class="st0">
	<rect x="-5.8" y="-8.1" class="st3" width="98" height="83"/>
</g>
<g id="Layer_3_1_">
	<g id="Ellipse_1_1_">
		<g>
			<path class="st4" d="M33,2c2.5,0,4.5,2,4.5,4.5S35.5,11,33,11s-4.5-2-4.5-4.5C28.4,4,30.5,2,33,2 M33,1c-3,0-5.5,2.5-5.5,5.5
				S30,12,33,12s5.5-2.5,5.5-5.5C38.5,3.4,36,1,33,1L33,1z"/>
		</g>
	</g>
	<g id="Ellipse_1_copy_1_">
		<g>
			<path class="st4" d="M55.6,45.8c2.5,0,4.5,2,4.5,4.5s-2,4.5-4.5,4.5s-4.5-2-4.5-4.5S53.1,45.8,55.6,45.8 M55.6,44.8
				c-3,0-5.5,2.5-5.5,5.5s2.5,5.5,5.5,5.5s5.5-2.5,5.5-5.5S58.7,44.8,55.6,44.8L55.6,44.8z"/>
		</g>
	</g>
	<path class="st4" d="M8.6,37.5c-6.5,0.2-7.9,4-7.9,4V61c2.6,2.9,5.6,3.6,7.9,3.5c2.3,0,5.3-0.6,7.9-3.5V41.4
		C16.6,41.4,15.1,37.7,8.6,37.5z"/>
	<line class="st5" x1="8" y1="33.3" x2="8" y2="29.8"/>
	<line class="st5" x1="8" y1="26" x2="8" y2="22.4"/>
	<line class="st5" x1="7.8" y1="18.5" x2="8" y2="15.2"/>
	<line class="st5" x1="9.6" y1="11.3" x2="12.3" y2="8.6"/>
	<line class="st5" x1="15.4" y1="6.4" x2="19" y2="5"/>
	<line class="st5" x1="21.9" y1="4.4" x2="25.5" y2="4.2"/>
	<line class="st5" x1="32" y1="14.4" x2="32" y2="16.4"/>
	<line class="st5" x1="32.7" y1="19.8" x2="35.3" y2="22.9"/>
	<line class="st5" x1="38.7" y1="25.2" x2="42.7" y2="26.2"/>
	<line class="st5" x1="47.1" y1="26.5" x2="50.7" y2="29.2"/>
	<line class="st5" x1="53.2" y1="31.5" x2="55.5" y2="35.8"/>
	<line class="st5" x1="55.9" y1="40.1" x2="56.1" y2="42.1"/>
	<line class="st5" x1="62.9" y1="50.4" x2="66.9" y2="50.3"/>
	<line class="st5" x1="71" y1="49.9" x2="74.9" y2="49.9"/>
	<polyline class="st4" points="77.6,44.8 77.6,47.3 77.6,49.9 77.6,52.4 77.6,55 79.5,53.8 81.3,52.6 83.1,51.4 85,50.2 	"/>
</g>
</svg>
