<?xml version="1.0" encoding="utf-8"?>
<!-- Generator: Adobe Illustrator 26.2.1, SVG Export Plug-In . SVG Version: 6.00 Build 0)  -->
<svg version="1.1" id="Layer_1" xmlns="http://www.w3.org/2000/svg" xmlns:xlink="http://www.w3.org/1999/xlink" x="0px" y="0px"
	 viewBox="0 0 48.3 66" style="enable-background:new 0 0 48.3 66;" xml:space="preserve">
<style type="text/css">
	.st0{display:none;}
	.st1{display:inline;}
	.st2{fill:#010202;}
	.st3{fill:#FFFFFF;}
	.st4{fill:none;stroke:#FFFFFF;stroke-width:0.75;stroke-miterlimit:100;}
	.st5{fill:none;}
	.st6{display:inline;fill:#0DBBFF;}
	.st7{display:inline;fill:#0088CC;}
	.st8{fill:#0088CC;}
</style>
<g id="Layer_1_1_" class="st0">
	<g id="Layer_4" class="st1">
		<rect x="-24.1" y="-7.3" class="st2" width="98" height="83"/>
	</g>
	<g id="Layer_2_1_" class="st1">
		<path class="st3" d="M57.1,5.8c0,1.2-0.4,2.2-1.3,3c-0.8,0.8-1.9,1.3-3.1,1.3s-2.2-0.4-3-1.3c-0.8-0.8-1.3-1.9-1.3-3
			c0-1.2,0.4-2.2,1.3-3c0.8-0.8,1.9-1.3,3-1.3c1.2,0,2.2,0.4,3.1,1.3C56.7,3.6,57.1,4.6,57.1,5.8z"/>
		<path class="st3" d="M22,25.1l-13-13c-1.7-1.7-4.5-1.7-6.2,0s-1.7,4.5,0,6.2l13,13c1.7,1.7,4.5,1.7,6.2,0
			C23.7,29.6,23.7,26.8,22,25.1z"/>
		<path class="st3" d="M9,55.7l13-13c1.7-1.7,1.7-4.5,0-6.2s-4.5-1.7-6.2,0l-13,13c-1.7,1.7-1.7,4.5,0,6.2C4.6,57.4,7.3,57.4,9,55.7
			z"/>
		<path class="st3" d="M27.4,42.7l13,13c1.7,1.7,4.5,1.7,6.2,0s1.7-4.5,0-6.2l-13-13c-1.7-1.7-4.5-1.7-6.2,0
			C25.7,38.3,25.7,41,27.4,42.7z"/>
		<path class="st3" d="M40.3,12.2l-13,13c-1.7,1.7-1.7,4.5,0,6.2c1.7,1.7,4.5,1.7,6.2,0l13-13c1.7-1.7,1.7-4.5,0-6.2
			C44.8,10.5,42,10.5,40.3,12.2z"/>
	</g>
	<g id="Layer_3" class="st1">
		<g id="Ellipse_1">
			<g>
				<path class="st3" d="M14.7,2.8c2.5,0,4.5,2,4.5,4.5s-2,4.5-4.5,4.5s-4.5-2-4.5-4.5C10.1,4.8,12.2,2.8,14.7,2.8 M14.7,1.8
					c-3,0-5.5,2.5-5.5,5.5s2.5,5.5,5.5,5.5s5.5-2.5,5.5-5.5C20.2,4.2,17.7,1.8,14.7,1.8L14.7,1.8z"/>
			</g>
		</g>
		<g id="Ellipse_1_copy">
			<g>
				<path class="st3" d="M37.3,46.6c2.5,0,4.5,2,4.5,4.5s-2,4.5-4.5,4.5s-4.5-2-4.5-4.5S34.8,46.6,37.3,46.6 M37.3,45.6
					c-3,0-5.5,2.5-5.5,5.5s2.5,5.5,5.5,5.5s5.5-2.5,5.5-5.5S40.4,45.6,37.3,45.6L37.3,45.6z"/>
			</g>
		</g>
		<path class="st3" d="M-9.7,38.3c-6.5,0.2-7.9,4-7.9,4v19.5c2.6,2.9,5.6,3.6,7.9,3.5c2.3,0,5.3-0.6,7.9-3.5V42.2
			C-1.7,42.2-3.2,38.5-9.7,38.3z"/>
		<line class="st4" x1="-10.3" y1="34.1" x2="-10.3" y2="30.6"/>
		<line class="st4" x1="-10.3" y1="26.8" x2="-10.3" y2="23.2"/>
		<line class="st4" x1="-10.5" y1="19.3" x2="-10.3" y2="16"/>
		<line class="st4" x1="-8.7" y1="12.1" x2="-6" y2="9.4"/>
		<line class="st4" x1="-2.9" y1="7.2" x2="0.7" y2="5.8"/>
		<line class="st4" x1="3.6" y1="5.2" x2="7.2" y2="5"/>
		<line class="st4" x1="13.7" y1="15.2" x2="13.7" y2="17.2"/>
		<line class="st4" x1="14.4" y1="20.6" x2="17" y2="23.7"/>
		<line class="st4" x1="20.4" y1="26" x2="24.4" y2="27"/>
		<line class="st4" x1="28.8" y1="27.3" x2="32.4" y2="30"/>
		<line class="st4" x1="34.9" y1="32.3" x2="37.2" y2="36.6"/>
		<line class="st4" x1="37.6" y1="40.9" x2="37.8" y2="42.9"/>
		<line class="st4" x1="44.6" y1="51.2" x2="48.6" y2="51.1"/>
		<line class="st4" x1="52.7" y1="50.7" x2="56.6" y2="50.7"/>
		<polyline class="st3" points="59.3,45.6 59.3,48.1 59.3,50.7 59.3,53.2 59.3,55.8 61.2,54.6 63,53.4 64.8,52.2 66.7,51 		"/>
	</g>
	<g id="Layer_5" class="st1">
		<g>
			<path class="st5" d="M40,17.5L40,17.5c-0.2-0.4-0.3-0.8-0.3-1.2C39.6,16.7,39.7,17.1,40,17.5L40,17.5z"/>
			<path class="st5" d="M32.4,58.6c-0.7,0-1,0.3-1,1s0.3,1,1,1s1-0.3,1-1C33.3,59,33,58.6,32.4,58.6z"/>
			<polygon class="st5" points="-4.8,24.5 -3.8,30.1 -3.1,30.1 -3.8,24.5 			"/>
			<polygon class="st5" points="3.2,30.1 3.8,30.1 4.8,24.5 3.5,24.5 			"/>
			<path class="st5" d="M49.6,58.6c-0.7,0-1,0.3-1,1s0.3,1,1,1s1-0.3,1-1C50.6,59,50.3,58.6,49.6,58.6z"/>
			<path class="st3" d="M-6.5,10.5c-1.7,0-3.3,2.3-3.3,5v5l5.3,0.3v-1.7v-3.6C-4.1,12.9-4.8,10.5-6.5,10.5z"/>
			<path class="st3" d="M34.3,38.7c-0.3,0.7-1,1.7-1.3,2.7h7h1.7h7.2c-0.7-1.3-1.3-2.7-2.3-3.3H35C34.7,38.4,34.7,38.7,34.3,38.7z"
				/>
			<path class="st3" d="M38.2,18.8c0.3,3.2,0.6,9.1-0.6,13.9c-0.3,0.3-0.3,0.7-0.3,1c0,0-0.7,2.7-2,4h10.9c0,0-2.5-8.9-0.8-19.2
				c0.6-1.1,0.7-2.4,0.2-3.6c-0.2-0.7-0.6-1.3-1.1-1.7c-1.1-1.1-2.7-1.3-4-0.8c-2.5-0.7-6.8-2.1-11-4.7c-0.2-0.7-0.7-1.3-1.3-1.8
				c-1.7-1-3.3-1-4.6,0c-3,0.7-8.3,1.7-13.9,1C8.5,6.4,7.2,6.6,6.2,7.4L3.4,7.3c-0.3,0-0.6-0.4-0.8-0.6C2.5,5.8,2.2,5.6,1.7,5.6h-5
				c-0.7,0-1,0.3-1,1l-0.3,12.6l7.3,0.3v-5.6c0.2-0.3,0.5-0.7,0.7-0.7l1.8,0.3C5.4,13.8,5.7,14,6,14.2c1,0.7,2,0.7,3,0.3
				c0,0,7.6-1.9,13.9-1.5c0.4,0.4,1,0.7,1.7,0.9C24.7,13.9,32.6,15.6,38.2,18.8z M41,14.2c1-0.7,2.7-0.3,3.3,1c0.7,1,0.3,2.7-1,3.3
				c-1,0.7-2.6,0.3-3.3-1l0,0c-0.3-0.4-0.4-0.8-0.3-1.2C39.7,15.5,40.1,14.6,41,14.2z M8.8,12.9c-1.3,0.3-2.3-0.7-2.7-2
				c-0.3-1.3,0.7-2.7,2-2.7c1.3-0.3,2.7,0.7,2.7,2C11.1,11.5,10.1,12.5,8.8,12.9z M23.7,9.9c0-1.3,1-2.3,2.3-2.3s2.7,1,2.7,2.3
				c0,1.3-1.3,2.3-2.7,2.3C24.7,12.2,23.7,11.2,23.7,9.9z"/>
			<path class="st3" d="M57.2,54.7H42.6v-9.3h8.6h0.3c0.3-0.3,0.3-0.3,0.3-0.7v-1V42c0-0.3,0-0.7-0.3-0.7H30.4
				c-0.3,0-0.7,0.3-0.7,0.7v2.7c0,0.3,0.3,0.7,0.7,0.7h9v9.3h-15c-0.3,0-0.7,0.3-0.7,0.7v1c0,0.3,0.3,0.7,0.7,0.7h32.8
				c0.7,0,0.7-0.3,0.7-0.7v-1C57.9,55,57.9,54.7,57.2,54.7z"/>
			<path class="st3" d="M32.4,57.3c-1.3,0-2.3,1-2.3,2.3s1,2.3,2.3,2.3s2.3-1,2.3-2.3S33.7,57.3,32.4,57.3z M32.4,60.6
				c-0.7,0-1-0.3-1-1s0.3-1,1-1s1,0.3,1,1C33.3,60.3,33,60.6,32.4,60.6z"/>
			<path class="st3" d="M49.6,57.3c-1.3,0-2.3,1-2.3,2.3s1,2.3,2.3,2.3s2.3-1,2.3-2.3S50.9,57.3,49.6,57.3z M49.6,60.6
				c-0.7,0-1-0.3-1-1s0.3-1,1-1s1,0.3,1,1C50.6,60.3,50.3,60.6,49.6,60.6z"/>
			<path class="st3" d="M5.8,24.1L5.8,24.1l-3-3.6l0,0l0,0h-4.9l-0.8-0.3l-3,3.6l0,0l1.3,7h0.7h0.8h1l-0.3-1l-0.7-6l0,0l1-1l4.4,0.3
				l0.9,1l-1,6.6h2.3L5.8,24.1L5.8,24.1L5.8,24.1L5.8,24.1z M-3.8,30.1l-1-5.6h1l0.7,5.6H-3.8z M3.8,30.1H3.1l0.3-5.6h1.3L3.8,30.1z
				"/>
		</g>
	</g>
	<g id="Layer_6" class="st1">
		<path class="st3" d="M26,28.4L26,28.4L26,28.4z M36.1,30.6h-1C35.3,30.9,35.8,30.9,36.1,30.6 M35.6,27.1L35.6,27.1L35.6,27.1z
			 M27.8,17.1c-0.2,0.1-0.5,0.2-0.7,0.4c-0.3,0.2-0.8,0.2-1.1-0.1l-0.8-0.9l-1.3,1.3l0.8,0.8c0.3,0.3,0.3,0.7,0.1,1
			c-0.1,0.2-0.3,0.5-0.4,0.7v0.1c-0.1,0.2-0.2,0.5-0.3,0.8c-0.1,0.4-0.4,0.7-0.8,0.7h-1.1v1.8h1.1c0.4,0,0.7,0.3,0.8,0.7
			c0.1,0.3,0.2,0.6,0.3,0.8s0.2,0.5,0.4,0.7c0.2,0.3,0.2,0.8-0.1,1.1l-0.8,0.9l1.3,1.3l0.8-0.8c0.3-0.3,0.7-0.4,1.1-0.2
			c0.2,0.1,0.5,0.3,0.7,0.4l0,0c0.2,0.1,0.5,0.2,0.7,0.3c0.4,0.1,0.7,0.4,0.7,0.9v1.1H31v-1.1c0-0.4,0.3-0.7,0.6-0.8
			s0.5-0.2,0.8-0.3c0.2-0.1,0.5-0.2,0.7-0.4c0.3-0.2,0.8-0.2,1.1,0.1l0.8,0.8l1.3-1.3l-0.8-0.8c-0.3-0.3-0.4-0.7-0.2-1.1
			c0.1-0.3,0.3-0.5,0.4-0.8c0.1-0.3,0.2-0.5,0.3-0.8c0.1-0.4,0.4-0.7,0.8-0.7h1.1v-1.8h-1c-0.4,0-0.7-0.3-0.8-0.6
			c-0.1-0.3-0.2-0.6-0.3-0.8c-0.1-0.2-0.2-0.5-0.3-0.7c-0.2-0.3-0.2-0.8,0.1-1.1l0.8-0.8L35,16.5l-0.8,0.8c-0.3,0.3-0.7,0.3-1,0.1
			c-0.2-0.1-0.5-0.3-0.7-0.4h-0.1c-0.2-0.1-0.5-0.2-0.7-0.3c-0.4-0.1-0.7-0.4-0.7-0.9v-1.2h-1.8v1.2l0,0c0,0.4-0.2,0.7-0.6,0.8
			C28.3,16.8,28.1,16.9,27.8,17.1L27.8,17.1z M26.7,15.6c0.1-0.1,0.3-0.1,0.4-0.2l0,0c0.1,0,0.2-0.1,0.4-0.1v-0.7
			c0-0.4,0.2-0.8,0.5-1.1c0.3-0.3,0.7-0.5,1.1-0.5h2.1c0.4,0,0.8,0.2,1.1,0.5l0,0c0.3,0.3,0.5,0.7,0.5,1.1v0.7
			c0.1,0.1,0.3,0.1,0.4,0.2l0,0c0.1,0.1,0.2,0.1,0.4,0.2l0.5-0.5c0.3-0.3,0.7-0.5,1.1-0.5c0.4,0,0.8,0.2,1.1,0.5l0,0l1.4,1.5l0,0
			c0.3,0.3,0.4,0.7,0.4,1.1s-0.1,0.8-0.4,1.1l-0.5,0.5c0.1,0.1,0.1,0.3,0.2,0.4c0.1,0.1,0.1,0.3,0.2,0.4h0.7c0.4,0,0.8,0.2,1.1,0.5
			s0.5,0.7,0.5,1.1v2.1c0,0.4-0.2,0.8-0.5,1.1l0,0c-0.5,0.3-0.8,0.5-1.3,0.5h-0.7c0,0.1-0.1,0.3-0.2,0.4c-0.1,0.1-0.1,0.3-0.2,0.4
			l0.4,0.5l0,0c0.3,0.3,0.4,0.7,0.4,1.1c0,0.4-0.1,0.8-0.4,1.1l-1.3,1.5L36,30.6c-0.3,0.3-0.7,0.4-1,0.4c-0.4,0-0.8-0.2-1.1-0.5l0,0
			L33.5,30c-0.1,0.1-0.3,0.1-0.4,0.2c-0.1,0.1-0.3,0.1-0.4,0.2v0.7c0,0.4-0.2,0.8-0.5,1.1c-0.3,0.3-0.7,0.5-1.1,0.5H29
			c-0.4,0-0.8-0.2-1.1-0.5c-0.3-0.3-0.4-0.7-0.4-1.1v-0.7c-0.1,0-0.3-0.1-0.4-0.2l0,0c-0.1-0.1-0.2-0.1-0.4-0.2l-0.4,0.5l0,0
			C26,30.8,25.6,31,25.2,31c-0.4,0-0.8-0.2-1.1-0.5l0,0L22.6,29c-0.3-0.3-0.4-0.7-0.4-1.1c0-0.4,0.1-0.8,0.4-1.1l0.5-0.5
			C23,26.2,23,26,22.9,25.9l0,0c0-0.1-0.1-0.3-0.2-0.4h-0.6c-0.4,0-0.8-0.2-1.1-0.5s-0.4-0.7-0.4-1.1v-2.1c0-0.4,0.2-0.8,0.5-1.1
			l0,0c0.3-0.3,0.7-0.5,1.1-0.5h0.6c0-0.1,0.1-0.3,0.2-0.4v-0.1c0.1-0.1,0.1-0.2,0.2-0.4l-0.5-0.5c-0.3-0.3-0.4-0.7-0.4-1.1
			s0.1-0.8,0.4-1.1l1.5-1.5c0.3-0.3,0.7-0.5,1.1-0.5c0.4,0,0.8,0.2,1.1,0.5L26.7,15.6z"/>
		<path class="st3" d="M32,20.9c-0.5-0.5-1.1-0.8-1.9-0.8c-0.7,0-1.4,0.3-1.8,0.8l0,0c-0.5,0.5-0.8,1.2-0.8,1.9s0.3,1.4,0.8,1.9
			c0.5,0.5,1.1,0.8,1.9,0.8c0.7,0,1.4-0.3,1.9-0.8l0,0c0.5-0.5,0.8-1.2,0.8-1.9C32.8,22.1,32.5,21.4,32,20.9 M30.1,18.4
			c1.2,0,2.3,0.5,3.1,1.3s1.3,1.9,1.3,3.1s-0.5,2.3-1.3,3.1s-1.9,1.3-3.1,1.3c-1.2,0-2.3-0.5-3.1-1.3s-1.3-1.9-1.3-3.1
			s0.5-2.3,1.3-3.1h0.1C27.9,18.9,29,18.4,30.1,18.4"/>
		<path class="st3" d="M26.9,44.7c0.3-0.3,0.9-0.3,1.2,0s0.3,0.9,0,1.2c-2.3,2.3-5,4.2-8.1,5.5l-0.1,0.1c-2.9,1.2-6.1,1.9-9.4,1.9
			c-0.5,0-0.8-0.4-0.8-0.9s0.4-0.9,0.8-0.9c3.1,0,6.1-0.6,8.8-1.8l0,0C22.2,48.6,24.7,46.9,26.9,44.7"/>
		<path class="st3" d="M10.5,51.6c0.5,0,0.8,0.4,0.8,0.9s-0.4,0.9-0.8,0.9H8.3c-0.8,0-1.6-0.3-2.1-0.9l0,0c-0.5-0.6-0.9-1.3-0.9-2.2
			v-1.8c0-0.8,0.3-1.6,0.9-2.2l0,0c0.5-0.6,1.3-0.9,2.1-0.9h2.2c0.5,0,0.8,0.4,0.8,0.9s-0.4,0.9-0.8,0.9H8.3c-0.4,0-0.7,0.2-0.9,0.4
			l0,0c-0.2,0.2-0.4,0.6-0.4,1v1.7c0,0.4,0.1,0.7,0.4,1c0.2,0.2,0.6,0.4,0.9,0.4h2.2V51.6z"/>
		<path class="st3" d="M6.2,44.9c-0.5,0-0.8-0.4-0.8-0.9s0.4-0.9,0.8-0.9c0.8,0,1.6,0.4,2.1,0.9l0,0c0.5,0.6,0.9,1.3,0.9,2.2
			c0,0.5-0.4,0.9-0.8,0.9c-0.5,0-0.8-0.4-0.8-0.9c0-0.4-0.2-0.7-0.4-1l0,0C6.9,45.1,6.5,44.9,6.2,44.9"/>
		<path class="st3" d="M2.9,39.4c-0.5,0-0.8-0.4-0.8-0.9s0.4-0.9,0.8-0.9c0.5,0,1.1,0.1,1.6,0.3l0,0c0.5,0.2,1,0.5,1.3,0.9l0.1,0.1
			c0.4,0.4,0.6,0.8,0.8,1.3c0.2,0.5,0.3,1,0.3,1.6V44c0,0.5-0.4,0.9-0.8,0.9c-0.5,0-0.9-0.4-0.9-0.9v-2.2c0-0.3-0.1-0.7-0.2-0.9
			c-0.1-0.3-0.3-0.5-0.5-0.8l0,0c-0.2-0.2-0.5-0.4-0.8-0.5C3.5,39.4,3.2,39.4,2.9,39.4"/>
		<path class="st3" d="M3.6,39c-0.3,0.4-0.8,0.5-1.2,0.2C2,38.9,1.9,38.4,2.2,38l2.7-3.9l1.4-2c0.3-0.4,0.8-0.5,1.2-0.2
			c0.4,0.3,0.5,0.8,0.2,1.2l-1.4,2L3.6,39z"/>
		<path class="st3" d="M7.5,22c-0.1,0.5-0.6,0.8-1,0.7c-0.5-0.1-0.7-0.6-0.6-1c0.4-1.9,1.1-3.8,2-5.5c0.9-1.7,2.1-3.3,3.5-4.7
			C13.3,9.5,15.6,8,18,7c2.4-1,5.1-1.6,7.8-1.6s5.3,0.5,7.8,1.6c2.4,1,4.7,2.6,6.6,4.5l0,0c0.4,0.5,0.9,0.9,1.3,1.5
			c0.4,0.5,0.8,1.1,1.2,1.6c1.5,2.3,2.6,4.9,3.1,7.6s0.5,5.5,0,8.3c-0.4,2-1.1,3.9-2,5.7s-2.1,3.4-3.5,4.9c-0.3,0.3-0.9,0.3-1.2,0
			s-0.3-0.9,0-1.2c1.3-1.3,2.4-2.8,3.2-4.5c0.9-1.6,1.5-3.4,1.9-5.2c0.5-2.5,0.5-5.1,0-7.6s-1.4-4.9-2.8-7c-0.3-0.5-0.7-1-1.1-1.5
			s-0.8-0.9-1.2-1.4c-1.8-1.8-3.8-3.2-6.1-4.2c-2.2-0.9-4.7-1.4-7.2-1.4s-4.9,0.5-7.2,1.4c-2.2,0.9-4.3,2.4-6.1,4.2l0,0
			c-1.3,1.3-2.3,2.8-3.2,4.3C8.5,18.5,7.9,20.2,7.5,22"/>
		<path class="st3" d="M11.7,29.8c-0.4,0.2-0.9,0-1.1-0.5c-0.2-0.4,0-0.9,0.5-1.1c0.4-0.2,0.9-0.3,1.4-0.4c0.5-0.1,1-0.1,1.5-0.1
			s1,0.1,1.5,0.1c0.5,0.1,1,0.3,1.4,0.4c0.4,0.2,0.6,0.7,0.4,1.1c-0.2,0.4-0.7,0.6-1.1,0.5c-0.4-0.2-0.7-0.3-1.1-0.3
			c-0.4-0.1-0.7-0.1-1.1-0.1c-0.4,0-0.8,0-1.1,0.1C12.4,29.5,12.1,29.6,11.7,29.8"/>
		<path class="st3" d="M39,39.7c0.3-0.3,0.9-0.3,1.2,0c0.3,0.3,0.3,0.9,0,1.2c-0.2,0.2-0.4,0.5-0.6,0.7c-0.2,0.2-0.4,0.5-0.6,0.7
			l0,0c-0.2,0.2-0.4,0.4-0.5,0.7c-0.2,0.2-0.4,0.5-0.5,0.7c-0.2,0.3-0.3,0.5-0.5,0.8l0,0c-0.1,0.2-0.3,0.5-0.4,0.8l0,0
			c-0.1,0.2-0.3,0.5-0.4,0.8l0,0c-0.1,0.3-0.2,0.5-0.4,0.8l0,0c-0.1,0.3-0.2,0.6-0.3,0.9l0,0c-0.1,0.3-0.2,0.6-0.3,0.9l0,0
			c-0.1,0.3-0.2,0.6-0.2,0.9v0.1c-0.1,0.3-0.1,0.6-0.2,0.9c-0.1,0.3-0.1,0.6-0.2,0.9c0,0.3-0.1,0.7-0.1,1l0,0c0,0.3-0.1,0.6-0.1,0.9
			l0,0c0,0.3,0,0.6,0,1s0,0.7,0,1s0,0.6,0.1,1c0,0.3,0.1,0.6,0.1,1c0.1,0.3,0.1,0.7,0.2,0.9l0.1,0.6l0,0l0.1,0.5
			c0.1,0.5-0.2,0.9-0.6,1c-0.4,0.1-0.9-0.2-1-0.6l-0.1-0.5v-0.1l-0.1-0.6l0,0l0,0c-0.1-0.4-0.1-0.7-0.2-1c0-0.3-0.1-0.7-0.1-1
			c0-0.4-0.1-0.7-0.1-1.1c0-0.4,0-0.7,0-1.1c0-0.3,0-0.7,0-1.1c0-0.4,0-0.7,0.1-1.1c0-0.4,0.1-0.7,0.1-1c0.1-0.3,0.1-0.7,0.2-1
			c0.1-0.3,0.1-0.6,0.2-0.9v-0.1c0.1-0.3,0.2-0.6,0.3-1l0,0c0.1-0.3,0.2-0.6,0.3-0.9v-0.1c0.1-0.3,0.2-0.6,0.4-0.9l0,0
			c0.1-0.3,0.2-0.6,0.4-0.9l0,0c0.1-0.3,0.3-0.6,0.4-0.9l0,0c0.1-0.3,0.3-0.5,0.5-0.8v-0.1c0.2-0.3,0.4-0.6,0.5-0.9
			c0.2-0.3,0.4-0.5,0.6-0.8c0.2-0.2,0.4-0.5,0.6-0.8l0,0c0.2-0.3,0.4-0.5,0.6-0.8C38.5,40.1,38.8,39.9,39,39.7"/>
		<path class="st3" d="M17.8,54.5c0-0.5,0.4-0.9,0.8-0.9c0.5,0,0.8,0.4,0.8,0.9c0,0.3-0.1,1-0.3,1.9c-0.1,0.8-0.3,1.8-0.4,2.4h11.4
			c0.5,0,0.8,0.4,0.8,0.9s-0.4,0.9-0.8,0.9H18c-0.6,0-0.9-0.4-0.9-1.2l0,0c0-0.7,0.3-2.1,0.5-3.3C17.7,55.3,17.8,54.7,17.8,54.5"/>
		<path class="st3" d="M6.1,22.3c-0.3-0.4-0.2-0.9,0.2-1.2c0.4-0.3,0.9-0.2,1.2,0.2c0.6,0.9,1.1,1.9,1.5,2.9c0.3,1,0.5,2.1,0.5,3.2
			c0,1-0.1,2-0.4,3c-0.3,1-0.7,1.9-1.3,2.7c-0.3,0.4-0.8,0.5-1.2,0.2c-0.4-0.3-0.5-0.8-0.2-1.2c0.5-0.7,0.8-1.5,1.1-2.3
			c0.2-0.8,0.4-1.6,0.4-2.5s-0.1-1.8-0.4-2.7C7,23.9,6.6,23.1,6.1,22.3"/>
	</g>
	<rect x="-24.1" y="-7.7" class="st6" width="98.2" height="83"/>
</g>
<g id="Layer_3_1_" class="st0">
	<path class="st7" d="M24.5,53.7c10.6,0,21.2,0,31.9,0c2.7,0,4.9,1.2,6.5,3.4c1,1.4,1.5,3,1.5,4.6s-0.5,3-1.3,4.4
		c-1.1,1.7-2.7,2.8-4.6,3.4c-0.7,0.2-1.4,0.3-2.1,0.3c-21,0-41.9,0-62.9,0c-3.2,0-6.1-2-7.3-5c-0.7-1.8-0.9-3.6-0.3-5.5
		c0.5-1.7,1.6-3.1,3-4.2c1.5-1.1,3.2-1.5,5-1.5C4.2,53.7,14.3,53.7,24.5,53.7z M24.9,68.5c10.3,0,20.6,0,31,0c1.7,0,3.3-0.5,4.7-1.6
		c1.2-0.9,1.8-2.2,2.3-3.6c0.5-1.8,0.1-3.5-0.8-5c-1.4-2.4-3.6-3.3-6.2-3.3c-20.6,0-41.2,0-61.8,0c-1.3,0-2.5,0.2-3.6,0.8
		c-1.6,0.9-2.8,2.3-3.3,4.2c-0.7,2.3-0.1,4.3,1.3,6.1c1.4,1.8,3.3,2.4,5.5,2.4C4.3,68.5,14.6,68.5,24.9,68.5z"/>
	<path class="st7" d="M55.3,37.2c0-3.2,0-6.3,0-9.5c0-1.2-0.5-2.2-1.1-3.2c-0.7-1-1.6-1.9-2.4-2.9c-0.2-0.2-0.3-0.5-0.4-0.8
		c0.3-0.1,0.6-0.2,0.9-0.1c0.3,0,0.6,0.1,0.7,0.3c0.9,1.1,2,2.2,2.7,3.4c0.8,1.4,1.1,2.9,1.1,4.6c0,5.9,0,11.8,0,17.7
		c0,1.7-0.5,3.3-1.7,4.7c-0.9,1.2-2.2,1.5-3.6,1.3h-0.1c-0.7-0.7-1.6-0.3-2.4-0.5c-0.2,0-0.5,0-0.7,0.1c-1.5,1-3.5,0.3-4.4-1
		c-1.1-1.5-1.6-3.1-1.6-4.8c0-5.9,0-11.8,0-17.6c0-2.9,1.3-5.2,3.3-7.2c0.4-0.4,0.8-1,1.5-0.9c0.2,0,0.4,0.1,0.6,0.2
		c-0.1,0.2-0.1,0.4-0.2,0.6c-0.5,0.6-1.1,1.2-1.7,1.8c-1.1,1.3-1.9,2.7-2,4.5c0.1,0.4,0.1,0.9,0.1,1.5c0,5.6,0,11.3,0,16.9
		c0,1.3,0.2,2.6,1,3.7c0.4,0.6,0.9,1.2,1.7,1.2c0.4,0,0.6,0.1,0.9-0.3c0.1-0.1,0.4-0.2,0.6-0.2c1,0,2,0,3.1,0c0.2,0,0.4,0.1,0.6,0.2
		c0.6,0.5,1.3,0.5,1.9,0c1-0.9,1.6-2,1.7-3.2C55.3,44.2,55.3,40.7,55.3,37.2L55.3,37.2z"/>
	<path class="st7" d="M37.4,37.6c0-3,0-5.9,0-8.9c0-2.3-0.9-4.2-2.4-5.8c-0.5-0.5-1-1-1.4-1.5c-0.1-0.1-0.2-0.4-0.2-0.5
		c0.1-0.1,0.3-0.2,0.5-0.2c0.6-0.1,1.1,0.2,1.4,0.7c0.7,1,1.6,1.8,2.2,2.8c0.5,0.9,0.9,2,1.1,3.1c0.3,1.2,0.3,2.4,0.3,3.6
		c0,5.2,0,10.5,0,15.7c0,2-0.7,3.8-2.2,5.2c-1.1,1-2.5,1.1-3.8,0.4c-0.2-0.1-0.5-0.1-0.7-0.1c-0.3,0-0.7,0-1,0s-0.7,0.1-0.9,0.2
		c-0.9,0.5-1.9,0.5-2.7,0.1c-1.7-0.9-2.6-2.4-2.9-4.3c-0.2-1-0.2-2.1-0.2-3.2c0-5.3,0-10.6,0-15.9c0-2.7,1-5.1,2.8-7.1
		c0.2-0.2,0.5-0.4,0.6-0.7c0.4-0.6,1-0.7,1.7-0.7c0.2,0,0.4,0.1,0.4,0.2s0,0.3-0.1,0.4c-0.6,0.7-1.2,1.3-1.8,2
		c-1.4,1.5-2.1,3.4-2.1,5.4c0,6,0,12.1,0,18.1c0,1.6,0.5,3,1.7,4.1c0.5,0.5,1.4,0.5,1.9,0c0.1-0.1,0.4-0.2,0.6-0.2c1,0,2,0,2.9,0
		c0.2,0,0.5,0.1,0.7,0.2c0.5,0.3,1.4,0.5,1.7,0.1c0.5-0.6,1-1.3,1.4-2c0.6-1,0.5-2.2,0.5-3.3C37.4,43.1,37.4,40.3,37.4,37.6z"/>
	<path class="st7" d="M31.7,19.8c-0.7,0-1.3,0-2,0s-1-0.3-1-1c0-0.4,0-0.8,0-1.3c0-0.8,0.5-1.4,1.4-1.4c1.1,0,2.2,0,3.4,0
		c0.8,0,1.4,0.7,1.4,1.4c0,0.4,0,0.8,0,1.2c0,0.6-0.4,1.1-1.1,1.1C33,19.9,32.3,19.8,31.7,19.8z"/>
	<path class="st7" d="M49.6,19.8c-0.6,0-1.3,0-1.9,0c-0.7,0-1.1-0.4-1.1-1.1c0-0.4,0-0.8,0-1.2c0-0.8,0.5-1.4,1.3-1.4
		c1.1,0,2.3,0,3.4,0c0.7,0,1.5,0.7,1.4,1.5c-0.1,0.4,0,0.8,0,1.1c0,0.7-0.4,1.1-1.1,1.1C50.9,19.9,50.3,19.8,49.6,19.8L49.6,19.8z"
		/>
	<path class="st7" d="M-6.3,61.8c-0.1-1.9,1.5-3.3,3.2-3.3c1.9,0,3.4,1.6,3.4,3.3c0,1.8-1.5,3.5-3.3,3.4C-4.7,65-6.3,63.9-6.3,61.8z
		"/>
	<path class="st7" d="M19.1,61.8c0.1,2.1-1.6,3.3-3.3,3.3c-1.8,0-3.2-1.5-3.2-3.4c0-1.7,1.4-3.2,3.3-3.3
		C17.5,58.4,19.3,59.8,19.1,61.8z"/>
	<path class="st7" d="M57,61.7c-0.1,2.1-1.6,3.3-3.2,3.4c-1.9,0.1-3.4-1.4-3.4-3.3c0-1.8,1.5-3.3,3.4-3.3C55.4,58.5,57,60.1,57,61.7
		z"/>
	<path class="st7" d="M34.7,58.4c1.9,0.1,3.3,1.4,3.3,3.3c0,2.1-1.4,3.4-3.3,3.4c-1.9,0-3.3-1.3-3.4-3.4
		C31.4,60.1,32.8,58.5,34.7,58.4z"/>
	<path class="st7" d="M5.9,22.1c1.4,2.9,3,5.6,4.2,8.5c1.5,3.4,0,7.3-3.2,9.1c-3.3,1.8-7.4,1.2-9.4-2c-2.3-3.6-4-7.6-5.8-11
		C-3.5,25.2,1,23.7,5.9,22.1z"/>
	<path class="st7" d="M-6.2,21.7c-4.6,0-8.2-3.6-8.3-8.2c0-4.5,3.7-8.2,8.3-8.2S2.1,9,2.1,13.5C2.2,17.9-1.7,21.7-6.2,21.7z"/>
	<path class="st7" d="M7.1,16.1c0.5-4.5-0.4-8.4-3.3-12C10,3,15.9,1.9,21.6,0.9c0.8,2.9,1.5,5.8,2.4,8.9
		C18.7,11.8,13.1,13.9,7.1,16.1z"/>
	<path class="st7" d="M10.5,51.2c-4.8,0-9.5,0-14.4,0c0-2.4,0-4.7,0-7.2c4.7,2.2,9.5,2.4,14.4-0.1C10.5,46.3,10.5,48.6,10.5,51.2z"
		/>
	<path class="st7" d="M36.6,3.3c0-2.7-2.2-4.8-4.9-4.8s-4.9,2.1-4.9,4.8c0,2.3,1.5,4.1,3.6,4.7v6h2.7V8C35.1,7.3,36.6,5.4,36.6,3.3z
		"/>
</g>
<g id="Layer_2_3_">
	<path class="st8" d="M31.2,35.6c0,1.9,0,3.7,0,5.5c0,1.2-0.3,1.4-1.4,1.4c-1,0-2,0-3.1,0c0,1.3,0,2.5,0,3.8c0,0.6,0,1.2,0,1.8
		c0,1-0.3,1.3-1.3,1.3s-2,0-3.1,0c0,0.4,0,0.7,0,1.1c0,2.7,0,5.4,0,8.1c0,0.5-0.3,1.1-0.6,1.5c-0.5,0.7-1.3,1.3-1.9,2.1
		c-0.6,0.7-1.2,0.7-1.8,0l-0.1-0.1c-2.1-1.6-2.9-3.6-2.5-6.1c0.2-1.8,0-3.7,0-5.5c0-0.3,0-0.6,0-1c-1.1,0-2.1,0-3,0
		c-1.2,0-1.3-0.3-1.4-1.4c0-1.8,0-3.6,0-5.4c-1.1,0-2.1,0-3.1,0c-1.2,0-1.4-0.3-1.4-1.4c0-3,0-5.8,0-8.8c0-0.4,0-0.6,0-1.1
		c-0.6,0-1.2,0-1.7,0c-0.8,0-1.2-0.4-1.2-1.2c0-8.2,0-16.4,0-24.6c0-0.6,0.3-1.1,1-1.1c0.6,0,1,0.4,1,1.1c0,0.3,0,0.4,0,0.7
		c0,7.3,0,14.7,0,21.9c0,0.4,0,0.7,0,1.1c3.7,0,7.3,0,11,0c-0.3-0.4-0.4-0.6-0.6-1c-0.4-0.5-0.4-1.1,0-1.6s0.9-1.1,1.3-1.7
		c0.2-0.3,0.2-0.7,0.1-1c-0.2-1.2-0.9-1.6-2.1-1.7c-2.2-0.2-2.3,0.2-2.5-2.8c-0.1-1.4,0.1-2.9,0.2-4.2c0-0.7,0.4-1.2,1.2-1.3
		c0.5,0,1.2-0.2,1.7-0.3c1.4-0.2,2.1-1.8,1.3-2.9c-0.3-0.4-0.6-0.8-0.9-1.3c-0.6-0.9-0.6-1.1,0-2.1c0.3-0.4,0.5-0.8,1-1.3
		c-1.5,0-3,0-4.3,0c-0.4,0-0.8-0.1-1-0.3c-0.1-0.4-0.3-0.9-0.1-1.2s0.6-0.5,1-0.5c1.9-0.1,3.8-0.1,5.6,0c0.6,0,1.2-0.1,1.6-0.5
		c0.6-0.6,1.3-0.6,2,0c0.3,0.3,0.6,0.4,0.8,0.6c0.7,0.7,1.4,0.9,2.4,0.4c0.5-0.3,0.8-0.5,0.8-1.2c0.1-0.6,0.2-1.3,0.3-2
		c0.1-0.6,0.4-1,1.1-1.1c2-0.4,3.9-0.4,6,0c0.7,0.1,1.1,0.5,1.1,1.2c0,0.4,0.2,0.8,0.2,1.3c0,1.1,0.4,1.7,1.5,2
		C36.8,5,37.2,5,37.6,4.6c0.4-0.4,1.1-0.8,1.5-1.2c0.5-0.4,1-0.4,1.5,0c1.7,1.2,3.1,2.6,4.3,4.3c0.4,0.4,0.4,1,0,1.4
		c-0.3,0.4-0.5,0.8-0.8,1.1c-0.7,0.7-0.9,1.4-0.4,2.4c0.3,0.5,0.5,0.8,1.2,0.8s1.3,0.2,2.1,0.3c0.5,0.1,0.9,0.4,1,0.9
		c0.4,2.1,0.4,4.1,0,6.1c-0.1,0.5-0.4,0.9-1,1c-0.4,0.1-0.9,0.2-1.3,0.2c-1.1,0-1.7,0.4-2,1.5c-0.2,0.5-0.2,1,0.2,1.3
		c0.4,0.4,0.8,1.1,1.2,1.5c0.4,0.5,0.4,1,0.1,1.5c-1.2,1.7-2.6,3-4.3,4.3c-0.5,0.4-1,0.4-1.5-0.1c-0.5-0.4-1.2-0.9-1.8-1.3
		c-0.4-0.3-0.6-0.4-1-0.1c-0.3,0.2-0.6,0.2-0.9,0.4s-0.5,0.4-0.6,0.7c-0.2,0.6-0.3,1.3-0.3,2c-0.1,0.9-0.4,1.3-1.3,1.4
		C32.3,35.4,31.8,35.5,31.2,35.6z M17.6,8.5c0.6,0.9,1.2,1.6,1.8,2.3c0.4,0.4,0.4,0.9,0.1,1.3c-0.4,0.8-0.7,1.6-1,2.4
		c-0.2,0.5-0.5,0.8-1.1,0.9c-0.7,0.1-1.3,0.2-2.1,0.3c-0.4,0-0.7,0.2-0.7,0.7c0,1.1,0,2.1,0,3.2c0,0.4,0.3,0.6,0.6,0.6
		c0.7,0.1,1.3,0.2,2.1,0.3c0.6,0.1,1,0.4,1.2,1c0.3,0.8,0.6,1.6,1,2.3c0.3,0.5,0.3,1-0.1,1.4c-0.5,0.7-1.1,1.4-1.7,2.3
		c1,1.1,2,2.1,3,3c0.9-0.7,1.6-1.2,2.3-1.7c0.4-0.4,0.9-0.4,1.4-0.2c0.8,0.4,1.6,0.7,2.4,1c0.5,0.2,0.8,0.5,0.9,1.1
		c0.1,0.7,0.2,1.4,0.4,2.1c0.1,0.3,0.4,0.5,0.6,0.5c1,0.1,1.9,0.1,2.9,0.1c0.7,0,1.1-0.3,1.1-1.1c0-0.6,0.2-1.2,0.3-1.8
		s0.4-0.9,1-1.1c0.8-0.3,1.5-0.5,2.2-0.9c0.6-0.3,1.1-0.3,1.6,0.2c0.5,0.4,1.1,0.9,1.7,1.3c0.2,0.1,0.5,0.2,0.6,0.1
		c1-0.9,2-1.8,3-2.7c-0.7-0.9-1.3-1.6-1.7-2.3c-0.2-0.4-0.3-0.9-0.1-1.3c0.3-0.9,0.6-1.8,1.1-2.6c0.2-0.4,0.6-0.7,1-0.8
		c0.7-0.2,1.4-0.2,2.1-0.4c0.3-0.1,0.5-0.4,0.5-0.5c0.1-1.1,0.1-2.1,0-3.3c0-0.2-0.4-0.5-0.5-0.6c-0.7-0.2-1.4-0.3-2.1-0.4
		c-0.5-0.1-0.9-0.4-1.1-0.9c-0.3-0.8-0.6-1.6-1-2.3c-0.3-0.6-0.3-1.1,0.2-1.6c0.5-0.7,1.1-1.3,1.6-2.1c-0.7-0.7-1.3-1.5-2.1-2.1
		c-1-0.9-1-0.9-2-0.1c-0.4,0.3-0.8,0.5-1.2,0.9s-0.9,0.4-1.4,0.1c-0.8-0.4-1.5-0.7-2.3-1c-0.5-0.2-0.9-0.5-1-1.1
		c-0.1-0.7-0.2-1.4-0.3-2.1c-0.1-0.4-0.2-0.6-0.6-0.6c-1.1,0-2.1,0-3.2,0c-0.5,0-0.6,0.3-0.7,0.7c-0.1,0.7-0.2,1.4-0.3,2.1
		c-0.1,0.5-0.4,0.8-0.9,1.1c-0.8,0.3-1.5,0.5-2.2,0.9c-0.6,0.4-1.2,0.3-1.7-0.2c-0.6-0.5-1.3-1-2.2-1.7C19.5,6.4,18.6,7.4,17.6,8.5z
		 M29.2,35.6c-0.7-0.1-1.3-0.2-1.9-0.3c-0.7-0.1-1.1-0.4-1.2-1.2c-0.1-0.6-0.2-1.3-0.3-2c0-0.5-0.4-0.8-0.8-1.1
		c-1-0.5-1.7-0.4-2.4,0.4c-0.4,0.4-0.7,0.5-1.1,0.8c-0.5,0.4-1,0.4-1.5,0c-0.3-0.3-0.6-0.5-0.9-0.7c-0.4-0.3-1-0.5-1.4-0.5
		c-2.8-0.1-5.5,0-8.3,0c-0.3,0-0.5,0-0.9,0c0,1.8,0,3.5,0,5.4c0.4,0,0.7,0,1,0c2.7,0,5.4,0,8.1,0c0.6,0,1.1,0.3,1.1,0.9
		c0,0.7-0.4,1-1.1,1c-0.2,0-0.4,0-0.6,0c-2.5,0-5,0-7.4,0c-0.3,0-0.6,0-0.9,0c0,0.7,0,1.3,0,2c7,0,13.9,0,20.8,0
		C29.2,38.9,29.2,37.3,29.2,35.6z M13,42.5c0,1.7,0,3.2,0,4.8c3.9,0,7.8,0,11.6,0c0-1.6,0-3.2,0-4.8c-3.7,0-7.3,0-10.8,0
		C13.5,42.5,13.3,42.5,13,42.5z M17.3,49.4c0,0.4,0,0.7,0,1c0,2.2,0.1,4.5,0,6.7c-0.1,1.3,0.5,2.1,1.5,3c1.3-1.1,1.5-1.3,1.5-3
		c0-2.2,0-4.6,0-6.8c0-0.3,0-0.5-0.1-0.9C19.3,49.4,18.4,49.4,17.3,49.4z"/>
	<path class="st8" d="M19.1,66c-4.8,0-9.8,0-14.6,0c-0.3,0-0.6,0.1-0.8-0.1c-0.3-0.3-0.6-0.6-0.6-1c0-0.3,0.4-0.6,0.7-0.9
		c0.2-0.1,0.5-0.1,0.8-0.1c9.8,0,19.4,0,29.2,0c0.3,0,0.5-0.1,0.7,0c0.4,0.3,0.8,0.6,0.8,0.9c0,0.4-0.4,0.7-0.7,1
		c-0.2,0.1-0.4,0-0.7,0C28.9,66,24,66,19.1,66z"/>
	<path class="st8" d="M6.6,60.2c-1.8,0-3.6,0-5.3,0c-0.9,0-1.3-0.4-1.3-1c0.1-0.8,0.6-0.9,1.3-0.9c3.6,0,7.1,0,10.7,0
		c0.9,0,1.3,0.4,1.3,1c-0.1,0.7-0.6,1-1.3,1C10.2,60.2,8.4,60.2,6.6,60.2z"/>
	<path class="st8" d="M31.7,58.3c1.8,0,3.6,0,5.3,0c0.9,0,1.3,0.4,1.3,1s-0.4,1-1.3,1c-3.5,0-7.1,0-10.6,0c-0.9,0-1.3-0.4-1.3-1
		c0-0.8,0.5-1,1.3-1C28.1,58.3,29.9,58.3,31.7,58.3z"/>
	<path class="st8" d="M8.6,4.4c0.3,0,0.5,0,0.8,0c0.5,0,0.9,0.4,0.9,0.9c0,0.6-0.4,0.9-0.9,1s-1.1,0-1.6,0c-0.6,0-1-0.4-1-1
		s0.4-0.9,1-1C8.2,4.3,8.3,4.4,8.6,4.4L8.6,4.4z"/>
	<path class="st8" d="M30.2,27.5c-5.3,0-9.5-4.2-9.4-9.5c0-5.3,4.3-9.5,9.5-9.4c5.3,0,9.5,4.3,9.5,9.5
		C39.7,23.3,35.5,27.5,30.2,27.5z M30.1,25.5c4.1,0.1,7.5-3.3,7.6-7.4s-3.3-7.6-7.4-7.6c-4.1-0.1-7.5,3.3-7.6,7.4S26,25.5,30.1,25.5
		z"/>
	<path class="st8" d="M23.6,36.6c0.4,0,0.9-0.1,1.2,0c0.4,0.2,0.8,0.6,0.8,0.9c0,0.4-0.4,0.9-0.7,0.9c-0.9,0.1-1.8,0.1-2.7,0
		c-0.3-0.1-0.7-0.6-0.7-1c0-0.3,0.4-0.7,0.8-0.8S23.1,36.6,23.6,36.6L23.6,36.6z"/>
	<path class="st8" d="M30.2,22.8c-2.7,0-4.8-2.1-4.8-4.8s2.1-4.7,4.7-4.8c2.7,0,4.8,2.1,4.8,4.8C35,20.7,32.9,22.8,30.2,22.8z
		 M33,18c0-1.6-1.3-2.9-2.9-2.9c-1.6,0-2.9,1.3-2.9,2.9s1.3,2.9,2.9,2.9C31.8,20.8,33,19.6,33,18z"/>
</g>
</svg>
