<?xml version="1.0" encoding="utf-8"?>
<!-- Generator: Adobe Illustrator 26.2.1, SVG Export Plug-In . SVG Version: 6.00 Build 0)  -->
<svg version="1.1" id="Layer_1" xmlns="http://www.w3.org/2000/svg" xmlns:xlink="http://www.w3.org/1999/xlink" x="0px" y="0px"
	 viewBox="0 0 47.6 47.6" style="enable-background:new 0 0 47.6 47.6;" xml:space="preserve">
<style type="text/css">
	.st0{display:none;}
	.st1{display:inline;fill:#010202;}
	.st2{display:inline;}
	.st3{fill:none;stroke:#FFFFFF;stroke-width:2;stroke-miterlimit:10;}
	.st4{fill:#0088CC;}
	.st5{fill:#FFFFFF;}
	.st6{display:inline;fill:#FFFFFF;}
	.st7{display:inline;fill:none;stroke:#FFFFFF;stroke-width:0.75;stroke-miterlimit:100;}
	.st8{fill:none;}
</style>
<g id="Layer_4" class="st0">
	<rect x="-29.6" y="-13.7" class="st1" width="98" height="83"/>
</g>
<g id="servis" class="st0">
	<g class="st2">
		<path class="st3" d="M40.1,30v-5.6l3.6-1.5c-0.4-2.3-1.1-4.6-2.2-6.7l-3.8,0.9l-3.3-4.5l2-3.4c-1.7-1.6-3.6-3-5.7-4.1l-2.6,3
			l-5.3-1.7l-0.3-3.9c-2.4-0.3-4.7-0.3-7,0l-0.3,3.9L10,8.1l-2.6-3c-2.1,1.1-4,2.5-5.7,4.1l2,3.4l-3.3,4.5l-3.8-0.9
			c-0.5,1-0.9,2.1-1.3,3.3c-0.4,1.1-0.6,2.3-0.8,3.4l3.6,1.5V30l-3.6,1.5c0.4,2.3,1.1,4.6,2.2,6.7l3.8-0.9l3.3,4.5l-2,3.4
			c1.7,1.6,3.6,3,5.7,4.1l2.6-3l5.3,1.7l0.3,3.9c2.4,0.3,4.7,0.3,7,0L23,48l5.3-1.7l2.6,3c2.1-1.1,4-2.5,5.7-4.1l-2-3.4l3.3-4.5
			l3.8,0.9c0.5-1,0.9-2.1,1.3-3.3c0.4-1.1,0.6-2.3,0.8-3.4L40.1,30z M15,40c-7-2.3-10.9-9.9-8.6-16.9s9.8-10.9,16.9-8.6
			c7,2.3,10.9,9.8,8.6,16.9C29.6,38.4,22,42.2,15,40z"/>
		<path class="st3" d="M22.1,18.2c-5-1.6-10.4,1.1-12,6.1c-1.6,5,1.1,10.4,6.1,12s10.4-1.1,12-6.1S27.1,19.8,22.1,18.2z M17.9,31
			c-2.1-0.7-3.2-2.9-2.5-5s2.9-3.2,5-2.5s3.2,2.9,2.5,5C22.2,30.5,20,31.7,17.9,31z"/>
	</g>
</g>
<g id="Layer_2_1_">
	<path class="st4" d="M47.6,3.7c0,1-0.4,1.9-1.1,2.6s-1.6,1.1-2.6,1.1S42,7,41.3,6.3s-1.1-1.6-1.1-2.6s0.4-1.9,1.1-2.6
		C42,0.4,42.9,0,43.9,0s1.9,0.4,2.6,1.1C47.3,1.8,47.6,2.7,47.6,3.7z"/>
	<path class="st4" d="M17.6,20.3L6.4,9.2c-1.5-1.5-3.8-1.5-5.3,0s-1.5,3.8,0,5.3l11.1,11.1c1.5,1.5,3.8,1.5,5.3,0
		C19,24.1,19,21.8,17.6,20.3z"/>
	<path class="st4" d="M6.4,46.6l11.1-11.1c1.5-1.5,1.5-3.8,0-5.3s-3.8-1.5-5.3,0L1.1,41.3c-1.5,1.5-1.5,3.8,0,5.3
		C2.6,48,5,48,6.4,46.6z"/>
	<path class="st4" d="M22.1,35.4l11.1,11.1c1.5,1.5,3.8,1.5,5.3,0s1.5-3.8,0-5.3l-11.1-11c-1.5-1.5-3.8-1.5-5.3,0
		C20.7,31.6,20.7,34,22.1,35.4z"/>
	<path class="st4" d="M33.3,9.2L22.1,20.3c-1.5,1.5-1.5,3.8,0,5.3s3.8,1.5,5.3,0l11.1-11.1c1.5-1.5,1.5-3.8,0-5.3
		C37.1,7.7,34.7,7.7,33.3,9.2z"/>
</g>
<g id="Layer_3" class="st0">
	<g id="Ellipse_1" class="st2">
		<g>
			<path class="st5" d="M9.2-3.6c2.5,0,4.5,2,4.5,4.5s-2,4.5-4.5,4.5s-4.5-2-4.5-4.5C4.6-1.6,6.7-3.6,9.2-3.6 M9.2-4.6
				c-3,0-5.5,2.5-5.5,5.5s2.5,5.5,5.5,5.5s5.5-2.5,5.5-5.5C14.7-2.2,12.2-4.6,9.2-4.6L9.2-4.6z"/>
		</g>
	</g>
	<g id="Ellipse_1_copy" class="st2">
		<g>
			<path class="st5" d="M31.8,40.2c2.5,0,4.5,2,4.5,4.5s-2,4.5-4.5,4.5s-4.5-2-4.5-4.5S29.3,40.2,31.8,40.2 M31.8,39.2
				c-3,0-5.5,2.5-5.5,5.5s2.5,5.5,5.5,5.5s5.5-2.5,5.5-5.5S34.9,39.2,31.8,39.2L31.8,39.2z"/>
		</g>
	</g>
	<path class="st6" d="M-15.2,31.9c-6.5,0.2-7.9,4-7.9,4v19.5c2.6,2.9,5.6,3.6,7.9,3.5c2.3,0,5.3-0.6,7.9-3.5V35.8
		C-7.2,35.8-8.7,32.1-15.2,31.9z"/>
	<line class="st7" x1="-15.8" y1="27.7" x2="-15.8" y2="24.2"/>
	<line class="st7" x1="-15.8" y1="20.4" x2="-15.8" y2="16.8"/>
	<line class="st7" x1="-16" y1="12.9" x2="-15.8" y2="9.6"/>
	<line class="st7" x1="-14.2" y1="5.7" x2="-11.5" y2="3"/>
	<line class="st7" x1="-8.4" y1="0.8" x2="-4.8" y2="-0.6"/>
	<line class="st7" x1="-1.9" y1="-1.2" x2="1.7" y2="-1.4"/>
	<line class="st7" x1="8.2" y1="8.8" x2="8.2" y2="10.8"/>
	<line class="st7" x1="8.9" y1="14.2" x2="11.5" y2="17.3"/>
	<line class="st7" x1="14.9" y1="19.6" x2="18.9" y2="20.6"/>
	<line class="st7" x1="23.3" y1="20.9" x2="26.9" y2="23.6"/>
	<line class="st7" x1="29.4" y1="25.9" x2="31.7" y2="30.2"/>
	<line class="st7" x1="32.1" y1="34.5" x2="32.3" y2="36.5"/>
	<line class="st7" x1="39.1" y1="44.8" x2="43.1" y2="44.7"/>
	<line class="st7" x1="47.2" y1="44.3" x2="51.1" y2="44.3"/>
	<polyline class="st6" points="53.8,39.2 53.8,41.7 53.8,44.3 53.8,46.8 53.8,49.4 55.7,48.2 57.5,47 59.3,45.8 61.2,44.6 	"/>
</g>
<g id="Layer_5" class="st0">
	<g class="st2">
		<path class="st8" d="M34.5,11.1L34.5,11.1c-0.2-0.4-0.3-0.8-0.3-1.2C34.1,10.3,34.2,10.7,34.5,11.1L34.5,11.1z"/>
		<path class="st8" d="M26.9,52.2c-0.7,0-1,0.3-1,1s0.3,1,1,1s1-0.3,1-1C27.8,52.6,27.5,52.2,26.9,52.2z"/>
		<polygon class="st8" points="-10.3,18.1 -9.3,23.7 -8.6,23.7 -9.3,18.1 		"/>
		<polygon class="st8" points="-2.3,23.7 -1.7,23.7 -0.7,18.1 -2,18.1 		"/>
		<path class="st8" d="M44.1,52.2c-0.7,0-1,0.3-1,1s0.3,1,1,1s1-0.3,1-1C45.1,52.6,44.8,52.2,44.1,52.2z"/>
		<path class="st5" d="M-12,4.1c-1.7,0-3.3,2.3-3.3,5v5l5.3,0.3v-1.7V9.1C-9.6,6.5-10.3,4.1-12,4.1z"/>
		<path class="st5" d="M28.8,32.3c-0.3,0.7-1,1.7-1.3,2.7h7h1.7h7.2c-0.7-1.3-1.3-2.7-2.3-3.3H29.5C29.2,32,29.2,32.3,28.8,32.3z"/>
		<path class="st5" d="M32.7,12.4c0.3,3.2,0.6,9.1-0.6,13.9c-0.3,0.3-0.3,0.7-0.3,1c0,0-0.7,2.7-2,4h10.9c0,0-2.5-8.9-0.8-19.2
			c0.6-1.1,0.7-2.4,0.2-3.6c-0.2-0.7-0.6-1.3-1.1-1.7c-1.1-1.1-2.7-1.3-4-0.8c-2.5-0.7-6.8-2.1-11-4.7c-0.2-0.7-0.7-1.3-1.3-1.8
			c-1.7-1-3.3-1-4.6,0c-3,0.7-8.3,1.7-13.9,1C3,0,1.7,0.2,0.7,1l-2.8-0.1c-0.3,0-0.6-0.4-0.8-0.6C-3-0.6-3.3-0.8-3.8-0.8h-5
			c-0.7,0-1,0.3-1,1l-0.3,12.6l7.3,0.3V7.5c0.2-0.3,0.5-0.7,0.7-0.7l1.8,0.3c0.2,0.3,0.5,0.5,0.8,0.7c1,0.7,2,0.7,3,0.3
			c0,0,7.6-1.9,13.9-1.5c0.4,0.4,1,0.7,1.7,0.9C19.2,7.5,27.1,9.2,32.7,12.4z M35.5,7.8c1-0.7,2.7-0.3,3.3,1c0.7,1,0.3,2.7-1,3.3
			c-1,0.7-2.6,0.3-3.3-1l0,0c-0.3-0.4-0.4-0.8-0.3-1.2C34.2,9.1,34.6,8.2,35.5,7.8z M3.3,6.5C2,6.8,1,5.8,0.6,4.5
			c-0.3-1.3,0.7-2.7,2-2.7c1.3-0.3,2.7,0.7,2.7,2C5.6,5.1,4.6,6.1,3.3,6.5z M18.2,3.5c0-1.3,1-2.3,2.3-2.3s2.7,1,2.7,2.3
			c0,1.3-1.3,2.3-2.7,2.3C19.2,5.8,18.2,4.8,18.2,3.5z"/>
		<path class="st5" d="M51.7,48.3H37.1V39h8.6H46c0.3-0.3,0.3-0.3,0.3-0.7v-1v-1.7c0-0.3,0-0.7-0.3-0.7H24.9c-0.3,0-0.7,0.3-0.7,0.7
			v2.7c0,0.3,0.3,0.7,0.7,0.7h9v9.3h-15c-0.3,0-0.7,0.3-0.7,0.7v1c0,0.3,0.3,0.7,0.7,0.7h32.8c0.7,0,0.7-0.3,0.7-0.7v-1
			C52.4,48.6,52.4,48.3,51.7,48.3z"/>
		<path class="st5" d="M26.9,50.9c-1.3,0-2.3,1-2.3,2.3s1,2.3,2.3,2.3s2.3-1,2.3-2.3S28.2,50.9,26.9,50.9z M26.9,54.2
			c-0.7,0-1-0.3-1-1s0.3-1,1-1s1,0.3,1,1C27.8,53.9,27.5,54.2,26.9,54.2z"/>
		<path class="st5" d="M44.1,50.9c-1.3,0-2.3,1-2.3,2.3s1,2.3,2.3,2.3s2.3-1,2.3-2.3S45.4,50.9,44.1,50.9z M44.1,54.2
			c-0.7,0-1-0.3-1-1s0.3-1,1-1s1,0.3,1,1C45.1,53.9,44.8,54.2,44.1,54.2z"/>
		<path class="st5" d="M0.3,17.7L0.3,17.7l-3-3.6l0,0l0,0h-4.9l-0.8-0.3l-3,3.6l0,0l1.3,7h0.7h0.8h1l-0.3-1l-0.7-6l0,0l1-1l4.4,0.3
			l0.9,1l-1,6.6H-1L0.3,17.7L0.3,17.7L0.3,17.7L0.3,17.7z M-9.3,23.7l-1-5.6h1l0.7,5.6H-9.3z M-1.7,23.7h-0.7l0.3-5.6h1.3L-1.7,23.7
			z"/>
	</g>
</g>
<g id="Layer_6" class="st0">
	<path class="st6" d="M20.5,23L20.5,23L20.5,23z M30.6,25.2h-1C29.8,25.5,30.3,25.5,30.6,25.2 M30.1,21.7L30.1,21.7L30.1,21.7z
		 M22.3,11.7c-0.2,0.1-0.5,0.2-0.7,0.4c-0.3,0.2-0.8,0.2-1.1-0.1l-0.8-0.9l-1.3,1.3l0.8,0.8c0.3,0.3,0.3,0.7,0.1,1
		c-0.1,0.2-0.3,0.5-0.4,0.7V15c-0.1,0.2-0.2,0.5-0.3,0.8c-0.1,0.4-0.4,0.7-0.8,0.7h-1.1v1.8h1.1c0.4,0,0.7,0.3,0.8,0.7
		c0.1,0.3,0.2,0.6,0.3,0.8s0.2,0.5,0.4,0.7c0.2,0.3,0.2,0.8-0.1,1.1l-0.8,0.9l1.3,1.3l0.8-0.8c0.3-0.3,0.7-0.4,1.1-0.2
		c0.2,0.1,0.5,0.3,0.7,0.4l0,0c0.2,0.1,0.5,0.2,0.7,0.3c0.4,0.1,0.7,0.4,0.7,0.9v1.1h1.8v-1.1c0-0.4,0.3-0.7,0.6-0.8
		s0.5-0.2,0.8-0.3c0.2-0.1,0.5-0.2,0.7-0.4c0.3-0.2,0.8-0.2,1.1,0.1l0.8,0.8l1.3-1.3L30,21.7c-0.3-0.3-0.4-0.7-0.2-1.1
		c0.1-0.3,0.3-0.5,0.4-0.8c0.1-0.3,0.2-0.5,0.3-0.8c0.1-0.4,0.4-0.7,0.8-0.7h1.1v-1.8h-1c-0.4,0-0.7-0.3-0.8-0.6
		c-0.1-0.3-0.2-0.6-0.3-0.8c-0.1-0.2-0.2-0.5-0.3-0.7c-0.2-0.3-0.2-0.8,0.1-1.1l0.8-0.8l-1.4-1.4l-0.8,0.8c-0.3,0.3-0.7,0.3-1,0.1
		c-0.2-0.1-0.5-0.3-0.7-0.4h-0.1c-0.2-0.1-0.5-0.2-0.7-0.3c-0.4-0.1-0.7-0.4-0.7-0.9V9.2h-1.8v1.2l0,0c0,0.4-0.2,0.7-0.6,0.8
		C22.8,11.4,22.6,11.5,22.3,11.7L22.3,11.7z M21.2,10.2c0.1-0.1,0.3-0.1,0.4-0.2l0,0c0.1,0,0.2-0.1,0.4-0.1V9.2
		c0-0.4,0.2-0.8,0.5-1.1c0.3-0.3,0.7-0.5,1.1-0.5h2.1c0.4,0,0.8,0.2,1.1,0.5l0,0c0.3,0.3,0.5,0.7,0.5,1.1v0.7
		c0.1,0.1,0.3,0.1,0.4,0.2l0,0c0.1,0.1,0.2,0.1,0.4,0.2l0.5-0.5c0.3-0.3,0.7-0.5,1.1-0.5c0.4,0,0.8,0.2,1.1,0.5l0,0l1.4,1.5l0,0
		c0.3,0.3,0.4,0.7,0.4,1.1s-0.1,0.8-0.4,1.1L31.7,14c0.1,0.1,0.1,0.3,0.2,0.4c0.1,0.1,0.1,0.3,0.2,0.4h0.7c0.4,0,0.8,0.2,1.1,0.5
		s0.5,0.7,0.5,1.1v2.1c0,0.4-0.2,0.8-0.5,1.1l0,0c-0.5,0.3-0.8,0.5-1.3,0.5h-0.7c0,0.1-0.1,0.3-0.2,0.4c-0.1,0.1-0.1,0.3-0.2,0.4
		l0.4,0.5l0,0c0.3,0.3,0.4,0.7,0.4,1.1c0,0.4-0.1,0.8-0.4,1.1l-1.3,1.5l-0.1,0.1c-0.3,0.3-0.7,0.4-1,0.4c-0.4,0-0.8-0.2-1.1-0.5l0,0
		L28,24.6c-0.1,0.1-0.3,0.1-0.4,0.2c-0.1,0.1-0.3,0.1-0.4,0.2v0.7c0,0.4-0.2,0.8-0.5,1.1s-0.7,0.5-1.1,0.5h-2.1
		c-0.4,0-0.8-0.2-1.1-0.5S22,26.1,22,25.7V25c-0.1,0-0.3-0.1-0.4-0.2l0,0c-0.1-0.1-0.2-0.1-0.4-0.2l-0.4,0.5l0,0
		c-0.3,0.3-0.7,0.5-1.1,0.5c-0.4,0-0.8-0.2-1.1-0.5l0,0l-1.5-1.5c-0.3-0.3-0.4-0.7-0.4-1.1c0-0.4,0.1-0.8,0.4-1.1l0.5-0.5
		c-0.1-0.1-0.1-0.3-0.2-0.4l0,0c0-0.1-0.1-0.3-0.2-0.4h-0.6c-0.4,0-0.8-0.2-1.1-0.5s-0.4-0.7-0.4-1.1v-2.1c0-0.4,0.2-0.8,0.5-1.1
		l0,0c0.3-0.3,0.7-0.5,1.1-0.5h0.6c0-0.1,0.1-0.3,0.2-0.4v-0.1c0.1-0.1,0.1-0.2,0.2-0.4l-0.5-0.5c-0.3-0.3-0.4-0.7-0.4-1.1
		s0.1-0.8,0.4-1.1l1.5-1.5c0.3-0.3,0.7-0.5,1.1-0.5c0.4,0,0.8,0.2,1.1,0.5L21.2,10.2z"/>
	<path class="st6" d="M26.5,15.5c-0.5-0.5-1.1-0.8-1.9-0.8c-0.7,0-1.4,0.3-1.8,0.8l0,0C22.3,16,22,16.7,22,17.4
		c0,0.7,0.3,1.4,0.8,1.9s1.1,0.8,1.9,0.8c0.7,0,1.4-0.3,1.9-0.8l0,0c0.5-0.5,0.8-1.2,0.8-1.9C27.3,16.7,27,16,26.5,15.5 M24.6,13
		c1.2,0,2.3,0.5,3.1,1.3s1.3,1.9,1.3,3.1s-0.5,2.3-1.3,3.1s-1.9,1.3-3.1,1.3c-1.2,0-2.3-0.5-3.1-1.3s-1.3-1.9-1.3-3.1
		s0.5-2.3,1.3-3.1h0.1C22.4,13.5,23.5,13,24.6,13"/>
	<path class="st6" d="M21.4,39.3c0.3-0.3,0.9-0.3,1.2,0c0.3,0.3,0.3,0.9,0,1.2c-2.3,2.3-5,4.2-8.1,5.5l-0.1,0.1
		C11.5,47.3,8.3,48,5,48c-0.5,0-0.8-0.4-0.8-0.9s0.4-0.9,0.8-0.9c3.1,0,6.1-0.6,8.8-1.8l0,0C16.7,43.2,19.2,41.5,21.4,39.3"/>
	<path class="st6" d="M5,46.2c0.5,0,0.8,0.4,0.8,0.9S5.4,48,5,48H2.8c-0.8,0-1.6-0.3-2.1-0.9l0,0c-0.5-0.6-0.9-1.3-0.9-2.2v-1.8
		c0-0.8,0.3-1.6,0.9-2.2l0,0C1.2,40.3,2,40,2.8,40H5c0.5,0,0.8,0.4,0.8,0.9S5.4,41.8,5,41.8H2.8c-0.4,0-0.7,0.2-0.9,0.4l0,0
		c-0.2,0.2-0.4,0.6-0.4,1v1.7c0,0.4,0.1,0.7,0.4,1c0.2,0.2,0.6,0.4,0.9,0.4H5V46.2z"/>
	<path class="st6" d="M0.7,39.5c-0.5,0-0.8-0.4-0.8-0.9s0.4-0.9,0.8-0.9c0.8,0,1.6,0.4,2.1,0.9l0,0c0.5,0.6,0.9,1.3,0.9,2.2
		c0,0.5-0.4,0.9-0.8,0.9c-0.5,0-0.8-0.4-0.8-0.9c0-0.4-0.2-0.7-0.4-1l0,0C1.4,39.7,1,39.5,0.7,39.5"/>
	<path class="st6" d="M-2.6,34c-0.5,0-0.8-0.4-0.8-0.9s0.4-0.9,0.8-0.9c0.5,0,1.1,0.1,1.6,0.3l0,0c0.5,0.2,1,0.5,1.3,0.9l0.1,0.1
		c0.4,0.4,0.6,0.8,0.8,1.3c0.2,0.5,0.3,1,0.3,1.6v2.2c0,0.5-0.4,0.9-0.8,0.9c-0.5,0-0.9-0.4-0.9-0.9v-2.2c0-0.3-0.1-0.7-0.2-0.9
		c-0.1-0.3-0.3-0.5-0.5-0.8l0,0c-0.2-0.2-0.5-0.4-0.8-0.5C-2,34-2.3,34-2.6,34"/>
	<path class="st6" d="M-1.9,33.6c-0.3,0.4-0.8,0.5-1.2,0.2c-0.4-0.3-0.5-0.8-0.2-1.2l2.7-3.9l1.4-2c0.3-0.4,0.8-0.5,1.2-0.2
		c0.4,0.3,0.5,0.8,0.2,1.2l-1.4,2L-1.9,33.6z"/>
	<path class="st6" d="M2,16.6c-0.1,0.5-0.6,0.8-1,0.7c-0.5-0.1-0.7-0.6-0.6-1c0.4-1.9,1.1-3.8,2-5.5c0.9-1.7,2.1-3.3,3.5-4.7
		c1.9-2,4.2-3.5,6.6-4.5c2.4-1,5.1-1.6,7.8-1.6s5.3,0.5,7.8,1.6c2.4,1,4.7,2.6,6.6,4.5l0,0C35.1,6.6,35.6,7,36,7.6
		c0.4,0.5,0.8,1.1,1.2,1.6c1.5,2.3,2.6,4.9,3.1,7.6s0.5,5.5,0,8.3c-0.4,2-1.1,3.9-2,5.7c-0.9,1.8-2.1,3.4-3.5,4.9
		c-0.3,0.3-0.9,0.3-1.2,0c-0.3-0.3-0.3-0.9,0-1.2c1.3-1.3,2.4-2.8,3.2-4.5c0.9-1.6,1.5-3.4,1.9-5.2c0.5-2.5,0.5-5.1,0-7.6
		s-1.4-4.9-2.8-7c-0.3-0.5-0.7-1-1.1-1.5S34,7.8,33.6,7.3c-1.8-1.8-3.8-3.2-6.1-4.2c-2.2-0.9-4.7-1.4-7.2-1.4s-4.9,0.5-7.2,1.4
		C10.9,4,8.8,5.5,7,7.3l0,0c-1.3,1.3-2.3,2.8-3.2,4.3C3,13.1,2.4,14.8,2,16.6"/>
	<path class="st6" d="M6.2,24.4c-0.4,0.2-0.9,0-1.1-0.5c-0.2-0.4,0-0.9,0.5-1.1C6,22.6,6.5,22.5,7,22.4c0.5-0.1,1-0.1,1.5-0.1
		s1,0.1,1.5,0.1c0.5,0.1,1,0.3,1.4,0.4c0.4,0.2,0.6,0.7,0.4,1.1c-0.2,0.4-0.7,0.6-1.1,0.5c-0.4-0.2-0.7-0.3-1.1-0.3
		C9.2,24,8.9,24,8.5,24c-0.4,0-0.8,0-1.1,0.1C6.9,24.1,6.6,24.2,6.2,24.4"/>
	<path class="st6" d="M33.5,34.3c0.3-0.3,0.9-0.3,1.2,0c0.3,0.3,0.3,0.9,0,1.2c-0.2,0.2-0.4,0.5-0.6,0.7c-0.2,0.2-0.4,0.5-0.6,0.7
		l0,0c-0.2,0.2-0.4,0.4-0.5,0.7c-0.2,0.2-0.4,0.5-0.5,0.7c-0.2,0.3-0.3,0.5-0.5,0.8l0,0c-0.1,0.2-0.3,0.5-0.4,0.8l0,0
		c-0.1,0.2-0.3,0.5-0.4,0.8l0,0c-0.1,0.3-0.2,0.5-0.4,0.8l0,0c-0.1,0.3-0.2,0.6-0.3,0.9l0,0c-0.1,0.3-0.2,0.6-0.3,0.9l0,0
		c-0.1,0.3-0.2,0.6-0.2,0.9v0.1c-0.1,0.3-0.1,0.6-0.2,0.9c-0.1,0.3-0.1,0.6-0.2,0.9c0,0.3-0.1,0.7-0.1,1l0,0c0,0.3-0.1,0.6-0.1,0.9
		l0,0c0,0.3,0,0.6,0,1s0,0.7,0,1c0,0.3,0,0.6,0.1,1c0,0.3,0.1,0.6,0.1,1c0.1,0.3,0.1,0.7,0.2,0.9l0.1,0.6l0,0L30,54
		c0.1,0.5-0.2,0.9-0.6,1c-0.4,0.1-0.9-0.2-1-0.6l-0.1-0.5v-0.1l-0.1-0.6l0,0l0,0c-0.1-0.4-0.1-0.7-0.2-1c0-0.3-0.1-0.7-0.1-1
		c0-0.4-0.1-0.7-0.1-1.1s0-0.7,0-1.1c0-0.3,0-0.7,0-1.1s0-0.7,0.1-1.1c0-0.4,0.1-0.7,0.1-1c0.1-0.3,0.1-0.7,0.2-1
		c0.1-0.3,0.1-0.6,0.2-0.9v-0.1c0.1-0.3,0.2-0.6,0.3-1l0,0c0.1-0.3,0.2-0.6,0.3-0.9v-0.1c0.1-0.3,0.2-0.6,0.4-0.9l0,0
		c0.1-0.3,0.2-0.6,0.4-0.9l0,0c0.1-0.3,0.3-0.6,0.4-0.9l0,0c0.1-0.3,0.3-0.5,0.5-0.8v-0.1c0.2-0.3,0.4-0.6,0.5-0.9
		c0.2-0.3,0.4-0.5,0.6-0.8c0.2-0.2,0.4-0.5,0.6-0.8l0,0c0.2-0.3,0.4-0.5,0.6-0.8C33,34.7,33.3,34.5,33.5,34.3"/>
	<path class="st6" d="M12.3,49.1c0-0.5,0.4-0.9,0.8-0.9c0.5,0,0.8,0.4,0.8,0.9c0,0.3-0.1,1-0.3,1.9c-0.1,0.8-0.3,1.8-0.4,2.4h11.4
		c0.5,0,0.8,0.4,0.8,0.9s-0.4,0.9-0.8,0.9H12.5c-0.6,0-0.9-0.4-0.9-1.2l0,0c0-0.7,0.3-2.1,0.5-3.3C12.2,49.9,12.3,49.3,12.3,49.1"/>
	<path class="st6" d="M0.6,16.9c-0.3-0.4-0.2-0.9,0.2-1.2c0.4-0.3,0.9-0.2,1.2,0.2c0.6,0.9,1.1,1.9,1.5,2.9C3.8,19.8,4,20.9,4,22
		c0,1-0.1,2-0.4,3c-0.3,1-0.7,1.9-1.3,2.7c-0.3,0.4-0.8,0.5-1.2,0.2c-0.4-0.3-0.5-0.8-0.2-1.2C1.4,26,1.7,25.2,2,24.4
		c0.2-0.8,0.4-1.6,0.4-2.5S2.3,20.1,2,19.2C1.5,18.5,1.1,17.7,0.6,16.9"/>
</g>
</svg>
