<?xml version="1.0" encoding="utf-8"?>
<!-- Generator: Adobe Illustrator 26.2.1, SVG Export Plug-In . SVG Version: 6.00 Build 0)  -->
<svg version="1.1" id="Layer_1" xmlns="http://www.w3.org/2000/svg" xmlns:xlink="http://www.w3.org/1999/xlink" x="0px" y="0px"
	 viewBox="0 0 65.3 59" style="enable-background:new 0 0 65.3 59;" xml:space="preserve">
<style type="text/css">
	.st0{display:none;}
	.st1{display:inline;}
	.st2{fill:#010202;}
	.st3{fill:#FFFFFF;}
	.st4{fill:none;stroke:#FFFFFF;stroke-width:0.75;stroke-miterlimit:100;}
	.st5{fill:none;}
	.st6{display:inline;fill:#0DBBFF;}
	.st7{display:inline;fill:#0088CC;}
	.st8{fill:#0088CC;}
</style>
<g id="Layer_1_1_" class="st0">
	<g id="Layer_4" class="st1">
		<rect x="-16.7" y="-11.7" class="st2" width="98" height="83"/>
	</g>
	<g id="Layer_2_1_" class="st1">
		<path class="st3" d="M64.5,1.4c0,1.2-0.4,2.2-1.3,3c-0.8,0.8-1.9,1.3-3.1,1.3s-2.2-0.4-3-1.3c-0.8-0.8-1.3-1.9-1.3-3
			c0-1.2,0.4-2.2,1.3-3c0.8-0.8,1.9-1.3,3-1.3c1.2,0,2.2,0.4,3.1,1.3C64.1-0.8,64.5,0.2,64.5,1.4z"/>
		<path class="st3" d="M29.4,20.7l-13-13c-1.7-1.7-4.5-1.7-6.2,0s-1.7,4.5,0,6.2l13,13c1.7,1.7,4.5,1.7,6.2,0S31.1,22.4,29.4,20.7z"
			/>
		<path class="st3" d="M16.4,51.3l13-13c1.7-1.7,1.7-4.5,0-6.2c-1.7-1.7-4.5-1.7-6.2,0l-13,13c-1.7,1.7-1.7,4.5,0,6.2
			C12,53,14.7,53,16.4,51.3z"/>
		<path class="st3" d="M34.8,38.3l13,13c1.7,1.7,4.5,1.7,6.2,0c1.7-1.7,1.7-4.5,0-6.2l-13-13c-1.7-1.7-4.5-1.7-6.2,0
			C33.1,33.9,33.1,36.6,34.8,38.3z"/>
		<path class="st3" d="M47.7,7.8l-13,13c-1.7,1.7-1.7,4.5,0,6.2s4.5,1.7,6.2,0l13-13c1.7-1.7,1.7-4.5,0-6.2
			C52.2,6.1,49.4,6.1,47.7,7.8z"/>
	</g>
	<g id="Layer_3" class="st1">
		<g id="Ellipse_1">
			<g>
				<path class="st3" d="M22.1-1.6c2.5,0,4.5,2,4.5,4.5s-2,4.5-4.5,4.5s-4.5-2-4.5-4.5C17.5,0.4,19.6-1.6,22.1-1.6 M22.1-2.6
					c-3,0-5.5,2.5-5.5,5.5s2.5,5.5,5.5,5.5s5.5-2.5,5.5-5.5C27.6-0.2,25.1-2.6,22.1-2.6L22.1-2.6z"/>
			</g>
		</g>
		<g id="Ellipse_1_copy">
			<g>
				<path class="st3" d="M44.7,42.2c2.5,0,4.5,2,4.5,4.5s-2,4.5-4.5,4.5s-4.5-2-4.5-4.5S42.2,42.2,44.7,42.2 M44.7,41.2
					c-3,0-5.5,2.5-5.5,5.5s2.5,5.5,5.5,5.5s5.5-2.5,5.5-5.5S47.8,41.2,44.7,41.2L44.7,41.2z"/>
			</g>
		</g>
		<path class="st3" d="M-2.3,33.9c-6.5,0.2-7.9,4-7.9,4v19.5c2.6,2.9,5.6,3.6,7.9,3.5c2.3,0,5.3-0.6,7.9-3.5V37.8
			C5.7,37.8,4.2,34.1-2.3,33.9z"/>
		<line class="st4" x1="-2.9" y1="29.7" x2="-2.9" y2="26.2"/>
		<line class="st4" x1="-2.9" y1="22.4" x2="-2.9" y2="18.8"/>
		<line class="st4" x1="-3.1" y1="14.9" x2="-2.9" y2="11.6"/>
		<line class="st4" x1="-1.3" y1="7.7" x2="1.4" y2="5"/>
		<line class="st4" x1="4.5" y1="2.8" x2="8.1" y2="1.4"/>
		<line class="st4" x1="11" y1="0.8" x2="14.6" y2="0.6"/>
		<line class="st4" x1="21.1" y1="10.8" x2="21.1" y2="12.8"/>
		<line class="st4" x1="21.8" y1="16.2" x2="24.4" y2="19.3"/>
		<line class="st4" x1="27.8" y1="21.6" x2="31.8" y2="22.6"/>
		<line class="st4" x1="36.2" y1="22.9" x2="39.8" y2="25.6"/>
		<line class="st4" x1="42.3" y1="27.9" x2="44.6" y2="32.2"/>
		<line class="st4" x1="45" y1="36.5" x2="45.2" y2="38.5"/>
		<line class="st4" x1="52" y1="46.8" x2="56" y2="46.7"/>
		<line class="st4" x1="60.1" y1="46.3" x2="64" y2="46.3"/>
		<polyline class="st3" points="66.7,41.2 66.7,43.7 66.7,46.3 66.7,48.8 66.7,51.4 68.6,50.2 70.4,49 72.2,47.8 74.1,46.6 		"/>
	</g>
	<g id="Layer_5" class="st1">
		<g>
			<path class="st5" d="M47.4,13.1L47.4,13.1c-0.2-0.4-0.3-0.8-0.3-1.2C47,12.3,47.1,12.7,47.4,13.1L47.4,13.1z"/>
			<path class="st5" d="M39.8,54.2c-0.7,0-1,0.3-1,1s0.3,1,1,1s1-0.3,1-1C40.7,54.6,40.4,54.2,39.8,54.2z"/>
			<polygon class="st5" points="2.6,20.1 3.6,25.7 4.3,25.7 3.6,20.1 			"/>
			<polygon class="st5" points="10.6,25.7 11.2,25.7 12.2,20.1 10.9,20.1 			"/>
			<path class="st5" d="M57,54.2c-0.7,0-1,0.3-1,1s0.3,1,1,1s1-0.3,1-1C58,54.6,57.7,54.2,57,54.2z"/>
			<path class="st3" d="M0.9,6.1c-1.7,0-3.3,2.3-3.3,5v5l5.3,0.3v-1.7v-3.6C3.3,8.5,2.6,6.1,0.9,6.1z"/>
			<path class="st3" d="M41.7,34.3c-0.3,0.7-1,1.7-1.3,2.7h7h1.7h7.2c-0.7-1.3-1.3-2.7-2.3-3.3H42.4C42.1,34,42.1,34.3,41.7,34.3z"
				/>
			<path class="st3" d="M45.6,14.4c0.3,3.2,0.6,9.1-0.6,13.9c-0.3,0.3-0.3,0.7-0.3,1c0,0-0.7,2.7-2,4h10.9c0,0-2.5-8.9-0.8-19.2
				c0.6-1.1,0.7-2.4,0.2-3.6c-0.2-0.7-0.6-1.3-1.1-1.7c-1.1-1.1-2.7-1.3-4-0.8c-2.5-0.7-6.8-2.1-11-4.7c-0.2-0.7-0.7-1.3-1.3-1.8
				c-1.7-1-3.3-1-4.6,0c-3,0.7-8.3,1.7-13.9,1C15.9,2,14.6,2.2,13.6,3l-2.8-0.1c-0.3,0-0.6-0.4-0.8-0.6C9.9,1.4,9.6,1.2,9.1,1.2h-5
				c-0.7,0-1,0.3-1,1L2.8,14.8l7.3,0.3V9.5c0.2-0.3,0.5-0.7,0.7-0.7l1.8,0.3c0.2,0.3,0.5,0.5,0.8,0.7c1,0.7,2,0.7,3,0.3
				c0,0,7.6-1.9,13.9-1.5c0.4,0.4,1,0.7,1.7,0.9C32.1,9.5,40,11.2,45.6,14.4z M48.4,9.8c1-0.7,2.7-0.3,3.3,1c0.7,1,0.3,2.7-1,3.3
				c-1,0.7-2.6,0.3-3.3-1l0,0c-0.3-0.4-0.4-0.8-0.3-1.2C47.1,11.1,47.5,10.2,48.4,9.8z M16.2,8.5c-1.3,0.3-2.3-0.7-2.7-2
				c-0.3-1.3,0.7-2.7,2-2.7c1.3-0.3,2.7,0.7,2.7,2C18.5,7.1,17.5,8.1,16.2,8.5z M31.1,5.5c0-1.3,1-2.3,2.3-2.3s2.7,1,2.7,2.3
				c0,1.3-1.3,2.3-2.7,2.3C32.1,7.8,31.1,6.8,31.1,5.5z"/>
			<path class="st3" d="M64.6,50.3H50V41h8.6h0.3c0.3-0.3,0.3-0.3,0.3-0.7v-1v-1.7c0-0.3,0-0.7-0.3-0.7H37.8c-0.3,0-0.7,0.3-0.7,0.7
				v2.7c0,0.3,0.3,0.7,0.7,0.7h9v9.3h-15c-0.3,0-0.7,0.3-0.7,0.7v1c0,0.3,0.3,0.7,0.7,0.7h32.8c0.7,0,0.7-0.3,0.7-0.7v-1
				C65.3,50.6,65.3,50.3,64.6,50.3z"/>
			<path class="st3" d="M39.8,52.9c-1.3,0-2.3,1-2.3,2.3s1,2.3,2.3,2.3s2.3-1,2.3-2.3S41.1,52.9,39.8,52.9z M39.8,56.2
				c-0.7,0-1-0.3-1-1s0.3-1,1-1s1,0.3,1,1C40.7,55.9,40.4,56.2,39.8,56.2z"/>
			<path class="st3" d="M57,52.9c-1.3,0-2.3,1-2.3,2.3s1,2.3,2.3,2.3s2.3-1,2.3-2.3S58.3,52.9,57,52.9z M57,56.2c-0.7,0-1-0.3-1-1
				s0.3-1,1-1s1,0.3,1,1C58,55.9,57.7,56.2,57,56.2z"/>
			<path class="st3" d="M13.2,19.7L13.2,19.7l-3-3.6l0,0l0,0H5.3l-0.8-0.3l-3,3.6l0,0l1.3,7h0.7h0.8h1l-0.3-1l-0.7-6l0,0l1-1
				l4.4,0.3l0.9,1l-1,6.6h2.3L13.2,19.7L13.2,19.7L13.2,19.7L13.2,19.7z M3.6,25.7l-1-5.6h1l0.7,5.6H3.6z M11.2,25.7h-0.7l0.3-5.6
				h1.3L11.2,25.7z"/>
		</g>
	</g>
	<g id="Layer_6" class="st1">
		<path class="st3" d="M33.4,24L33.4,24L33.4,24z M43.5,26.2h-1C42.7,26.5,43.2,26.5,43.5,26.2 M43,22.7L43,22.7L43,22.7z
			 M35.2,12.7c-0.2,0.1-0.5,0.2-0.7,0.4c-0.3,0.2-0.8,0.2-1.1-0.1l-0.8-0.9l-1.3,1.3l0.8,0.8c0.3,0.3,0.3,0.7,0.1,1
			c-0.1,0.2-0.3,0.5-0.4,0.7V16c-0.1,0.2-0.2,0.5-0.3,0.8c-0.1,0.4-0.4,0.7-0.8,0.7h-1.1v1.8h1.1c0.4,0,0.7,0.3,0.8,0.7
			c0.1,0.3,0.2,0.6,0.3,0.8s0.2,0.5,0.4,0.7c0.2,0.3,0.2,0.8-0.1,1.1l-0.8,0.9l1.3,1.3l0.8-0.8c0.3-0.3,0.7-0.4,1.1-0.2
			c0.2,0.1,0.5,0.3,0.7,0.4l0,0c0.2,0.1,0.5,0.2,0.7,0.3c0.4,0.1,0.7,0.4,0.7,0.9v1.1h1.8v-1.1c0-0.4,0.3-0.7,0.6-0.8
			s0.5-0.2,0.8-0.3c0.2-0.1,0.5-0.2,0.7-0.4c0.3-0.2,0.8-0.2,1.1,0.1l0.8,0.8l1.3-1.3l-0.8-0.8c-0.3-0.3-0.4-0.7-0.2-1.1
			c0.1-0.3,0.3-0.5,0.4-0.8c0.1-0.3,0.2-0.5,0.3-0.8c0.1-0.4,0.4-0.7,0.8-0.7h1.1v-1.8h-1c-0.4,0-0.7-0.3-0.8-0.6
			c-0.1-0.3-0.2-0.6-0.3-0.8c-0.1-0.2-0.2-0.5-0.3-0.7c-0.2-0.3-0.2-0.8,0.1-1.1l0.8-0.8l-1.4-1.4l-0.8,0.8c-0.3,0.3-0.7,0.3-1,0.1
			c-0.2-0.1-0.5-0.3-0.7-0.4h-0.1c-0.2-0.1-0.5-0.2-0.7-0.3c-0.4-0.1-0.7-0.4-0.7-0.9v-1.2h-1.8v1.2l0,0c0,0.4-0.2,0.7-0.6,0.8
			C35.7,12.4,35.5,12.5,35.2,12.7L35.2,12.7z M34.1,11.2c0.1-0.1,0.3-0.1,0.4-0.2l0,0c0.1,0,0.2-0.1,0.4-0.1v-0.7
			c0-0.4,0.2-0.8,0.5-1.1c0.3-0.3,0.7-0.5,1.1-0.5h2.1c0.4,0,0.8,0.2,1.1,0.5l0,0c0.3,0.3,0.5,0.7,0.5,1.1v0.7
			c0.1,0.1,0.3,0.1,0.4,0.2l0,0c0.1,0.1,0.2,0.1,0.4,0.2l0.5-0.5c0.3-0.3,0.7-0.5,1.1-0.5c0.4,0,0.8,0.2,1.1,0.5l0,0l1.4,1.5l0,0
			c0.3,0.3,0.4,0.7,0.4,1.1s-0.1,0.8-0.4,1.1L44.6,15c0.1,0.1,0.1,0.3,0.2,0.4c0.1,0.1,0.1,0.3,0.2,0.4h0.7c0.4,0,0.8,0.2,1.1,0.5
			s0.5,0.7,0.5,1.1v2.1c0,0.4-0.2,0.8-0.5,1.1l0,0c-0.5,0.3-0.8,0.5-1.3,0.5h-0.7c0,0.1-0.1,0.3-0.2,0.4c-0.1,0.1-0.1,0.3-0.2,0.4
			l0.4,0.5l0,0c0.3,0.3,0.4,0.7,0.4,1.1c0,0.4-0.1,0.8-0.4,1.1l-1.3,1.5l-0.1,0.1c-0.3,0.3-0.7,0.4-1,0.4c-0.4,0-0.8-0.2-1.1-0.5
			l0,0l-0.4-0.5c-0.1,0.1-0.3,0.1-0.4,0.2c-0.1,0.1-0.3,0.1-0.4,0.2v0.7c0,0.4-0.2,0.8-0.5,1.1s-0.7,0.5-1.1,0.5h-2.1
			c-0.4,0-0.8-0.2-1.1-0.5s-0.4-0.7-0.4-1.1V26c-0.1,0-0.3-0.1-0.4-0.2l0,0c-0.1-0.1-0.2-0.1-0.4-0.2l-0.4,0.5l0,0
			c-0.3,0.3-0.7,0.5-1.1,0.5c-0.4,0-0.8-0.2-1.1-0.5l0,0L30,24.6c-0.3-0.3-0.4-0.7-0.4-1.1c0-0.4,0.1-0.8,0.4-1.1l0.5-0.5
			c-0.1-0.1-0.1-0.3-0.2-0.4l0,0c0-0.1-0.1-0.3-0.2-0.4h-0.6c-0.4,0-0.8-0.2-1.1-0.5S28,19.9,28,19.5v-2.1c0-0.4,0.2-0.8,0.5-1.1
			l0,0c0.3-0.3,0.7-0.5,1.1-0.5h0.6c0-0.1,0.1-0.3,0.2-0.4v-0.1c0.1-0.1,0.1-0.2,0.2-0.4l-0.5-0.5c-0.3-0.3-0.4-0.7-0.4-1.1
			s0.1-0.8,0.4-1.1l1.5-1.5c0.3-0.3,0.7-0.5,1.1-0.5c0.4,0,0.8,0.2,1.1,0.5L34.1,11.2z"/>
		<path class="st3" d="M39.4,16.5c-0.5-0.5-1.1-0.8-1.9-0.8c-0.7,0-1.4,0.3-1.8,0.8l0,0c-0.5,0.5-0.8,1.2-0.8,1.9s0.3,1.4,0.8,1.9
			c0.5,0.5,1.1,0.8,1.9,0.8c0.7,0,1.4-0.3,1.9-0.8l0,0c0.5-0.5,0.8-1.2,0.8-1.9C40.2,17.7,39.9,17,39.4,16.5 M37.5,14
			c1.2,0,2.3,0.5,3.1,1.3s1.3,1.9,1.3,3.1s-0.5,2.3-1.3,3.1s-1.9,1.3-3.1,1.3c-1.2,0-2.3-0.5-3.1-1.3s-1.3-1.9-1.3-3.1
			s0.5-2.3,1.3-3.1h0.1C35.3,14.5,36.4,14,37.5,14"/>
		<path class="st3" d="M34.3,40.3c0.3-0.3,0.9-0.3,1.2,0c0.3,0.3,0.3,0.9,0,1.2c-2.3,2.3-5,4.2-8.1,5.5l-0.1,0.1
			c-2.9,1.2-6.1,1.9-9.4,1.9c-0.5,0-0.8-0.4-0.8-0.9s0.4-0.9,0.8-0.9c3.1,0,6.1-0.6,8.8-1.8l0,0C29.6,44.2,32.1,42.5,34.3,40.3"/>
		<path class="st3" d="M17.9,47.2c0.5,0,0.8,0.4,0.8,0.9S18.3,49,17.9,49h-2.2c-0.8,0-1.6-0.3-2.1-0.9l0,0c-0.5-0.6-0.9-1.3-0.9-2.2
			v-1.8c0-0.8,0.3-1.6,0.9-2.2l0,0c0.5-0.6,1.3-0.9,2.1-0.9h2.2c0.5,0,0.8,0.4,0.8,0.9s-0.4,0.9-0.8,0.9h-2.2
			c-0.4,0-0.7,0.2-0.9,0.4l0,0c-0.2,0.2-0.4,0.6-0.4,1v1.7c0,0.4,0.1,0.7,0.4,1c0.2,0.2,0.6,0.4,0.9,0.4h2.2V47.2z"/>
		<path class="st3" d="M13.6,40.5c-0.5,0-0.8-0.4-0.8-0.9s0.4-0.9,0.8-0.9c0.8,0,1.6,0.4,2.1,0.9l0,0c0.5,0.6,0.9,1.3,0.9,2.2
			c0,0.5-0.4,0.9-0.8,0.9c-0.5,0-0.8-0.4-0.8-0.9c0-0.4-0.2-0.7-0.4-1l0,0C14.3,40.7,13.9,40.5,13.6,40.5"/>
		<path class="st3" d="M10.3,35c-0.5,0-0.8-0.4-0.8-0.9s0.4-0.9,0.8-0.9c0.5,0,1.1,0.1,1.6,0.3l0,0c0.5,0.2,1,0.5,1.3,0.9l0.1,0.1
			c0.4,0.4,0.6,0.8,0.8,1.3c0.2,0.5,0.3,1,0.3,1.6v2.2c0,0.5-0.4,0.9-0.8,0.9c-0.5,0-0.9-0.4-0.9-0.9v-2.2c0-0.3-0.1-0.7-0.2-0.9
			c-0.1-0.3-0.3-0.5-0.5-0.8l0,0c-0.2-0.2-0.5-0.4-0.8-0.5C10.9,35,10.6,35,10.3,35"/>
		<path class="st3" d="M11,34.6c-0.3,0.4-0.8,0.5-1.2,0.2c-0.4-0.3-0.5-0.8-0.2-1.2l2.7-3.9l1.4-2c0.3-0.4,0.8-0.5,1.2-0.2
			c0.4,0.3,0.5,0.8,0.2,1.2l-1.4,2L11,34.6z"/>
		<path class="st3" d="M14.9,17.6c-0.1,0.5-0.6,0.8-1,0.7c-0.5-0.1-0.7-0.6-0.6-1c0.4-1.9,1.1-3.8,2-5.5c0.9-1.7,2.1-3.3,3.5-4.7
			c1.9-2,4.2-3.5,6.6-4.5c2.4-1,5.1-1.6,7.8-1.6s5.3,0.5,7.8,1.6c2.4,1,4.7,2.6,6.6,4.5l0,0C48,7.6,48.5,8,48.9,8.6
			c0.4,0.5,0.8,1.1,1.2,1.6c1.5,2.3,2.6,4.9,3.1,7.6s0.5,5.5,0,8.3c-0.4,2-1.1,3.9-2,5.7c-0.9,1.8-2.1,3.4-3.5,4.9
			c-0.3,0.3-0.9,0.3-1.2,0c-0.3-0.3-0.3-0.9,0-1.2c1.3-1.3,2.4-2.8,3.2-4.5c0.9-1.6,1.5-3.4,1.9-5.2c0.5-2.5,0.5-5.1,0-7.6
			s-1.4-4.9-2.8-7c-0.3-0.5-0.7-1-1.1-1.5s-0.8-0.9-1.2-1.4c-1.8-1.8-3.8-3.2-6.1-4.2c-2.2-0.9-4.7-1.4-7.2-1.4S28.3,3.2,26,4.1
			c-2.2,0.9-4.3,2.4-6.1,4.2l0,0c-1.3,1.3-2.3,2.8-3.2,4.3C15.9,14.1,15.3,15.8,14.9,17.6"/>
		<path class="st3" d="M19.1,25.4c-0.4,0.2-0.9,0-1.1-0.5c-0.2-0.4,0-0.9,0.5-1.1c0.4-0.2,0.9-0.3,1.4-0.4c0.5-0.1,1-0.1,1.5-0.1
			s1,0.1,1.5,0.1c0.5,0.1,1,0.3,1.4,0.4c0.4,0.2,0.6,0.7,0.4,1.1c-0.2,0.4-0.7,0.6-1.1,0.5c-0.4-0.2-0.7-0.3-1.1-0.3
			C22.1,25,21.8,25,21.4,25c-0.4,0-0.8,0-1.1,0.1C19.8,25.1,19.5,25.2,19.1,25.4"/>
		<path class="st3" d="M46.4,35.3c0.3-0.3,0.9-0.3,1.2,0c0.3,0.3,0.3,0.9,0,1.2c-0.2,0.2-0.4,0.5-0.6,0.7c-0.2,0.2-0.4,0.5-0.6,0.7
			l0,0c-0.2,0.2-0.4,0.4-0.5,0.7c-0.2,0.2-0.4,0.5-0.5,0.7c-0.2,0.3-0.3,0.5-0.5,0.8l0,0c-0.1,0.2-0.3,0.5-0.4,0.8l0,0
			c-0.1,0.2-0.3,0.5-0.4,0.8l0,0c-0.1,0.3-0.2,0.5-0.4,0.8l0,0c-0.1,0.3-0.2,0.6-0.3,0.9l0,0c-0.1,0.3-0.2,0.6-0.3,0.9l0,0
			c-0.1,0.3-0.2,0.6-0.2,0.9v0.1c-0.1,0.3-0.1,0.6-0.2,0.9c-0.1,0.3-0.1,0.6-0.2,0.9c0,0.3-0.1,0.7-0.1,1l0,0c0,0.3-0.1,0.6-0.1,0.9
			l0,0c0,0.3,0,0.6,0,1s0,0.7,0,1c0,0.3,0,0.6,0.1,1c0,0.3,0.1,0.6,0.1,1c0.1,0.3,0.1,0.7,0.2,0.9l0.1,0.6l0,0l0.1,0.5
			c0.1,0.5-0.2,0.9-0.6,1c-0.4,0.1-0.9-0.2-1-0.6l-0.1-0.5v-0.1l-0.1-0.6l0,0l0,0c-0.1-0.4-0.1-0.7-0.2-1c0-0.3-0.1-0.7-0.1-1
			c0-0.4-0.1-0.7-0.1-1.1s0-0.7,0-1.1c0-0.3,0-0.7,0-1.1s0-0.7,0.1-1.1c0-0.4,0.1-0.7,0.1-1c0.1-0.3,0.1-0.7,0.2-1
			c0.1-0.3,0.1-0.6,0.2-0.9v-0.1c0.1-0.3,0.2-0.6,0.3-1l0,0c0.1-0.3,0.2-0.6,0.3-0.9v-0.1c0.1-0.3,0.2-0.6,0.4-0.9l0,0
			c0.1-0.3,0.2-0.6,0.4-0.9l0,0c0.1-0.3,0.3-0.6,0.4-0.9l0,0c0.1-0.3,0.3-0.5,0.5-0.8v-0.1c0.2-0.3,0.4-0.6,0.5-0.9
			c0.2-0.3,0.4-0.5,0.6-0.8c0.2-0.2,0.4-0.5,0.6-0.8l0,0c0.2-0.3,0.4-0.5,0.6-0.8C45.9,35.7,46.2,35.5,46.4,35.3"/>
		<path class="st3" d="M25.2,50.1c0-0.5,0.4-0.9,0.8-0.9c0.5,0,0.8,0.4,0.8,0.9c0,0.3-0.1,1-0.3,1.9c-0.1,0.8-0.3,1.8-0.4,2.4h11.4
			c0.5,0,0.8,0.4,0.8,0.9s-0.4,0.9-0.8,0.9H25.4c-0.6,0-0.9-0.4-0.9-1.2l0,0c0-0.7,0.3-2.1,0.5-3.3C25.1,50.9,25.2,50.3,25.2,50.1"
			/>
		<path class="st3" d="M13.5,17.9c-0.3-0.4-0.2-0.9,0.2-1.2c0.4-0.3,0.9-0.2,1.2,0.2c0.6,0.9,1.1,1.9,1.5,2.9c0.3,1,0.5,2.1,0.5,3.2
			c0,1-0.1,2-0.4,3c-0.3,1-0.7,1.9-1.3,2.7c-0.3,0.4-0.8,0.5-1.2,0.2c-0.4-0.3-0.5-0.8-0.2-1.2c0.5-0.7,0.8-1.5,1.1-2.3
			c0.2-0.8,0.4-1.6,0.4-2.5s-0.1-1.8-0.4-2.7C14.4,19.5,14,18.7,13.5,17.9"/>
	</g>
	<rect x="-16.7" y="-12.1" class="st6" width="98.2" height="83"/>
</g>
<g id="Layer_2_2_" class="st0">
	<path class="st7" d="M39.4,31.5c0,2.1,0,4.1,0,6.1c0,1.3-0.3,1.6-1.6,1.6c-1.1,0-2.2,0-3.5,0c0,1.5,0,2.8,0,4.2c0,0.7,0,1.3,0,2
		c0,1.1-0.3,1.4-1.4,1.4c-1.1,0-2.2,0-3.5,0c0,0.5,0,0.8,0,1.2c0,3,0,6,0,9c0,0.6-0.3,1.2-0.7,1.7c-0.6,0.8-1.4,1.5-2.1,2.3
		c-0.7,0.8-1.3,0.8-2,0l-0.1-0.1c-2.3-1.8-3.2-4-2.8-6.8c0.2-2,0-4.1,0-6.1c0-0.3,0-0.7,0-1.1c-1.2,0-2.3,0-3.4,0
		c-1.3,0-1.5-0.3-1.6-1.6c0-2,0-4,0-6c-1.2,0-2.3,0-3.5,0c-1.3,0-1.6-0.3-1.6-1.6c0-3.3,0-6.5,0-9.8c0-0.4,0-0.7,0-1.2
		c-0.7,0-1.3,0-1.9,0c-0.9,0-1.3-0.4-1.3-1.3c0-9.2,0-18.3,0-27.5c0-0.7,0.3-1.2,1.1-1.2c0.7,0,1.1,0.5,1.1,1.2c0,0.3,0,0.5,0,0.8
		c0,8.2,0,16.4,0,24.5c0,0.4,0,0.8,0,1.2c4.1,0,8.1,0,12.3,0c-0.3-0.4-0.5-0.7-0.7-1.1c-0.5-0.6-0.5-1.2,0-1.8s1-1.2,1.4-1.9
		c0.2-0.3,0.2-0.8,0.1-1.1c-0.2-1.3-1-1.8-2.3-1.9c-2.5-0.2-2.6,0.2-2.8-3.1c-0.1-1.6,0.1-3.2,0.2-4.7c0-0.8,0.4-1.3,1.3-1.4
		c0.6,0,1.3-0.2,1.9-0.3c1.6-0.2,2.3-2,1.4-3.2c-0.3-0.5-0.7-0.9-1-1.4c-0.7-1-0.7-1.2,0-2.3c0.3-0.4,0.6-0.9,1.1-1.4
		c-1.7,0-3.3,0-4.8,0c-0.4,0-0.9-0.1-1.1-0.3c-0.1-0.4-0.3-1-0.1-1.3s0.7-0.6,1.1-0.6c2.1-0.1,4.2-0.1,6.3,0c0.7,0,1.3-0.1,1.8-0.6
		c0.7-0.7,1.5-0.7,2.2,0c0.3,0.3,0.7,0.4,0.9,0.7c0.8,0.8,1.6,1,2.7,0.4c0.6-0.3,0.9-0.6,0.9-1.3c0.1-0.7,0.2-1.5,0.3-2.2
		s0.4-1.1,1.2-1.2c2.2-0.4,4.4-0.4,6.7,0c0.8,0.1,1.2,0.6,1.2,1.3c0,0.5,0.2,0.9,0.2,1.4c0,1.2,0.5,1.9,1.7,2.2
		c0.6,0.2,1,0.2,1.5-0.2c0.5-0.5,1.2-0.9,1.7-1.3c0.6-0.4,1.1-0.5,1.7,0c1.9,1.3,3.5,2.9,4.8,4.8c0.4,0.5,0.4,1.1,0,1.6
		c-0.3,0.4-0.6,0.9-0.9,1.2c-0.8,0.8-1,1.6-0.4,2.7C53.4,6.7,53.7,7,54.4,7c0.8,0,1.5,0.2,2.3,0.3c0.6,0.1,1,0.4,1.1,1
		c0.4,2.3,0.4,4.6,0,6.8c-0.1,0.6-0.5,1-1.1,1.1c-0.5,0.1-1,0.2-1.5,0.2c-1.2,0-1.9,0.5-2.2,1.7c-0.2,0.6-0.2,1.1,0.2,1.5
		c0.5,0.5,0.9,1.2,1.3,1.7c0.4,0.6,0.5,1.1,0.1,1.7c-1.3,1.9-2.9,3.4-4.8,4.8c-0.6,0.4-1.1,0.4-1.7-0.1s-1.3-1-2-1.5
		c-0.4-0.3-0.7-0.4-1.1-0.1c-0.3,0.2-0.7,0.2-1,0.4s-0.6,0.5-0.7,0.8C43.1,28,43,28.7,43,29.5c-0.1,1-0.5,1.5-1.5,1.6
		C40.7,31.3,40.1,31.4,39.4,31.5z M24.3,1.2c0.7,1,1.3,1.8,2,2.6c0.4,0.5,0.4,1,0.1,1.5C26,6.2,25.6,7.1,25.3,8
		c-0.2,0.6-0.6,0.9-1.2,1c-0.8,0.1-1.5,0.2-2.3,0.3c-0.5,0-0.8,0.2-0.8,0.8c0,1.2,0,2.4,0,3.6c0,0.5,0.3,0.7,0.7,0.7
		c0.8,0.1,1.5,0.2,2.3,0.3c0.7,0.1,1.1,0.4,1.3,1.1c0.3,0.9,0.7,1.8,1.1,2.6c0.3,0.6,0.3,1.1-0.1,1.6c-0.6,0.8-1.2,1.6-1.9,2.6
		c1.1,1.2,2.2,2.3,3.3,3.4c1-0.8,1.8-1.3,2.6-1.9c0.5-0.4,1-0.4,1.6-0.2c0.9,0.4,1.8,0.8,2.7,1.1c0.6,0.2,0.9,0.6,1,1.2
		c0.1,0.8,0.2,1.6,0.4,2.4c0.1,0.3,0.4,0.6,0.7,0.6c1.1,0.1,2.1,0.1,3.2,0.1c0.8,0,1.2-0.3,1.2-1.2c0-0.7,0.2-1.3,0.3-2
		s0.4-1,1.1-1.2c0.9-0.3,1.7-0.6,2.5-1c0.7-0.3,1.2-0.3,1.8,0.2c0.6,0.5,1.2,1,1.9,1.4c0.2,0.1,0.6,0.2,0.7,0.1c1.1-1,2.2-2,3.3-3
		c-0.8-1-1.4-1.8-1.9-2.6c-0.2-0.4-0.3-1-0.1-1.4c0.3-1,0.7-2,1.2-2.9c0.2-0.4,0.7-0.8,1.1-0.9c0.8-0.2,1.6-0.2,2.4-0.4
		c0.3-0.1,0.6-0.4,0.6-0.6c0.1-1.2,0.1-2.4,0-3.7c0-0.2-0.4-0.6-0.6-0.7C54.6,9.2,53.8,9.1,53,9c-0.6-0.1-1-0.4-1.2-1
		c-0.3-0.9-0.7-1.8-1.1-2.6c-0.3-0.7-0.3-1.2,0.2-1.8c0.6-0.8,1.2-1.5,1.8-2.4c-0.8-0.8-1.5-1.7-2.3-2.4c-1.1-1-1.1-1-2.2-0.1
		c-0.4,0.3-0.9,0.6-1.3,1c-0.5,0.4-1,0.4-1.6,0.1c-0.9-0.4-1.7-0.8-2.6-1.1c-0.6-0.2-1-0.6-1.1-1.2c-0.1-0.8-0.2-1.6-0.3-2.4
		c-0.1-0.5-0.2-0.7-0.7-0.7c-1.2,0-2.4,0-3.6,0c-0.6,0-0.7,0.3-0.8,0.8C36.1-4,36-3.2,35.9-2.4c-0.1,0.6-0.4,0.9-1,1.2
		c-0.9,0.3-1.7,0.6-2.5,1c-0.7,0.4-1.3,0.3-1.9-0.2C29.8-1,29-1.5,28-2.3C26.4-1.1,25.4,0,24.3,1.2z M37.2,31.5
		c-0.8-0.1-1.4-0.2-2.1-0.3c-0.8-0.1-1.2-0.5-1.3-1.3c-0.1-0.7-0.2-1.4-0.3-2.2c0-0.6-0.4-0.9-0.9-1.2c-1.1-0.6-1.9-0.4-2.7,0.4
		c-0.4,0.4-0.8,0.6-1.2,0.9c-0.6,0.4-1.1,0.4-1.7,0c-0.3-0.3-0.7-0.6-1-0.8c-0.5-0.3-1.1-0.6-1.6-0.6c-3.1-0.1-6.2,0-9.3,0
		c-0.3,0-0.6,0-1,0c0,2,0,3.9,0,6c0.4,0,0.8,0,1.1,0c3,0,6,0,9,0c0.7,0,1.2,0.3,1.2,1c0,0.8-0.5,1.1-1.2,1.1c-0.2,0-0.5,0-0.7,0
		c-2.8,0-5.6,0-8.3,0c-0.3,0-0.7,0-1,0c0,0.8,0,1.4,0,2.2c7.8,0,15.5,0,23.2,0C37.2,35.2,37.2,33.4,37.2,31.5z M19.1,39.2
		c0,1.9,0,3.6,0,5.4c4.4,0,8.7,0,13,0c0-1.8,0-3.6,0-5.4c-4.1,0-8.1,0-12.1,0C19.7,39.2,19.4,39.2,19.1,39.2z M23.9,46.9
		c0,0.4,0,0.8,0,1.1c0,2.5,0.1,5,0,7.5c-0.1,1.5,0.6,2.4,1.7,3.3c1.5-1.2,1.7-1.4,1.7-3.3c0-2.5,0-5.1,0-7.6c0-0.3,0-0.6-0.1-1
		C26.1,46.9,25.1,46.9,23.9,46.9z"/>
	<path class="st7" d="M25.9,65.4c-5.4,0-10.9,0-16.3,0c-0.3,0-0.7,0.1-0.9-0.1C8.4,65,8,64.6,8,64.2c0-0.3,0.4-0.7,0.8-1
		c0.2-0.1,0.6-0.1,0.9-0.1c10.9,0,21.7,0,32.6,0c0.3,0,0.6-0.1,0.8,0c0.4,0.3,0.9,0.7,0.9,1c0,0.4-0.5,0.8-0.8,1.1
		c-0.2,0.1-0.5,0-0.8,0C36.9,65.4,31.4,65.4,25.9,65.4z"/>
	<path class="st7" d="M12,59c-2,0-4,0-5.9,0c-1,0-1.5-0.4-1.4-1.1c0.1-0.9,0.7-1,1.4-1c4,0,7.9,0,11.9,0c1,0,1.5,0.4,1.4,1.1
		c-0.1,0.8-0.7,1.1-1.4,1.1C16,59,14,59,12,59z"/>
	<path class="st7" d="M40,56.8c2,0,4,0,5.9,0c1,0,1.5,0.4,1.5,1.1S46.9,59,45.9,59c-3.9,0-7.9,0-11.8,0c-1,0-1.5-0.4-1.4-1.1
		c0-0.9,0.6-1.1,1.4-1.1C36,56.8,38,56.8,40,56.8z"/>
	<path class="st7" d="M14.2-3.4c0.3,0,0.6,0,0.9,0c0.6,0,1,0.4,1,1c0,0.7-0.4,1-1,1.1c-0.6,0.1-1.2,0-1.8,0c-0.7,0-1.1-0.4-1.1-1.1
		c0-0.7,0.4-1,1.1-1.1C13.7-3.5,13.9-3.4,14.2-3.4L14.2-3.4z"/>
	<path class="st7" d="M38.3,22.4c-5.9,0-10.6-4.7-10.5-10.6c0-5.9,4.8-10.6,10.6-10.5C44.3,1.3,49,6.1,49,11.9
		C48.9,17.7,44.2,22.4,38.3,22.4z M38.2,20.2c4.6,0.1,8.4-3.7,8.5-8.3S43,3.4,38.4,3.4c-4.6-0.1-8.4,3.7-8.5,8.3
		S33.6,20.2,38.2,20.2z"/>
	<path class="st7" d="M30.9,32.6c0.5,0,1-0.1,1.3,0c0.4,0.2,0.9,0.7,0.9,1c0,0.4-0.5,1-0.8,1c-1,0.1-2,0.1-3,0
		c-0.3-0.1-0.8-0.7-0.8-1.1c0-0.3,0.5-0.8,0.9-0.9C29.8,32.5,30.4,32.6,30.9,32.6L30.9,32.6z"/>
	<path class="st7" d="M38.3,17.2c-3,0-5.4-2.4-5.4-5.4s2.4-5.3,5.3-5.4c3,0,5.4,2.4,5.4,5.4C43.7,14.8,41.3,17.2,38.3,17.2z
		 M41.5,11.8c0-1.8-1.4-3.2-3.2-3.2s-3.2,1.4-3.2,3.2c0,1.8,1.4,3.2,3.2,3.2C40.1,15,41.5,13.6,41.5,11.8z"/>
</g>
<g id="Layer_3_2_">
	<path class="st8" d="M32.3,45.8c8.8,0,17.6,0,26.4,0c2.3,0,4,1,5.4,2.8c0.9,1.1,1.2,2.4,1.2,3.8c0,1.3-0.3,2.5-1,3.6
		c-0.9,1.4-2.2,2.3-3.8,2.8C60,59,59.4,59,58.8,59c-17.3,0-34.7,0-52,0c-2.6,0-5.1-1.7-6-4.1c-0.6-1.5-0.7-3.1-0.3-4.5
		C0.9,49,1.8,47.8,3,46.9s2.6-1.2,4.1-1.2C15.4,45.8,23.9,45.8,32.3,45.8z M32.6,58c8.6,0,17,0,25.6,0c1.4,0,2.7-0.3,3.8-1.3
		c1-0.8,1.5-1.8,1.8-3c0.4-1.5,0.1-2.9-0.6-4.2c-1.1-1.9-3-2.7-5.2-2.7c-17,0-34.1,0-51.1,0c-1,0-2.1,0.2-3,0.6
		c-1.4,0.8-2.3,1.9-2.7,3.5c-0.5,1.9-0.1,3.6,1.1,5.1c1.1,1.4,2.8,2,4.5,2C15.6,58,24.1,58,32.6,58z"/>
	<path class="st8" d="M57.7,32c0-2.6,0-5.2,0-7.9c0-1-0.4-1.8-1-2.6c-0.6-0.9-1.3-1.6-2-2.4c-0.2-0.2-0.2-0.4-0.3-0.7
		c0.3,0,0.5-0.2,0.7-0.1c0.2,0,0.4,0.1,0.6,0.3c0.8,0.9,1.7,1.8,2.3,2.8c0.7,1.1,1,2.4,1,3.8c0,4.9,0,9.8,0,14.7
		c0,1.5-0.4,2.7-1.4,3.8c-0.8,1-1.7,1.2-3,1h-0.1c-0.5-0.6-1.3-0.3-2-0.4c-0.2,0-0.4,0-0.5,0.1c-1.2,0.9-2.9,0.2-3.7-0.8
		c-0.9-1.2-1.3-2.5-1.3-4c0-4.9,0-9.7,0-14.6c0-2.4,1.1-4.3,2.8-5.9c0.3-0.3,0.7-0.8,1.2-0.7c0.2,0,0.3,0.1,0.5,0.2
		c0.1,0.2,0.1,0.3,0,0.5c-0.4,0.5-1,1-1.4,1.5c-1,1-1.6,2.3-1.7,3.7c0,0.4-0.1,0.9-0.1,1.4c0,4.6,0,9.4,0,14c0,1.1,0.2,2.2,0.8,3.1
		c0.3,0.5,0.7,1,1.4,1c0.3,0,0.5,0.1,0.7-0.3c0.1-0.1,0.3-0.2,0.5-0.2c0.9,0,1.7,0,2.5,0c0.2,0,0.3,0.1,0.5,0.2c0.4,0.3,1,0.4,1.6,0
		c0.8-0.7,1.3-1.7,1.4-2.7C57.8,37.9,57.7,35,57.7,32L57.7,32z"/>
	<path class="st8" d="M42.9,32.4c0-2.4,0-4.9,0-7.3c0-1.9-0.7-3.5-2-4.8c-0.4-0.4-0.8-0.9-1.1-1.3c-0.1-0.1-0.2-0.3-0.2-0.4
		c0.1-0.1,0.3-0.2,0.4-0.2c0.5-0.1,0.9,0.2,1.2,0.6c0.6,0.8,1.3,1.5,1.8,2.4c0.4,0.8,0.8,1.7,1,2.5c0.2,1,0.1,2,0.1,3
		c0,4.4,0,8.7,0,13c0,1.7-0.5,3.1-1.7,4.3c-0.9,0.9-2.1,1-3.1,0.3c-0.2-0.1-0.4-0.1-0.6-0.1c-0.3,0-0.5,0-0.9,0
		c-0.3,0-0.5,0.1-0.8,0.2c-0.7,0.4-1.6,0.4-2.2,0.1c-1.4-0.7-2.2-2-2.4-3.6c-0.1-0.9-0.1-1.8-0.1-2.7c0-4.4,0-8.7,0-13.1
		c0-2.3,0.8-4.2,2.4-5.9c0.2-0.2,0.3-0.3,0.5-0.6c0.3-0.5,0.8-0.6,1.4-0.6c0.1,0,0.3,0.1,0.3,0.2s0,0.3-0.1,0.3
		c-0.4,0.5-1,1.1-1.5,1.7c-1.1,1.3-1.7,2.8-1.7,4.5c0,5,0,10,0,14.9c0,1.3,0.4,2.5,1.4,3.4c0.4,0.4,1.1,0.4,1.6,0
		c0.1-0.1,0.3-0.2,0.4-0.2c0.8,0,1.7,0,2.4,0c0.2,0,0.4,0.1,0.6,0.2c0.3,0.3,1.1,0.3,1.4,0.1c0.4-0.5,0.8-1,1.1-1.7
		c0.5-0.9,0.3-1.8,0.3-2.7C42.9,36.9,42.9,34.7,42.9,32.4z"/>
	<path class="st8" d="M38.2,17.7c-0.5,0-1,0-1.7,0c-0.5,0-0.9-0.3-0.9-0.9c0-0.3,0-0.7,0-1c0-0.7,0.4-1.1,1.1-1.2c1,0,1.8,0,2.8,0
		c0.7,0,1.1,0.5,1.1,1.2c0,0.3,0,0.7,0,1c0,0.5-0.3,0.9-0.9,0.9C39.3,17.7,38.7,17.7,38.2,17.7z"/>
	<path class="st8" d="M53.1,17.7c-0.5,0-1,0-1.6,0s-0.9-0.3-0.9-0.9c0-0.3,0-0.7,0-1c0-0.7,0.4-1.1,1.1-1.1c1,0,1.9,0,2.9,0
		c0.5,0,1.2,0.6,1.1,1.2c-0.1,0.3,0,0.6,0,1c0,0.5-0.3,0.9-0.9,0.9C54.1,17.7,53.6,17.7,53.1,17.7L53.1,17.7z"/>
	<path class="st8" d="M6.8,52.3c-0.1-1.6,1.2-2.7,2.6-2.7c1.6,0,2.8,1.3,2.8,2.7c0,1.5-1.2,2.9-2.7,2.8C8.1,55,6.7,54.1,6.8,52.3z"
		/>
	<path class="st8" d="M27.8,52.4c0.1,1.7-1.3,2.7-2.8,2.7s-2.7-1.2-2.7-2.8c0-1.4,1.1-2.7,2.7-2.7C26.5,49.6,28,50.7,27.8,52.4z"/>
	<path class="st8" d="M59.2,52.3c-0.1,1.7-1.3,2.7-2.7,2.8c-1.6,0.1-2.8-1.2-2.8-2.8c0-1.5,1.2-2.7,2.8-2.7
		C57.9,49.6,59.2,50.9,59.2,52.3z"/>
	<path class="st8" d="M40.7,49.6c1.6,0.1,2.8,1.1,2.8,2.7c0,1.7-1.1,2.8-2.7,2.8S38.1,54,38,52.3C37.9,51,39.2,49.6,40.7,49.6z"/>
	<path class="st8" d="M16.9,19.6c1.2,2.4,2.4,4.6,3.5,7.1c1.2,2.8,0,6.1-2.6,7.5c-2.7,1.5-6.1,1-7.8-1.7c-1.9-3-3.3-6.3-4.8-9.1
		C9.1,22.1,12.9,20.8,16.9,19.6z"/>
	<path class="st8" d="M6.8,19.2c-3.8,0-6.8-3-6.8-6.8s3.1-6.7,6.9-6.7s6.8,3.1,6.9,6.8C13.8,16.1,10.6,19.2,6.8,19.2z"/>
	<path class="st8" d="M17.8,14.5c0.4-3.8-0.3-7-2.7-9.9c5.2-1,10-1.8,14.7-2.6c0.6,2.4,1.3,4.8,2,7.3C27.5,11,22.8,12.7,17.8,14.5z"
		/>
	<path class="st8" d="M20.7,43.6c-4,0-7.9,0-11.9,0c0-1.9,0-3.8,0-5.9c3.9,1.8,7.9,2,11.9-0.1C20.7,39.6,20.7,41.5,20.7,43.6z"/>
	<path class="st8" d="M42.2,4c0-2.2-1.8-4-4-4c-2.3,0-4,1.7-4,3.9c0,1.8,1.2,3.4,3,3.8v5h2.1v-5C41,7.3,42.3,5.7,42.2,4z"/>
</g>
</svg>
