<?xml version="1.0" encoding="utf-8"?>
<!-- Generator: Adobe Illustrator 26.2.1, SVG Export Plug-In . SVG Version: 6.00 Build 0)  -->
<svg version="1.1" id="Layer_1" xmlns="http://www.w3.org/2000/svg" xmlns:xlink="http://www.w3.org/1999/xlink" x="0px" y="0px"
	 viewBox="0 0 67 56.3" style="enable-background:new 0 0 67 56.3;" xml:space="preserve">
<style type="text/css">
	.st0{display:none;}
	.st1{display:inline;}
	.st2{fill:#010202;}
	.st3{fill:none;stroke:#FFFFFF;stroke-width:2;stroke-miterlimit:10;}
	.st4{fill:#FFFFFF;}
	.st5{fill:none;stroke:#FFFFFF;stroke-width:0.75;stroke-miterlimit:100;}
	
		.st6{clip-path:url(#SVGID_00000111880087806720673230000005769790564921490565_);fill:none;stroke:#231F20;stroke-width:0.421;stroke-miterlimit:10;}
	
		.st7{clip-path:url(#SVGID_00000066504489246172100710000017882087662732950192_);fill:none;stroke:#231F20;stroke-width:0.421;stroke-miterlimit:10;}
	
		.st8{clip-path:url(#SVGID_00000098182432112923964420000006989781248582036617_);fill:none;stroke:#231F20;stroke-width:0.421;stroke-miterlimit:10;}
	
		.st9{clip-path:url(#SVGID_00000123410447235183699680000004381437847794200755_);fill:none;stroke:#231F20;stroke-width:0.421;stroke-miterlimit:10;}
	.st10{clip-path:url(#SVGID_00000157290812205928102240000001336027405271832738_);fill:#231F20;}
	.st11{clip-path:url(#SVGID_00000066511959865051876690000002172101968427886770_);fill:#231F20;}
	.st12{clip-path:url(#SVGID_00000031916339832140441630000001502257393689436574_);fill:#231F20;}
	.st13{clip-path:url(#SVGID_00000008842653164400179520000002535018014601657518_);fill:#231F20;}
	.st14{clip-path:url(#SVGID_00000014592461301441519870000009971659103776589235_);fill:#231F20;}
	.st15{clip-path:url(#SVGID_00000139990188333431865790000012382128257965818269_);fill:#231F20;}
	.st16{clip-path:url(#SVGID_00000053546013998659771160000017317310668868386709_);fill:#231F20;}
	.st17{clip-path:url(#SVGID_00000026128338131209231840000013107076638727048603_);fill:#FFFFFF;}
	.st18{clip-path:url(#SVGID_00000022540210308642667750000014142833920063932091_);fill:#231F20;}
	.st19{clip-path:url(#SVGID_00000018239210399368101010000009021346354783477380_);fill:#FFFFFF;}
	.st20{clip-path:url(#SVGID_00000080166550455287179670000005886958708430624686_);fill:#FFFFFF;}
	.st21{clip-path:url(#SVGID_00000116235104871821816470000010146913931604043441_);fill:#FFFFFF;}
	.st22{clip-path:url(#SVGID_00000067942737918138314750000000682100030327222685_);fill:#231F20;}
	.st23{clip-path:url(#SVGID_00000065754945325520325120000003315175661522679472_);fill:#231F20;}
	.st24{clip-path:url(#SVGID_00000155142892917041596240000002730338633406708148_);fill:#231F20;}
	.st25{clip-path:url(#SVGID_00000065784212594124402510000010240883139622437285_);fill:#5A5B5C;}
	.st26{clip-path:url(#SVGID_00000141414589120437315010000009038692425221234835_);fill:#5A5B5C;}
	.st27{clip-path:url(#SVGID_00000145762355754069754550000014874996088766277020_);fill:#5A5B5C;}
	.st28{clip-path:url(#SVGID_00000070107273483802406470000001408830956909222800_);fill:#5A5B5C;}
	.st29{clip-path:url(#SVGID_00000178167328137493727500000016840675326418322354_);fill:#5A5B5C;}
	.st30{clip-path:url(#SVGID_00000159458243216079455120000004116376206334256301_);fill:#5A5B5C;}
	.st31{clip-path:url(#SVGID_00000067931132145134752560000017293536108478371743_);fill:#5A5B5C;}
	.st32{clip-path:url(#SVGID_00000018920751410201636030000008392439741195081623_);}
	.st33{fill:none;}
	.st34{fill:#0088CC;}
</style>
<g id="Layer_2_1_" class="st0">
	<rect x="-14.3" y="-13.2" class="st1" width="98" height="84"/>
</g>
<g id="Layer_1_1_" class="st0">
	<g id="Layer_4" class="st1">
		<rect x="-14.3" y="-12.1" class="st2" width="98" height="83"/>
	</g>
	<g id="servis" class="st1">
		<g>
			<path class="st3" d="M60.5,32.3v-6.9l4.5-1.9c-0.5-2.9-1.4-5.7-2.7-8.3l-4.8,1.1l-4-5.6L56,6.5c-2.1-2-4.4-3.7-7.1-5.1l-3.2,3.7
				L39.1,3l-0.4-4.9c-2.9-0.4-5.9-0.4-8.7,0L29.6,3L23,5.1l-3.2-3.7c-2.6,1.4-4.9,3.1-7.1,5.1l2.5,4.2l-4.1,5.6l-4.8-1.1
				c-0.6,1.3-1.2,2.6-1.6,4.1c-0.5,1.4-0.8,2.8-1.1,4.2l4.5,1.9v6.9l-4.5,1.9C4.1,37.2,5,40,6.3,42.6l4.8-1.1l4.1,5.6l-2.5,4.2
				c2.1,2,4.4,3.7,7.1,5.1l3.2-3.7l6.7,2.1l0.4,4.9c2.9,0.4,5.9,0.4,8.7,0l0.4-4.9l6.6-2.1l3.2,3.7c2.6-1.4,4.9-3.1,7.1-5.1L53.6,47
				l4.1-5.6l4.8,1.1c0.6-1.3,1.2-2.6,1.6-4.1c0.5-1.4,0.8-2.8,1.1-4.2L60.5,32.3z M29.3,44.8c-8.7-2.8-13.5-12.2-10.7-21
				c2.8-8.7,12.2-13.5,21-10.7s13.5,12.2,10.7,21C47.5,42.8,38.1,47.5,29.3,44.8z"/>
			<path class="st3" d="M38.1,17.6c-6.2-2-12.9,1.4-14.9,7.6s1.4,12.9,7.6,14.9s12.9-1.4,14.9-7.6S44.3,19.6,38.1,17.6z M32.9,33.5
				c-2.6-0.8-4-3.6-3.2-6.2c0.8-2.6,3.6-4,6.2-3.2c2.6,0.8,4,3.6,3.2,6.2C38.3,33,35.5,34.5,32.9,33.5z"/>
		</g>
	</g>
	<g id="Layer_2_2_" class="st1">
		<path class="st4" d="M66.9,1.1c0,1.2-0.4,2.2-1.3,3c-0.8,0.8-1.9,1.3-3.1,1.3s-2.2-0.4-3-1.3c-0.8-0.8-1.3-1.9-1.3-3
			c0-1.2,0.4-2.2,1.3-3c0.8-0.8,1.9-1.3,3-1.3c1.2,0,2.2,0.4,3.1,1.3C66.5-1.1,66.9-0.1,66.9,1.1z"/>
		<path class="st4" d="M31.8,20.3l-13-13c-1.7-1.7-4.5-1.7-6.2,0s-1.7,4.5,0,6.2l13,13c1.7,1.7,4.5,1.7,6.2,0S33.5,22,31.8,20.3z"/>
		<path class="st4" d="M18.8,51l13-13c1.7-1.7,1.7-4.5,0-6.2s-4.5-1.7-6.2,0l-13,13c-1.7,1.7-1.7,4.5,0,6.2
			C14.4,52.7,17.1,52.7,18.8,51z"/>
		<path class="st4" d="M37.2,38l13,13c1.7,1.7,4.5,1.7,6.2,0s1.7-4.5,0-6.2l-13-13c-1.7-1.7-4.5-1.7-6.2,0
			C35.5,33.5,35.5,36.2,37.2,38z"/>
		<path class="st4" d="M50.1,7.5l-13,13c-1.7,1.7-1.7,4.5,0,6.2s4.5,1.7,6.2,0l13-13c1.7-1.7,1.7-4.5,0-6.2
			C54.6,5.8,51.8,5.8,50.1,7.5z"/>
	</g>
	<g id="Layer_3" class="st1">
		<g id="Ellipse_1">
			<g>
				<path class="st4" d="M24.5-1.9c2.5,0,4.5,2,4.5,4.5S27,7,24.5,7S20,5,20,2.5C19.9,0.1,22-1.9,24.5-1.9 M24.5-2.9
					c-3,0-5.5,2.5-5.5,5.5S21.5,8,24.5,8S30,5.5,30,2.5C30-0.6,27.5-2.9,24.5-2.9L24.5-2.9z"/>
			</g>
		</g>
		<g id="Ellipse_1_copy">
			<g>
				<path class="st4" d="M47.1,41.8c2.5,0,4.5,2,4.5,4.5s-2,4.5-4.5,4.5s-4.5-2-4.5-4.5S44.6,41.8,47.1,41.8 M47.1,40.8
					c-3,0-5.5,2.5-5.5,5.5s2.5,5.5,5.5,5.5s5.5-2.5,5.5-5.5S50.2,40.8,47.1,40.8L47.1,40.8z"/>
			</g>
		</g>
		<path class="st4" d="M0.1,33.5c-6.5,0.2-7.9,4-7.9,4v19.5c2.6,2.9,5.6,3.6,7.9,3.5c2.3,0,5.3-0.6,7.9-3.5V37.5
			C8.1,37.5,6.6,33.8,0.1,33.5z"/>
		<line class="st5" x1="-0.5" y1="29.3" x2="-0.5" y2="25.8"/>
		<line class="st5" x1="-0.5" y1="22" x2="-0.5" y2="18.5"/>
		<line class="st5" x1="-0.7" y1="14.5" x2="-0.5" y2="11.2"/>
		<line class="st5" x1="1.1" y1="7.4" x2="3.8" y2="4.6"/>
		<line class="st5" x1="6.9" y1="2.4" x2="10.5" y2="1.1"/>
		<line class="st5" x1="13.4" y1="0.4" x2="17" y2="0.2"/>
		<line class="st5" x1="23.5" y1="10.5" x2="23.5" y2="12.5"/>
		<line class="st5" x1="24.2" y1="15.9" x2="26.8" y2="19"/>
		<line class="st5" x1="30.2" y1="21.2" x2="34.2" y2="22.2"/>
		<line class="st5" x1="38.6" y1="22.5" x2="42.2" y2="25.2"/>
		<line class="st5" x1="44.7" y1="27.5" x2="47" y2="31.8"/>
		<line class="st5" x1="47.4" y1="36.2" x2="47.6" y2="38.2"/>
		<line class="st5" x1="54.4" y1="46.5" x2="58.4" y2="46.3"/>
		<line class="st5" x1="62.5" y1="46" x2="66.4" y2="46"/>
		<polyline class="st4" points="69.1,40.8 69.1,43.3 69.1,46 69.1,48.5 69.1,51 71,49.8 72.8,48.7 74.6,47.5 76.5,46.2 		"/>
	</g>
	<g id="Layer_5" class="st1">
		<g>
			<g>
				<g>
					<g>
						<defs>
							<rect id="SVGID_1_" x="-15.6" y="-8.6" width="100.9" height="76.6"/>
						</defs>
						<clipPath id="SVGID_00000133503282572559331710000017668550691363257495_">
							<use xlink:href="#SVGID_1_"  style="overflow:visible;"/>
						</clipPath>
						
							<path style="clip-path:url(#SVGID_00000133503282572559331710000017668550691363257495_);fill:none;stroke:#231F20;stroke-width:0.421;stroke-miterlimit:10;" d="
							M226.5,35.5c0.3,0.7,1.3,2.3-0.3,3.9"/>
					</g>
				</g>
			</g>
			<g>
				<g>
					<g>
						<defs>
							<rect id="SVGID_00000012448729762432443340000013195870172274568113_" x="-15.6" y="-8.6" width="100.9" height="76.6"/>
						</defs>
						<clipPath id="SVGID_00000142861065900495922470000007670118359202342335_">
							<use xlink:href="#SVGID_00000012448729762432443340000013195870172274568113_"  style="overflow:visible;"/>
						</clipPath>
						
							<path style="clip-path:url(#SVGID_00000142861065900495922470000007670118359202342335_);fill:none;stroke:#231F20;stroke-width:0.421;stroke-miterlimit:10;" d="
							M228.2,34.5c0,0.7,1.6,3.6-1,6.2"/>
					</g>
				</g>
			</g>
			<g>
				<g>
					<g>
						<defs>
							<rect id="SVGID_00000104707437804900518920000007160409435020393638_" x="-15.6" y="-8.6" width="100.9" height="76.6"/>
						</defs>
						<clipPath id="SVGID_00000157305369383396970840000011026872375696270497_">
							<use xlink:href="#SVGID_00000104707437804900518920000007160409435020393638_"  style="overflow:visible;"/>
						</clipPath>
						
							<path style="clip-path:url(#SVGID_00000157305369383396970840000011026872375696270497_);fill:none;stroke:#231F20;stroke-width:0.421;stroke-miterlimit:10;" d="
							M215.7,30.7c-0.3-0.3-2.3-1-2.3-3.3"/>
					</g>
				</g>
			</g>
			<g>
				<g>
					<g>
						<defs>
							<rect id="SVGID_00000044857644396614904130000008091689289573957008_" x="-15.6" y="-8.6" width="100.9" height="76.6"/>
						</defs>
						<clipPath id="SVGID_00000092447202051556113500000005031730882273634690_">
							<use xlink:href="#SVGID_00000044857644396614904130000008091689289573957008_"  style="overflow:visible;"/>
						</clipPath>
						
							<path style="clip-path:url(#SVGID_00000092447202051556113500000005031730882273634690_);fill:none;stroke:#231F20;stroke-width:0.421;stroke-miterlimit:10;" d="
							M215.4,32.5c-0.7-0.7-3.6-2-3.3-5.6"/>
					</g>
				</g>
			</g>
			<g>
				<g>
					<g>
						<defs>
							<rect id="SVGID_00000093897337546568312630000009708922395565137303_" x="-15.6" y="-8.6" width="100.9" height="76.6"/>
						</defs>
						<clipPath id="SVGID_00000020373432913853665810000008394873637834652579_">
							<use xlink:href="#SVGID_00000093897337546568312630000009708922395565137303_"  style="overflow:visible;"/>
						</clipPath>
						<path style="clip-path:url(#SVGID_00000020373432913853665810000008394873637834652579_);fill:#231F20;" d="M172.7,35.5
							c0.3,0.3,0.7,0.3,0.7,0.7c0.7,0.7,1,1.3,1.3,2.3h-6.2h-1.3H161c0.3-1.3,1.3-2.3,1.6-3H172.7z"/>
					</g>
				</g>
			</g>
			<g>
				<g>
					<g>
						<defs>
							<rect id="SVGID_00000047019143078711755340000010384509278242688132_" x="-15.6" y="-8.6" width="100.9" height="76.6"/>
						</defs>
						<clipPath id="SVGID_00000080164516230753286770000001969226923826458776_">
							<use xlink:href="#SVGID_00000047019143078711755340000010384509278242688132_"  style="overflow:visible;"/>
						</clipPath>
						<path style="clip-path:url(#SVGID_00000080164516230753286770000001969226923826458776_);fill:#231F20;" d="M163.5,17.1
							c0.3,2,2,3.3,3.9,3.3c1,0,2-0.7,2.6-1.6c0.3,0,0.3-0.3,0.3-0.7c2.3-5.6,8.2-11.2,8.2-11.2c0.7-1,1-1.6,1-3
							c-0.3-1.6-2-3.3-3.9-3c-1.6,0-2.6,1-3,2.6c-2.3,4.6-5.3,8.2-6.9,10.2C164.5,14.5,163.5,15.9,163.5,17.1 M178,4.4
							c0,1-0.7,2-1.6,2c-1.3,0-2.3-0.7-2.3-1.6c0-1.3,0.7-2,2-2.3C177,2.4,178,3.4,178,4.4 M165.2,17.1c0-1.3,0.7-2,2-2.3
							c1,0,2,1,2,2s-0.7,2-1.6,2C166.1,19.1,165.2,18.1,165.2,17.1"/>
					</g>
				</g>
			</g>
			<g>
				<g>
					<g>
						<defs>
							<rect id="SVGID_00000181789682208249778570000001519726239217821075_" x="-15.6" y="-8.6" width="100.9" height="76.6"/>
						</defs>
						<clipPath id="SVGID_00000121244745126208596300000011384148349055162781_">
							<use xlink:href="#SVGID_00000181789682208249778570000001519726239217821075_"  style="overflow:visible;"/>
						</clipPath>
						<path style="clip-path:url(#SVGID_00000121244745126208596300000011384148349055162781_);fill:#231F20;" d="M172.4,35.2
							c-1-1-1.6-3.6-1.6-3.6V31c-1.3-5.9-0.3-14.1-0.3-14.1c0-1-0.3-2-1-2.6c-1-1.3-3.3-1.6-4.9-0.3c-1,1-1.3,2.6-0.7,4.3
							c1.6,9.2-0.7,17.1-0.7,17.1L172.4,35.2L172.4,35.2z M168.1,18.1c-0.7,0.7-2,0.7-2.6-0.3c-0.7-0.7-0.7-2,0-2.6
							c1-0.7,2.3-0.7,3,0C169.1,16.1,169.1,17.1,168.1,18.1"/>
					</g>
				</g>
			</g>
			<g>
				<g>
					<g>
						<defs>
							<rect id="SVGID_00000077314396651275053170000010162763833535347363_" x="-15.6" y="-8.6" width="100.9" height="76.6"/>
						</defs>
						<clipPath id="SVGID_00000113314508363942971930000009658154945398553482_">
							<use xlink:href="#SVGID_00000077314396651275053170000010162763833535347363_"  style="overflow:visible;"/>
						</clipPath>
						<path style="clip-path:url(#SVGID_00000113314508363942971930000009658154945398553482_);fill:#231F20;" d="M176.7,1.4
							c-2-0.3-3.6,1.3-3.9,3c0,1.3,0.3,2.3,1.3,3v0.3c0,0,0.3,0,0.7,0.3c4.9,3.3,9.8,9.8,9.8,9.8c0.3,0.7,1.3,1.3,2.3,1.3
							c2,0,3.6-1.3,3.9-3.3c0-1.6-1-3-2.3-3.6c-4.3-2.6-7.2-6.6-8.9-8.5C179.3,2.4,178,1.4,176.7,1.4 M187.2,17.5c-1.3,0-2-1-2-2
							c0-1.3,1-2,2.3-2c1,0.3,1.6,1,1.6,2.3C189.1,16.9,188.1,17.5,187.2,17.5 M176.3,2.8c1.3,0.3,2,1.3,2,2.3s-1,2-2.3,1.6
							c-1,0-1.6-1-1.6-2S175.3,2.8,176.3,2.8"/>
					</g>
				</g>
			</g>
			<g>
				<g>
					<g>
						<defs>
							<rect id="SVGID_00000143581982131026931530000001446066263589287325_" x="-15.6" y="-8.6" width="100.9" height="76.6"/>
						</defs>
						<clipPath id="SVGID_00000056407557048444098110000011602264919191157665_">
							<use xlink:href="#SVGID_00000143581982131026931530000001446066263589287325_"  style="overflow:visible;"/>
						</clipPath>
						<path style="clip-path:url(#SVGID_00000056407557048444098110000011602264919191157665_);fill:#231F20;" d="M188.5,20.2l0.3-2
							l-5.3-3.9l-0.3,5.9c0,0.7-1,1-0.3,1h6.2C189.8,21,188.5,20.5,188.5,20.2"/>
					</g>
				</g>
			</g>
			<g>
				<g>
					<g>
						<defs>
							<rect id="SVGID_00000179641011667756592020000012740757933658475406_" x="-15.6" y="-8.6" width="100.9" height="76.6"/>
						</defs>
						<clipPath id="SVGID_00000078743893186285655420000017608982493275589278_">
							<use xlink:href="#SVGID_00000179641011667756592020000012740757933658475406_"  style="overflow:visible;"/>
						</clipPath>
						<path style="clip-path:url(#SVGID_00000078743893186285655420000017608982493275589278_);fill:#231F20;" d="M193.7,20.5
							l-9.2,0.3c-2,0-2.3,0.3-2.3,0.7v4.3c0,0.7,0.3,1,0.7,1h10.8V20.5z"/>
					</g>
				</g>
			</g>
			<g>
				<g>
					<g>
						<defs>
							<rect id="SVGID_00000019664171716561189350000009280243945403550381_" x="-15.6" y="-8.6" width="100.9" height="76.6"/>
						</defs>
						<clipPath id="SVGID_00000116228475667138102230000017854474982678407056_">
							<use xlink:href="#SVGID_00000019664171716561189350000009280243945403550381_"  style="overflow:visible;"/>
						</clipPath>
						<path style="clip-path:url(#SVGID_00000116228475667138102230000017854474982678407056_);fill:#231F20;" d="M194.7,26.7h-4.3
							c-2,0-3.9,0.3-3.9,1.6c0,1.6,2,3,3.9,3h4.3V26.7z"/>
					</g>
				</g>
			</g>
			<g>
				<g>
					<g>
						<defs>
							<rect id="SVGID_00000005224630812504017790000003420878820065821612_" x="-15.6" y="-8.6" width="100.9" height="76.6"/>
						</defs>
						<clipPath id="SVGID_00000070118392428195280280000018213127848600757900_">
							<use xlink:href="#SVGID_00000005224630812504017790000003420878820065821612_"  style="overflow:visible;"/>
						</clipPath>
						<path style="clip-path:url(#SVGID_00000070118392428195280280000018213127848600757900_);fill:#FFFFFF;" d="M188.1,14.2
							c-1-0.7-2.3-0.7-3,0.3c-1,1-0.7,2.3,0.3,3s2.3,0.3,3-0.3C189.1,16.1,188.8,14.9,188.1,14.2"/>
					</g>
				</g>
			</g>
			<g>
				<g>
					<g>
						<defs>
							<rect id="SVGID_00000107564913261507754250000009153210862723165354_" x="-15.6" y="-8.6" width="100.9" height="76.6"/>
						</defs>
						<clipPath id="SVGID_00000090973874115201265960000013344053772163870348_">
							<use xlink:href="#SVGID_00000107564913261507754250000009153210862723165354_"  style="overflow:visible;"/>
						</clipPath>
						<path style="clip-path:url(#SVGID_00000090973874115201265960000013344053772163870348_);fill:#231F20;" d="M188.1,14.2
							l-0.7,0.7c-0.3-0.3-0.3-0.3-0.7-0.3c-0.3,0-0.7,0-1,0.3s-0.3,0.7-0.3,1s0.3,0.7,0.3,1h1c0.3,0,0.7,0,1-0.3V16
							c0-0.3,0-0.7-0.3-1L188.1,14.2l0.3-0.7c1,0.3,1.3,1.3,1.3,2.3c0,0.7-0.3,1.3-0.7,1.6c-0.7,1-1.6,1.3-2.3,1.3s-1.3-0.3-2-0.7
							c-0.7-0.7-1-1.6-1-2.3c0-0.7,0-1.3,0.7-2c0.3-0.7,1.3-1,2.3-1c0.7,0,1.3,0,1.6,0.7L188.1,14.2z"/>
					</g>
				</g>
			</g>
			<g>
				<g>
					<g>
						<defs>
							<rect id="SVGID_00000158727796789709116520000005141207329357754274_" x="-15.6" y="-8.6" width="100.9" height="76.6"/>
						</defs>
						<clipPath id="SVGID_00000096748249721172849520000014068671138080165254_">
							<use xlink:href="#SVGID_00000158727796789709116520000005141207329357754274_"  style="overflow:visible;"/>
						</clipPath>
						<path style="clip-path:url(#SVGID_00000096748249721172849520000014068671138080165254_);fill:#FFFFFF;" d="M164.8,16.5
							c0,1.3,1,2.3,2.3,2.3c1,0,2-1,2-2.3c0-1-1-2-2-2C165.8,14.5,164.8,15.5,164.8,16.5"/>
					</g>
				</g>
			</g>
			<g>
				<g>
					<g>
						<defs>
							<rect id="SVGID_00000162309904603379585150000013013602678075682198_" x="-15.6" y="-8.6" width="100.9" height="76.6"/>
						</defs>
						<clipPath id="SVGID_00000127755599688103627250000005614482565294537873_">
							<use xlink:href="#SVGID_00000162309904603379585150000013013602678075682198_"  style="overflow:visible;"/>
						</clipPath>
						<path style="clip-path:url(#SVGID_00000127755599688103627250000005614482565294537873_);fill:#FFFFFF;" d="M174.7,2.8
							c-1,0.7-1.3,2-0.7,3c0.7,1,2,1.3,3,0.7c1-0.7,1.3-2,0.7-3C177,2.4,175.7,2.1,174.7,2.8"/>
					</g>
				</g>
			</g>
			<g>
				<g>
					<g>
						<defs>
							<rect id="SVGID_00000023968776617802654240000003389078459409480325_" x="-15.6" y="-8.6" width="100.9" height="76.6"/>
						</defs>
						<clipPath id="SVGID_00000067924489191501501280000013640694451778195381_">
							<use xlink:href="#SVGID_00000023968776617802654240000003389078459409480325_"  style="overflow:visible;"/>
						</clipPath>
						<path style="clip-path:url(#SVGID_00000067924489191501501280000013640694451778195381_);fill:#FFFFFF;" d="M185.8,13.9
							c-1,0.7-1.3,2-0.7,3c0.7,1,2,1,3,0.7c1-0.7,1.3-2,0.7-3C188.1,13.5,186.8,13.2,185.8,13.9"/>
					</g>
				</g>
			</g>
			<g>
				<g>
					<g>
						<defs>
							<rect id="SVGID_00000018922617099631131020000004910859738504583832_" x="-15.6" y="-8.6" width="100.9" height="76.6"/>
						</defs>
						<clipPath id="SVGID_00000164473995673360306490000007350254771835636901_">
							<use xlink:href="#SVGID_00000018922617099631131020000004910859738504583832_"  style="overflow:visible;"/>
						</clipPath>
						<path style="clip-path:url(#SVGID_00000164473995673360306490000007350254771835636901_);fill:#231F20;" d="M153.3,50h12.8
							v-8.2h-7.5h-0.3c0,0-0.3-0.3-0.3-0.7v-0.7V39c0-0.3,0.3-0.7,0.7-0.7h18.4c0.3,0,0.3,0.3,0.3,0.7v2c0,0.3,0,0.7-0.3,0.7h-7.9
							V50H182c0.3,0,0.7,0,0.7,0.3v1c0,0.3-0.3,0.7-0.7,0.7h-28.6c-0.3,0-0.3-0.3-0.3-0.7v-1C153,50,153,50,153.3,50"/>
					</g>
				</g>
			</g>
			<g>
				<g>
					<g>
						<defs>
							<rect id="SVGID_00000117649781216615552460000002480717543209572251_" x="-15.6" y="-8.6" width="100.9" height="76.6"/>
						</defs>
						<clipPath id="SVGID_00000044155710559339173330000002299828054748555144_">
							<use xlink:href="#SVGID_00000117649781216615552460000002480717543209572251_"  style="overflow:visible;"/>
						</clipPath>
						<path style="clip-path:url(#SVGID_00000044155710559339173330000002299828054748555144_);fill:#231F20;" d="M173,54.2
							c0,1.3,1,2,2,2c1.3,0,2.3-0.7,2.3-2c0-1-1-2-2.3-2C174,52.2,173,53.2,173,54.2 M174.4,54.2c0-0.7,0.3-1,0.7-1c0.7,0,1,0.3,1,1
							s-0.3,1-1,1C174.7,55.2,174.4,54.9,174.4,54.2"/>
					</g>
				</g>
			</g>
			<g>
				<g>
					<g>
						<defs>
							<rect id="SVGID_00000126320641530847094940000009505019077222164361_" x="-15.6" y="-8.6" width="100.9" height="76.6"/>
						</defs>
						<clipPath id="SVGID_00000004512509925700672160000002962936772246879118_">
							<use xlink:href="#SVGID_00000126320641530847094940000009505019077222164361_"  style="overflow:visible;"/>
						</clipPath>
						<path style="clip-path:url(#SVGID_00000004512509925700672160000002962936772246879118_);fill:#231F20;" d="M158.3,54.2
							c0,1.3,0.7,2,2,2c1,0,2-0.7,2-2c0-1-1-2-2-2C158.9,52.2,158.3,53.2,158.3,54.2 M159.3,54.2c0-0.7,0.3-1,1-1s1,0.3,1,1
							s-0.3,1-1,1C159.6,55.2,159.3,54.9,159.3,54.2"/>
					</g>
				</g>
			</g>
			<g>
				<g>
					<g>
						<defs>
							<rect id="SVGID_00000054966871973312184420000015117347629632755117_" x="-15.6" y="-8.6" width="100.9" height="76.6"/>
						</defs>
						<clipPath id="SVGID_00000006676881610100415980000003652643517602792588_">
							<use xlink:href="#SVGID_00000054966871973312184420000015117347629632755117_"  style="overflow:visible;"/>
						</clipPath>
						<polygon style="clip-path:url(#SVGID_00000006676881610100415980000003652643517602792588_);fill:#5A5B5C;" points="155,83.2 
							156,83.2 156,74.9 158.9,74.9 158.9,73.9 152.4,73.9 152.4,74.9 155,74.9 						"/>
					</g>
				</g>
			</g>
			<g>
				<g>
					<g>
						<defs>
							<rect id="SVGID_00000068646543384629438860000015756326403441144965_" x="-15.6" y="-8.6" width="100.9" height="76.6"/>
						</defs>
						<clipPath id="SVGID_00000071523373349300818260000003019461609653078691_">
							<use xlink:href="#SVGID_00000068646543384629438860000015756326403441144965_"  style="overflow:visible;"/>
						</clipPath>
						<path style="clip-path:url(#SVGID_00000071523373349300818260000003019461609653078691_);fill:#5A5B5C;" d="M159.9,79.2
							c0.3-1.3,1-2,2-2s1.6,0.7,1.6,2H159.9z M162.2,83.2c1,0,1.6-0.3,2-0.7l-0.3-0.7c-0.3,0.3-1,0.3-1.6,0.3c-1.3,0-2.3-0.7-2.3-2
							h4.6v-0.7c0-2-1-3.3-2.6-3.3s-3,1.3-3,3.6C158.9,81.8,160.2,83.2,162.2,83.2"/>
					</g>
				</g>
			</g>
			<g>
				<g>
					<g>
						<defs>
							<rect id="SVGID_00000071524489668531635480000000545414004933065918_" x="-15.6" y="-8.6" width="100.9" height="76.6"/>
						</defs>
						<clipPath id="SVGID_00000069362747760563466560000002794520502393584004_">
							<use xlink:href="#SVGID_00000071524489668531635480000000545414004933065918_"  style="overflow:visible;"/>
						</clipPath>
						<path style="clip-path:url(#SVGID_00000069362747760563466560000002794520502393584004_);fill:#5A5B5C;" d="M168.1,83.2
							c1.6,0,2.3-1,2.3-2c0-1.3-1-1.6-2-2c-0.7-0.3-1.6-0.7-1.6-1c0-0.7,0.3-1,1.3-1c0.7,0,1.3,0,1.6,0.3l0.7-0.7
							c-0.7-0.3-1.3-0.7-2.3-0.7c-1.3,0-2.3,1-2.3,2s1,1.3,2,1.6c1,0.3,1.6,0.7,1.6,1.3c0,0.7-0.3,1-1.3,1s-1.6-0.3-2-0.7l-0.7,0.7
							C166.1,82.8,167.1,83.2,168.1,83.2"/>
					</g>
				</g>
			</g>
			<g>
				<g>
					<g>
						<defs>
							<rect id="SVGID_00000047744689133503080340000006449828511131999663_" x="-15.6" y="-8.6" width="100.9" height="76.6"/>
						</defs>
						<clipPath id="SVGID_00000101061878103070596930000005757323359459141301_">
							<use xlink:href="#SVGID_00000047744689133503080340000006449828511131999663_"  style="overflow:visible;"/>
						</clipPath>
						<path style="clip-path:url(#SVGID_00000101061878103070596930000005757323359459141301_);fill:#5A5B5C;" d="M174,83.2
							c0.3,0,0.7,0,1-0.3v-0.7h-1c-0.7,0-1-0.3-1-1.3v-3.6h2v-1h-2v-2h-0.7l-0.3,2h-1v1h1v3.6C172.1,82.2,172.4,83.2,174,83.2"/>
					</g>
				</g>
			</g>
			<g>
				<g>
					<g>
						<defs>
							<rect id="SVGID_00000118377163602394875350000016979934067839498393_" x="-15.6" y="-8.6" width="100.9" height="76.6"/>
						</defs>
						<clipPath id="SVGID_00000125564602953191582260000005090338637651955092_">
							<use xlink:href="#SVGID_00000118377163602394875350000016979934067839498393_"  style="overflow:visible;"/>
						</clipPath>
						<path style="clip-path:url(#SVGID_00000125564602953191582260000005090338637651955092_);fill:#5A5B5C;" d="M177,74.9
							c0.7,0,0.7-0.3,0.7-0.7c0-0.3,0-0.7-0.7-0.7c-0.3,0-0.3,0.3-0.3,0.7C176.7,74.6,176.7,74.9,177,74.9 M177,83.2h0.7v-6.9H177
							V83.2z"/>
					</g>
				</g>
			</g>
			<g>
				<g>
					<g>
						<defs>
							<rect id="SVGID_00000129185077746177199150000000607925884316627606_" x="-15.6" y="-8.6" width="100.9" height="76.6"/>
						</defs>
						<clipPath id="SVGID_00000169558317445367010450000008980433250842284198_">
							<use xlink:href="#SVGID_00000129185077746177199150000000607925884316627606_"  style="overflow:visible;"/>
						</clipPath>
						<path style="clip-path:url(#SVGID_00000169558317445367010450000008980433250842284198_);fill:#5A5B5C;" d="M180.3,83.2h1
							v-4.9c0.7-0.7,1.3-1,2-1c1,0,1.3,0.3,1.3,1.6v4.3h1v-4.3c0-2-0.7-2.6-2-2.6c-1,0-1.6,0.3-2.3,1l-0.3-1h-0.7V83.2z"/>
					</g>
				</g>
			</g>
			<g>
				<g>
					<g>
						<defs>
							<rect id="SVGID_00000057109587986272788300000008454838274708476863_" x="-15.6" y="-8.6" width="100.9" height="76.6"/>
						</defs>
						<clipPath id="SVGID_00000167369115644572687930000003883558086927449228_">
							<use xlink:href="#SVGID_00000057109587986272788300000008454838274708476863_"  style="overflow:visible;"/>
						</clipPath>
						<path style="clip-path:url(#SVGID_00000167369115644572687930000003883558086927449228_);fill:#5A5B5C;" d="M190.1,85.1
							c-1.3,0-2-0.3-2-1c0-0.3,0.3-0.7,0.7-1h1h1.3c1,0,1.3,0.3,1.3,0.7C192.4,84.8,191.4,85.1,190.1,85.1 M190.1,80.2
							c-1,0-1.6-0.7-1.6-1.6c0-1,0.7-1.3,1.6-1.3c0.7,0,1.3,0.3,1.3,1.3S190.8,80.2,190.1,80.2 M190.1,86.1c2,0,3.3-1,3.3-2.3
							c0-1-0.7-1.6-2.3-1.6h-1.3c-1,0-1.3,0-1.3-0.7c0-0.3,0.3-0.3,0.3-0.7c0.3,0.3,0.7,0.3,1.3,0.3c1.3,0,2.3-1,2.3-2.6
							c0-0.7-0.3-1-0.7-1.3h1.6v-1H191h-1c-1.6,0-2.6,1-2.6,2.3c0,1,0.3,1.6,0.7,2c-0.3,0.3-0.7,0.7-0.7,1.3c0,0.7,0.3,1,0.7,1
							c-0.7,0.3-1,1-1,1.6C187.2,85.4,188.1,86.1,190.1,86.1"/>
					</g>
				</g>
			</g>
			<g>
				<g>
					<g>
						<defs>
							<rect id="SVGID_00000165932977427664230410000006654631596125788856_" x="-15.6" y="-8.6" width="100.9" height="76.6"/>
						</defs>
						<clipPath id="SVGID_00000124151735001750934520000012327374934978378907_">
							<use xlink:href="#SVGID_00000165932977427664230410000006654631596125788856_"  style="overflow:visible;"/>
						</clipPath>
						<g style="clip-path:url(#SVGID_00000124151735001750934520000012327374934978378907_);">
							<path class="st33" d="M53.3,12.2L53.3,12.2C53.1,11.9,53,11.5,53,11C52.9,11.5,53,11.9,53.3,12.2
								C53.2,12.2,53.3,12.2,53.3,12.2z"/>
							<path class="st33" d="M45.7,52.9c-0.7,0-1,0.3-1,1s0.3,1,1,1s1-0.3,1-1S46.4,52.9,45.7,52.9z"/>
							<polygon class="st33" points="8.9,19.1 9.9,24.8 10.6,24.8 9.9,19.1 							"/>
							<polygon class="st33" points="16.8,24.8 17.5,24.8 18.5,19.1 17.1,19.1 							"/>
							<path class="st33" d="M62.8,52.9c-0.7,0-1,0.3-1,1s0.3,1,1,1s1-0.3,1-1C63.7,53.2,63.4,52.9,62.8,52.9z"/>
							<path class="st4" d="M7.3,5.4C5.7,5.4,4,7.6,4,10.2v4.9l5.3,0.3v-1.6v-3.6C9.6,7.6,8.9,5.4,7.3,5.4z"/>
							<path class="st4" d="M47.7,33.2c-0.3,0.7-1,1.6-1.3,2.6h6.9h1.6h7.2c-0.7-1.3-1.3-2.6-2.3-3.3H48.3C48,33,48,33.2,47.7,33.2z
								"/>
							<path class="st4" d="M51.5,13.5c0.3,3.2,0.6,9-0.6,13.8c-0.3,0.3-0.3,0.7-0.3,1c0,0-0.7,2.6-2,3.9h10.8c0,0-2.5-8.8-0.8-19
								c0.6-1.1,0.7-2.4,0.2-3.6c-0.2-0.7-0.6-1.2-1.1-1.7c-1.1-1.1-2.6-1.3-3.9-0.8C51.3,6.4,47.1,5,42.9,2.5
								c-0.2-0.7-0.7-1.3-1.2-1.8c-1.6-1-3.3-1-4.6,0c-3,0.7-8.2,1.6-13.8,1c-1.2-0.5-2.5-0.3-3.5,0.5L17,2.1
								c-0.3,0-0.6-0.3-0.8-0.6c-0.1-0.9-0.4-1-0.9-1h-4.9c-0.7,0-1,0.3-1,1L9.1,14l7.2,0.3V8.8C16.5,8.5,16.8,8,17,8l1.8,0.3
								C19,8.6,19.3,8.8,19.6,9c1,0.7,2,0.7,3,0.3c0,0,7.5-1.9,13.8-1.5c0.4,0.4,0.9,0.7,1.7,0.8C38.2,8.6,46,10.4,51.5,13.5z
								 M54.2,9c1-0.7,2.6-0.3,3.3,1c0.7,1,0.3,2.6-1,3.3c-1,0.7-2.6,0.3-3.3-1l0,0c-0.2-0.4-0.4-0.8-0.3-1.2
								C53,10.2,53.4,9.4,54.2,9z M22.4,7.6c-1.3,0.3-2.3-0.7-2.6-2s0.7-2.6,2-2.6c1.3-0.3,2.6,0.7,2.6,2
								C24.7,6.4,23.7,7.4,22.4,7.6z M37.2,4.6c0-1.3,1-2.3,2.3-2.3s2.6,1,2.6,2.3s-1.3,2.3-2.6,2.3C38.2,7,37.2,6,37.2,4.6z"/>
							<path class="st4" d="M70.3,49H55.9v-9.2h8.5h0.3C65,39.5,65,39.5,65,39v-1v-1.6c0-0.3,0-0.7-0.3-0.7h-21
								c-0.3,0-0.7,0.3-0.7,0.7V39c0,0.3,0.3,0.7,0.7,0.7h8.9V49H37.8c-0.3,0-0.7,0.3-0.7,0.7v1c0,0.3,0.3,0.7,0.7,0.7h32.5
								c0.7,0,0.7-0.3,0.7-0.7v-1C71,49.3,71,49,70.3,49z"/>
							<path class="st4" d="M45.7,51.7c-1.3,0-2.3,1-2.3,2.3s1,2.3,2.3,2.3s2.3-1,2.3-2.3S47,51.7,45.7,51.7z M45.7,54.9
								c-0.7,0-1-0.3-1-1s0.3-1,1-1s1,0.3,1,1C46.7,54.6,46.4,54.9,45.7,54.9z"/>
							<path class="st4" d="M62.8,51.7c-1.3,0-2.3,1-2.3,2.3s1,2.3,2.3,2.3c1.3,0,2.3-1,2.3-2.3S64.1,51.7,62.8,51.7z M62.8,54.9
								c-0.7,0-1-0.3-1-1s0.3-1,1-1s1,0.3,1,1C63.7,54.6,63.4,54.9,62.8,54.9z"/>
							<path class="st4" d="M19.4,18.9L19.4,18.9l-3-3.6l0,0l0,0h-4.7L10.9,15l-3,3.6l0,0l1.3,6.9h0.7h0.7h1l-0.3-1l-0.7-5.9l0,0
								l0.9-0.9l4.4,0.3l0.9,1l-1,6.6h2.3L19.4,18.9L19.4,18.9L19.4,18.9L19.4,18.9z M9.9,24.8l-1-5.6h1l0.7,5.6H9.9z M17.5,24.8
								h-0.7l0.3-5.6h1.3L17.5,24.8z"/>
						</g>
					</g>
				</g>
			</g>
		</g>
	</g>
	<g id="Layer_6" class="st1">
		<path class="st4" d="M35.8,23.7L35.8,23.7L35.8,23.7z M45.9,25.8h-1C45.1,26.2,45.6,26.2,45.9,25.8 M45.4,22.3L45.4,22.3
			L45.4,22.3z M37.6,12.4c-0.2,0.1-0.5,0.2-0.7,0.4c-0.3,0.2-0.8,0.2-1.1-0.1L35,11.8L33.7,13l0.8,0.8c0.3,0.3,0.3,0.7,0.1,1
			c-0.1,0.2-0.3,0.5-0.4,0.7v0.1c-0.1,0.2-0.2,0.5-0.3,0.8c-0.1,0.4-0.4,0.7-0.8,0.7H32v1.8h1.1c0.4,0,0.7,0.3,0.8,0.7
			c0.1,0.3,0.2,0.6,0.3,0.8s0.2,0.5,0.4,0.7c0.2,0.3,0.2,0.8-0.1,1.1l-0.8,0.9l1.3,1.3l0.8-0.8c0.3-0.3,0.7-0.4,1.1-0.2
			c0.2,0.1,0.5,0.3,0.7,0.4l0,0c0.2,0.1,0.5,0.2,0.7,0.3c0.4,0.1,0.7,0.4,0.7,0.9v1.1h1.8v-1.1c0-0.4,0.3-0.7,0.6-0.8
			s0.5-0.2,0.8-0.3c0.2-0.1,0.5-0.2,0.7-0.4c0.3-0.2,0.8-0.2,1.1,0.1l0.8,0.8l1.3-1.3l-0.8-0.8c-0.3-0.3-0.4-0.7-0.2-1.1
			c0.1-0.3,0.3-0.5,0.4-0.8c0.1-0.3,0.2-0.5,0.3-0.8c0.1-0.4,0.4-0.7,0.8-0.7h1.1v-1.8h-1c-0.4,0-0.7-0.3-0.8-0.6
			c-0.1-0.3-0.2-0.6-0.3-0.8c-0.1-0.2-0.2-0.5-0.3-0.7c-0.2-0.3-0.2-0.8,0.1-1.1l0.8-0.8l-1.4-1.4L44,12.5c-0.3,0.3-0.7,0.3-1,0.1
			c-0.2-0.1-0.5-0.3-0.7-0.4h-0.1C42,12.1,41.7,12,41.5,12c-0.4-0.1-0.7-0.4-0.7-0.9V9.9H39v1.2l0,0c0,0.4-0.2,0.7-0.6,0.8
			C38.1,12,37.9,12.1,37.6,12.4L37.6,12.4z M36.5,10.9c0.1-0.1,0.3-0.1,0.4-0.2l0,0c0.1,0,0.2-0.1,0.4-0.1V9.8
			c0-0.4,0.2-0.8,0.5-1.1c0.3-0.3,0.7-0.5,1.1-0.5H41c0.4,0,0.8,0.2,1.1,0.5l0,0c0.3,0.3,0.5,0.7,0.5,1.1v0.7
			c0.1,0.1,0.3,0.1,0.4,0.2l0,0c0.1,0.1,0.2,0.1,0.4,0.2l0.5-0.5c0.3-0.3,0.7-0.5,1.1-0.5c0.4,0,0.8,0.2,1.1,0.5l0,0l1.4,1.5l0,0
			c0.3,0.3,0.4,0.7,0.4,1.1s-0.1,0.8-0.4,1.1L47,14.7c0.1,0.1,0.1,0.3,0.2,0.4c0.1,0.1,0.1,0.3,0.2,0.4h0.7c0.4,0,0.8,0.2,1.1,0.5
			s0.5,0.7,0.5,1.1v2.1c0,0.4-0.2,0.8-0.5,1.1l0,0c-0.5,0.3-0.8,0.5-1.3,0.5h-0.7c0,0.1-0.1,0.3-0.2,0.4c-0.1,0.1-0.1,0.3-0.2,0.4
			l0.4,0.5l0,0c0.3,0.3,0.4,0.7,0.4,1.1c0,0.4-0.1,0.8-0.4,1.1l-1.3,1.5l-0.1,0.1c-0.3,0.3-0.7,0.4-1,0.4c-0.4,0-0.8-0.2-1.1-0.5
			l0,0l-0.4-0.5c-0.1,0.1-0.3,0.1-0.4,0.2c-0.1,0.1-0.3,0.1-0.4,0.2v0.7c0,0.4-0.2,0.8-0.5,1.1S41.3,28,40.9,28h-2.1
			c-0.4,0-0.8-0.2-1.1-0.5s-0.4-0.7-0.4-1.1v-0.7c-0.1,0-0.3-0.1-0.4-0.2l0,0c-0.1-0.1-0.2-0.1-0.4-0.2l-0.4,0.5l0,0
			c-0.3,0.3-0.7,0.5-1.1,0.5c-0.4,0-0.8-0.2-1.1-0.5l0,0l-1.5-1.5C32.1,24,32,23.5,32,23.2c0-0.4,0.1-0.8,0.4-1.1l0.5-0.5
			c-0.1-0.1-0.1-0.3-0.2-0.4l0,0c0-0.1-0.1-0.3-0.2-0.4h-0.6c-0.4,0-0.8-0.2-1.1-0.5s-0.4-0.7-0.4-1.1V17c0-0.4,0.2-0.8,0.5-1.1l0,0
			c0.3-0.3,0.7-0.5,1.1-0.5h0.6c0-0.1,0.1-0.3,0.2-0.4v-0.1c0.1-0.1,0.1-0.2,0.2-0.4L32.5,14c-0.3-0.3-0.4-0.7-0.4-1.1
			s0.1-0.8,0.4-1.1l1.5-1.5c0.3-0.3,0.7-0.5,1.1-0.5c0.4,0,0.8,0.2,1.1,0.5L36.5,10.9z"/>
		<path class="st4" d="M41.8,16.1c-0.5-0.5-1.1-0.8-1.9-0.8c-0.7,0-1.4,0.3-1.8,0.8l0,0c-0.5,0.5-0.8,1.2-0.8,1.9s0.3,1.4,0.8,1.9
			c0.5,0.5,1.1,0.8,1.9,0.8c0.7,0,1.4-0.3,1.9-0.8l0,0c0.5-0.5,0.8-1.2,0.8-1.9C42.6,17.4,42.3,16.6,41.8,16.1 M39.9,13.6
			c1.2,0,2.3,0.5,3.1,1.3s1.3,1.9,1.3,3.1s-0.5,2.3-1.3,3.1s-1.9,1.3-3.1,1.3c-1.2,0-2.3-0.5-3.1-1.3s-1.3-1.9-1.3-3.1
			s0.5-2.3,1.3-3.1h0.1C37.7,14.1,38.8,13.6,39.9,13.6"/>
		<path class="st4" d="M36.7,40c0.3-0.3,0.9-0.3,1.2,0s0.3,0.9,0,1.2c-2.3,2.3-5,4.2-8.1,5.5l-0.1,0.1c-2.9,1.2-6.1,1.9-9.4,1.9
			c-0.5,0-0.8-0.4-0.8-0.9s0.4-0.9,0.8-0.9c3.1,0,6.1-0.6,8.8-1.8l0,0C32,43.8,34.5,42.2,36.7,40"/>
		<path class="st4" d="M20.3,46.8c0.5,0,0.8,0.4,0.8,0.9s-0.4,0.9-0.8,0.9h-2.2c-0.8,0-1.6-0.3-2.1-0.9l0,0
			c-0.5-0.6-0.9-1.3-0.9-2.2v-1.8c0-0.8,0.3-1.6,0.9-2.2l0,0c0.5-0.6,1.3-0.9,2.1-0.9h2.2c0.5,0,0.8,0.4,0.8,0.9s-0.4,0.9-0.8,0.9
			h-2.2c-0.4,0-0.7,0.2-0.9,0.4l0,0c-0.2,0.2-0.4,0.6-0.4,1v1.7c0,0.4,0.1,0.7,0.4,1c0.2,0.2,0.6,0.4,0.9,0.4h2.2V46.8z"/>
		<path class="st4" d="M16,40.2c-0.5,0-0.8-0.4-0.8-0.9s0.4-0.9,0.8-0.9c0.8,0,1.6,0.4,2.1,0.9l0,0c0.5,0.6,0.9,1.3,0.9,2.2
			c0,0.5-0.4,0.9-0.8,0.9c-0.5,0-0.8-0.4-0.8-0.9c0-0.4-0.2-0.7-0.4-1l0,0C16.7,40.3,16.3,40.2,16,40.2"/>
		<path class="st4" d="M12.7,34.7c-0.5,0-0.8-0.4-0.8-0.9s0.4-0.9,0.8-0.9c0.5,0,1.1,0.1,1.6,0.3l0,0c0.5,0.2,1,0.5,1.3,0.9l0.1,0.1
			c0.4,0.4,0.6,0.8,0.8,1.3s0.3,1,0.3,1.6v2.2c0,0.5-0.4,0.9-0.8,0.9c-0.5,0-0.9-0.4-0.9-0.9V37c0-0.3-0.1-0.7-0.2-0.9
			c-0.1-0.3-0.3-0.5-0.5-0.8l0,0c-0.2-0.2-0.5-0.4-0.8-0.5C13.3,34.7,13,34.7,12.7,34.7"/>
		<path class="st4" d="M13.4,34.2c-0.3,0.4-0.8,0.5-1.2,0.2c-0.4-0.3-0.5-0.8-0.2-1.2l2.7-3.9l1.4-2c0.3-0.4,0.8-0.5,1.2-0.2
			s0.5,0.8,0.2,1.2l-1.4,2L13.4,34.2z"/>
		<path class="st4" d="M17.3,17.2c-0.1,0.5-0.6,0.8-1,0.7c-0.5-0.1-0.7-0.6-0.6-1c0.4-1.9,1.1-3.8,2-5.5s2.1-3.3,3.5-4.7
			c1.9-2,4.2-3.5,6.6-4.5c2.4-1,5.1-1.6,7.8-1.6s5.3,0.5,7.8,1.6c2.4,1,4.7,2.6,6.6,4.5l0,0c0.4,0.5,0.9,0.9,1.3,1.5
			c0.4,0.5,0.8,1.1,1.2,1.6c1.5,2.3,2.6,4.9,3.1,7.6s0.5,5.5,0,8.3c-0.4,2-1.1,3.9-2,5.7s-2.1,3.4-3.5,4.9c-0.3,0.3-0.9,0.3-1.2,0
			s-0.3-0.9,0-1.2c1.3-1.3,2.4-2.8,3.2-4.5c0.9-1.6,1.5-3.4,1.9-5.2c0.5-2.5,0.5-5.1,0-7.6s-1.4-4.9-2.8-7c-0.3-0.5-0.7-1-1.1-1.5
			S49.3,8.5,48.9,8c-1.8-1.8-3.8-3.2-6.1-4.2c-2.2-0.9-4.7-1.4-7.2-1.4s-4.9,0.5-7.2,1.4c-2.2,0.9-4.3,2.4-6.1,4.2l0,0
			c-1.3,1.3-2.3,2.8-3.2,4.3C18.3,13.8,17.7,15.5,17.3,17.2"/>
		<path class="st4" d="M21.5,25c-0.4,0.2-0.9,0-1.1-0.5c-0.2-0.4,0-0.9,0.5-1.1c0.4-0.2,0.9-0.3,1.4-0.4c0.5-0.1,1-0.1,1.5-0.1
			s1,0.1,1.5,0.1c0.5,0.1,1,0.3,1.4,0.4c0.4,0.2,0.6,0.7,0.4,1.1C26.9,25,26.4,25.1,26,25c-0.4-0.2-0.7-0.3-1.1-0.3
			c-0.4-0.1-0.7-0.1-1.1-0.1c-0.4,0-0.8,0-1.1,0.1C22.2,24.8,21.9,24.8,21.5,25"/>
		<path class="st4" d="M48.8,35c0.3-0.3,0.9-0.3,1.2,0c0.3,0.3,0.3,0.9,0,1.2c-0.2,0.2-0.4,0.5-0.6,0.7c-0.2,0.2-0.4,0.5-0.6,0.7
			l0,0c-0.2,0.2-0.4,0.4-0.5,0.7c-0.2,0.2-0.4,0.5-0.5,0.7c-0.2,0.3-0.3,0.5-0.5,0.8l0,0c-0.1,0.2-0.3,0.5-0.4,0.8l0,0
			c-0.1,0.2-0.3,0.5-0.4,0.8l0,0c-0.1,0.3-0.2,0.5-0.4,0.8l0,0c-0.1,0.3-0.2,0.6-0.3,0.9l0,0c-0.1,0.3-0.2,0.6-0.3,0.9l0,0
			c-0.1,0.3-0.2,0.6-0.2,0.9V45c-0.1,0.3-0.1,0.6-0.2,0.9c-0.1,0.3-0.1,0.6-0.2,0.9c0,0.3-0.1,0.7-0.1,1l0,0c0,0.3-0.1,0.6-0.1,0.9
			l0,0c0,0.3,0,0.6,0,1s0,0.7,0,1s0,0.6,0.1,1c0,0.3,0.1,0.6,0.1,1c0.1,0.3,0.1,0.7,0.2,0.9l0.1,0.6l0,0l0.1,0.5
			c0.1,0.5-0.2,0.9-0.6,1c-0.4,0.1-0.9-0.2-1-0.6l-0.1-0.5v-0.1l-0.1-0.6l0,0l0,0c-0.1-0.4-0.1-0.7-0.2-1c0-0.3-0.1-0.7-0.1-1
			c0-0.4-0.1-0.7-0.1-1.1c0-0.4,0-0.7,0-1.1c0-0.3,0-0.7,0-1.1c0-0.4,0-0.7,0.1-1.1c0-0.4,0.1-0.7,0.1-1c0.1-0.3,0.1-0.7,0.2-1
			c0.1-0.3,0.1-0.6,0.2-0.9v-0.1c0.1-0.3,0.2-0.6,0.3-1l0,0c0.1-0.3,0.2-0.6,0.3-0.9v-0.1c0.1-0.3,0.2-0.6,0.4-0.9l0,0
			c0.1-0.3,0.2-0.6,0.4-0.9l0,0c0.1-0.3,0.3-0.6,0.4-0.9l0,0c0.1-0.3,0.3-0.5,0.5-0.8v-0.1c0.2-0.3,0.4-0.6,0.5-0.9
			c0.2-0.3,0.4-0.5,0.6-0.8c0.2-0.2,0.4-0.5,0.6-0.8l0,0c0.2-0.3,0.4-0.5,0.6-0.8C48.3,35.3,48.6,35.2,48.8,35"/>
		<path class="st4" d="M27.6,49.8c0-0.5,0.4-0.9,0.8-0.9c0.5,0,0.8,0.4,0.8,0.9c0,0.3-0.1,1-0.3,1.9c-0.1,0.8-0.3,1.8-0.4,2.4h11.4
			c0.5,0,0.8,0.4,0.8,0.9s-0.4,0.9-0.8,0.9H27.8c-0.6,0-0.9-0.4-0.9-1.2l0,0c0-0.7,0.3-2.1,0.5-3.3C27.5,50.5,27.6,50,27.6,49.8"/>
		<path class="st4" d="M15.9,17.5c-0.3-0.4-0.2-0.9,0.2-1.2c0.4-0.3,0.9-0.2,1.2,0.2c0.6,0.9,1.1,1.9,1.5,2.9c0.3,1,0.5,2.1,0.5,3.2
			c0,1-0.1,2-0.4,3c-0.3,1-0.7,1.9-1.3,2.7c-0.3,0.4-0.8,0.5-1.2,0.2s-0.5-0.8-0.2-1.2c0.5-0.7,0.8-1.5,1.1-2.3
			c0.2-0.8,0.4-1.6,0.4-2.5s-0.1-1.8-0.4-2.7C16.8,19.1,16.4,18.4,15.9,17.5"/>
	</g>
</g>
<g id="Layer_3_1_">
	<g>
		<path class="st34" d="M49.3,12.2L49.3,12.2C49.1,11.9,49,11.5,49,11C48.9,11.5,49,11.9,49.3,12.2C49.2,12.2,49.3,12.2,49.3,12.2z"
			/>
		<polygon class="st34" points="4.9,19.1 5.9,24.8 6.6,24.8 5.9,19.1 		"/>
		<polygon class="st34" points="12.8,24.8 13.5,24.8 14.5,19.1 13.1,19.1 		"/>
		<path class="st34" d="M3.3,5.4C1.7,5.4,0,7.6,0,10.2v4.9l5.3,0.3v-1.6v-3.6C5.6,7.6,4.9,5.4,3.3,5.4z"/>
		<path class="st34" d="M43.7,33.2c-0.3,0.7-1,1.6-1.3,2.6h6.9h1.6h7.2c-0.7-1.3-1.3-2.6-2.3-3.3H44.3C44,33,44,33.2,43.7,33.2z"/>
		<path class="st34" d="M47.8,19.1c0,2.6-0.2,5.6-0.9,8.2c-0.3,0.3-0.3,0.7-0.3,1c0,0-0.7,2.6-2,3.9h10.8c0,0-2.5-8.8-0.8-19
			c0.6-1.1,0.7-2.4,0.2-3.6c-0.2-0.7-0.6-1.2-1.1-1.7c-1.1-1.1-2.6-1.3-3.9-0.8C47.3,6.4,43.1,5,38.9,2.5c-0.2-0.7-0.7-1.3-1.2-1.8
			c-1.6-1-3.3-1-4.6,0c-3,0.7-8.2,1.6-13.8,1c-1.2-0.5-2.5-0.3-3.5,0.5L13,2.1c-0.3,0-0.6-0.3-0.8-0.6c-0.1-0.9-0.4-1-0.9-1H6.4
			c-0.7,0-1,0.3-1,1L5.1,14l7.2,0.3V8.8C12.5,8.5,12.8,8,13,8l1.8,0.3C15,8.6,15.3,8.8,15.6,9c1,0.7,2,0.7,3,0.3
			c0,0,7.5-1.9,13.8-1.5c0.4,0.4,0.9,0.7,1.7,0.8c0.1,0,7.9,1.7,13.4,4.9C47.6,15,47.8,17,47.8,19.1 M50.2,9c1-0.7,2.6-0.3,3.3,1
			c0.7,1,0.3,2.6-1,3.3c-1,0.7-2.6,0.3-3.3-1l0,0c-0.2-0.4-0.4-0.8-0.3-1.2C49,10.2,49.4,9.4,50.2,9z M18.4,7.6
			c-1.3,0.3-2.3-0.7-2.6-2c-0.3-1.3,0.7-2.6,2-2.6c1.3-0.3,2.6,0.7,2.6,2C20.7,6.4,19.7,7.4,18.4,7.6z M33.2,4.6
			c0-1.3,1-2.3,2.3-2.3s2.6,1,2.6,2.3s-1.3,2.3-2.6,2.3C34.2,7,33.2,6,33.2,4.6z"/>
		<path class="st34" d="M66.3,49H51.9v-9.2h8.5h0.3C61,39.5,61,39.5,61,39v-1v-1.6c0-0.3,0-0.7-0.3-0.7h-21c-0.3,0-0.7,0.3-0.7,0.7
			V39c0,0.3,0.3,0.7,0.7,0.7h8.9V49H33.8c-0.3,0-0.7,0.3-0.7,0.7v1c0,0.3,0.3,0.7,0.7,0.7h32.5c0.7,0,0.7-0.3,0.7-0.7v-1
			C67,49.3,67,49,66.3,49z"/>
		<path class="st34" d="M41.7,51.7c-1.3,0-2.3,1-2.3,2.3s1,2.3,2.3,2.3s2.3-1,2.3-2.3S43,51.7,41.7,51.7z M41.7,54.9
			c-0.7,0-1-0.3-1-1s0.3-1,1-1s1,0.3,1,1C42.7,54.6,42.4,54.9,41.7,54.9z"/>
		<path class="st34" d="M58.8,51.7c-1.3,0-2.3,1-2.3,2.3s1,2.3,2.3,2.3s2.3-1,2.3-2.3S60.1,51.7,58.8,51.7z M58.8,54.9
			c-0.7,0-1-0.3-1-1s0.3-1,1-1s1,0.3,1,1C59.7,54.6,59.4,54.9,58.8,54.9z"/>
		<path class="st34" d="M15.4,18.9L15.4,18.9l-3-3.6l0,0l0,0H7.7L6.9,15l-3,3.6l0,0l1.3,6.9h0.7h0.7h1l-0.3-1l-0.7-5.9l0,0l0.9-0.9
			l4.4,0.3l0.9,1l-1,6.6h2.3L15.4,18.9L15.4,18.9L15.4,18.9L15.4,18.9z M5.9,24.8l-1-5.6h1l0.7,5.6H5.9z M13.5,24.8h-0.7l0.3-5.6
			h1.3L13.5,24.8z"/>
	</g>
</g>
</svg>
