<?xml version="1.0" encoding="utf-8"?>
<!-- Generator: Adobe Illustrator 26.2.1, SVG Export Plug-In . SVG Version: 6.00 Build 0)  -->
<svg version="1.1" id="Layer_1" xmlns="http://www.w3.org/2000/svg" xmlns:xlink="http://www.w3.org/1999/xlink" x="0px" y="0px"
	 viewBox="0 0 51.8 52.6" style="enable-background:new 0 0 51.8 52.6;" xml:space="preserve">
<style type="text/css">
	.st0{display:none;}
	.st1{display:inline;fill:#010202;}
	.st2{fill:none;stroke:#0088CC;stroke-width:2;stroke-miterlimit:10;}
	.st3{display:inline;fill:#FFFFFF;}
	.st4{display:inline;}
	.st5{fill:#FFFFFF;}
	.st6{display:inline;fill:none;stroke:#FFFFFF;stroke-width:0.75;stroke-miterlimit:100;}
	.st7{fill:none;}
</style>
<g id="Layer_4" class="st0">
	<rect x="-22.8" y="-14.6" class="st1" width="98" height="83"/>
</g>
<g id="servis">
	<g>
		<path class="st2" d="M46.9,29.1v-5.6l3.6-1.5c-0.4-2.3-1.1-4.6-2.2-6.7l-3.8,0.9l-3.3-4.5l2-3.4c-1.7-1.6-3.6-3-5.7-4.1l-2.6,3
			l-5.3-1.7l-0.3-3.9c-2.4-0.3-4.7-0.3-7,0L22,5.5l-5.2,1.7l-2.6-3c-2.1,1.1-4,2.5-5.7,4.1l2,3.4l-3.3,4.5l-3.8-0.9
			c-0.5,1-0.9,2.1-1.3,3.3c-0.4,1.1-0.6,2.3-0.8,3.4l3.6,1.5v5.6l-3.6,1.5c0.4,2.3,1.1,4.6,2.2,6.7l3.8-0.9l3.3,4.5l-2,3.4
			c1.7,1.6,3.6,3,5.7,4.1l2.6-3l5.3,1.7l0.3,3.9c2.4,0.3,4.7,0.3,7,0l0.3-3.9l5.3-1.7l2.6,3c2.1-1.1,4-2.5,5.7-4.1l-2-3.4l3.3-4.5
			l3.8,0.9c0.5-1,0.9-2.1,1.3-3.3c0.4-1.1,0.6-2.3,0.8-3.4L46.9,29.1z M21.8,39.1c-7-2.3-10.9-9.9-8.6-16.9s9.8-10.9,16.9-8.6
			c7,2.3,10.9,9.8,8.6,16.9C36.4,37.5,28.8,41.3,21.8,39.1z"/>
		<path class="st2" d="M28.9,17.3c-5-1.6-10.4,1.1-12,6.1c-1.6,5,1.1,10.4,6.1,12s10.4-1.1,12-6.1S33.9,18.9,28.9,17.3z M24.7,30.1
			c-2.1-0.7-3.2-2.9-2.5-5s2.9-3.2,5-2.5s3.2,2.9,2.5,5C29,29.6,26.8,30.8,24.7,30.1z"/>
	</g>
</g>
<g id="Layer_2_1_" class="st0">
	<path class="st3" d="M58.4-1.5c0,1.2-0.4,2.2-1.3,3c-0.8,0.8-1.9,1.3-3.1,1.3s-2.2-0.4-3-1.3c-0.8-0.8-1.3-1.9-1.3-3
		c0-1.2,0.4-2.2,1.3-3c0.8-0.8,1.9-1.3,3-1.3c1.2,0,2.2,0.4,3.1,1.3C58-3.7,58.4-2.7,58.4-1.5z"/>
	<path class="st3" d="M23.3,17.8l-13-13c-1.7-1.7-4.5-1.7-6.2,0s-1.7,4.5,0,6.2l13,13c1.7,1.7,4.5,1.7,6.2,0S25,19.5,23.3,17.8z"/>
	<path class="st3" d="M10.3,48.4l13-13c1.7-1.7,1.7-4.5,0-6.2s-4.5-1.7-6.2,0l-13,13c-1.7,1.7-1.7,4.5,0,6.2
		C5.9,50.1,8.6,50.1,10.3,48.4z"/>
	<path class="st3" d="M28.7,35.4l13,13c1.7,1.7,4.5,1.7,6.2,0s1.7-4.5,0-6.2l-13-13c-1.7-1.7-4.5-1.7-6.2,0C27,31,27,33.7,28.7,35.4
		z"/>
	<path class="st3" d="M41.6,4.9l-13,13c-1.7,1.7-1.7,4.5,0,6.2s4.5,1.7,6.2,0l13-13c1.7-1.7,1.7-4.5,0-6.2
		C46.1,3.2,43.3,3.2,41.6,4.9z"/>
</g>
<g id="Layer_3" class="st0">
	<g id="Ellipse_1" class="st4">
		<g>
			<path class="st5" d="M16-4.5c2.5,0,4.5,2,4.5,4.5s-2,4.5-4.5,4.5s-4.5-2-4.5-4.5C11.4-2.5,13.5-4.5,16-4.5 M16-5.5
				c-3,0-5.5,2.5-5.5,5.5S13,5.5,16,5.5S21.5,3,21.5,0C21.5-3.1,19-5.5,16-5.5L16-5.5z"/>
		</g>
	</g>
	<g id="Ellipse_1_copy" class="st4">
		<g>
			<path class="st5" d="M38.6,39.3c2.5,0,4.5,2,4.5,4.5s-2,4.5-4.5,4.5s-4.5-2-4.5-4.5S36.1,39.3,38.6,39.3 M38.6,38.3
				c-3,0-5.5,2.5-5.5,5.5s2.5,5.5,5.5,5.5s5.5-2.5,5.5-5.5S41.7,38.3,38.6,38.3L38.6,38.3z"/>
		</g>
	</g>
	<path class="st3" d="M-8.4,31c-6.5,0.2-7.9,4-7.9,4v19.5c2.6,2.9,5.6,3.6,7.9,3.5c2.3,0,5.3-0.6,7.9-3.5V34.9
		C-0.4,34.9-1.9,31.2-8.4,31z"/>
	<line class="st6" x1="-9" y1="26.8" x2="-9" y2="23.3"/>
	<line class="st6" x1="-9" y1="19.5" x2="-9" y2="15.9"/>
	<line class="st6" x1="-9.2" y1="12" x2="-9" y2="8.7"/>
	<line class="st6" x1="-7.4" y1="4.8" x2="-4.7" y2="2.1"/>
	<line class="st6" x1="-1.6" y1="-0.1" x2="2" y2="-1.5"/>
	<line class="st6" x1="4.9" y1="-2.1" x2="8.5" y2="-2.3"/>
	<line class="st6" x1="15" y1="7.9" x2="15" y2="9.9"/>
	<line class="st6" x1="15.7" y1="13.3" x2="18.3" y2="16.4"/>
	<line class="st6" x1="21.7" y1="18.7" x2="25.7" y2="19.7"/>
	<line class="st6" x1="30.1" y1="20" x2="33.7" y2="22.7"/>
	<line class="st6" x1="36.2" y1="25" x2="38.5" y2="29.3"/>
	<line class="st6" x1="38.9" y1="33.6" x2="39.1" y2="35.6"/>
	<line class="st6" x1="45.9" y1="43.9" x2="49.9" y2="43.8"/>
	<line class="st6" x1="54" y1="43.4" x2="57.9" y2="43.4"/>
	<polyline class="st3" points="60.6,38.3 60.6,40.8 60.6,43.4 60.6,45.9 60.6,48.5 62.5,47.3 64.3,46.1 66.1,44.9 68,43.7 	"/>
</g>
<g id="Layer_5" class="st0">
	<g class="st4">
		<path class="st7" d="M41.3,10.2L41.3,10.2C41.1,9.8,41,9.4,41,9C40.9,9.4,41,9.8,41.3,10.2L41.3,10.2z"/>
		<path class="st7" d="M33.7,51.3c-0.7,0-1,0.3-1,1s0.3,1,1,1s1-0.3,1-1C34.6,51.7,34.3,51.3,33.7,51.3z"/>
		<polygon class="st7" points="-3.5,17.2 -2.5,22.8 -1.8,22.8 -2.5,17.2 		"/>
		<polygon class="st7" points="4.5,22.8 5.1,22.8 6.1,17.2 4.8,17.2 		"/>
		<path class="st7" d="M50.9,51.3c-0.7,0-1,0.3-1,1s0.3,1,1,1s1-0.3,1-1C51.9,51.7,51.6,51.3,50.9,51.3z"/>
		<path class="st5" d="M-5.2,3.2c-1.7,0-3.3,2.3-3.3,5v5l5.3,0.3v-1.7V8.2C-2.8,5.6-3.5,3.2-5.2,3.2z"/>
		<path class="st5" d="M35.6,31.4c-0.3,0.7-1,1.7-1.3,2.7h7H43h7.2c-0.7-1.3-1.3-2.7-2.3-3.3H36.3C36,31.1,36,31.4,35.6,31.4z"/>
		<path class="st5" d="M39.5,11.5c0.3,3.2,0.6,9.1-0.6,13.9c-0.3,0.3-0.3,0.7-0.3,1c0,0-0.7,2.7-2,4h10.9c0,0-2.5-8.9-0.8-19.2
			c0.6-1.1,0.7-2.4,0.2-3.6c-0.2-0.7-0.6-1.3-1.1-1.7c-1.1-1.1-2.7-1.3-4-0.8C39.3,4.4,35,3,30.8,0.4c-0.2-0.7-0.7-1.3-1.3-1.8
			c-1.7-1-3.3-1-4.6,0c-3,0.7-8.3,1.7-13.9,1C9.8-0.9,8.5-0.7,7.5,0.1L4.7,0C4.4,0,4.1-0.4,3.9-0.6C3.8-1.5,3.5-1.7,3-1.7h-5
			c-0.7,0-1,0.3-1,1l-0.3,12.6L4,12.2V6.6c0.2-0.3,0.5-0.7,0.7-0.7l1.8,0.3C6.7,6.5,7,6.7,7.3,6.9c1,0.7,2,0.7,3,0.3
			c0,0,7.6-1.9,13.9-1.5c0.4,0.4,1,0.7,1.7,0.9C26,6.6,33.9,8.3,39.5,11.5z M42.3,6.9c1-0.7,2.7-0.3,3.3,1c0.7,1,0.3,2.7-1,3.3
			c-1,0.7-2.6,0.3-3.3-1l0,0C41,9.8,40.9,9.4,41,9C41,8.2,41.4,7.3,42.3,6.9z M10.1,5.6c-1.3,0.3-2.3-0.7-2.7-2
			c-0.3-1.3,0.7-2.7,2-2.7c1.3-0.3,2.7,0.7,2.7,2C12.4,4.2,11.4,5.2,10.1,5.6z M25,2.6c0-1.3,1-2.3,2.3-2.3s2.7,1,2.7,2.3
			c0,1.3-1.3,2.3-2.7,2.3C26,4.9,25,3.9,25,2.6z"/>
		<path class="st5" d="M58.5,47.4H43.9v-9.3h8.6h0.3c0.3-0.3,0.3-0.3,0.3-0.7v-1v-1.7c0-0.3,0-0.7-0.3-0.7H31.7
			c-0.3,0-0.7,0.3-0.7,0.7v2.7c0,0.3,0.3,0.7,0.7,0.7h9v9.3h-15c-0.3,0-0.7,0.3-0.7,0.7v1c0,0.3,0.3,0.7,0.7,0.7h32.8
			c0.7,0,0.7-0.3,0.7-0.7v-1C59.2,47.7,59.2,47.4,58.5,47.4z"/>
		<path class="st5" d="M33.7,50c-1.3,0-2.3,1-2.3,2.3s1,2.3,2.3,2.3s2.3-1,2.3-2.3S35,50,33.7,50z M33.7,53.3c-0.7,0-1-0.3-1-1
			s0.3-1,1-1s1,0.3,1,1C34.6,53,34.3,53.3,33.7,53.3z"/>
		<path class="st5" d="M50.9,50c-1.3,0-2.3,1-2.3,2.3s1,2.3,2.3,2.3s2.3-1,2.3-2.3S52.2,50,50.9,50z M50.9,53.3c-0.7,0-1-0.3-1-1
			s0.3-1,1-1s1,0.3,1,1C51.9,53,51.6,53.3,50.9,53.3z"/>
		<path class="st5" d="M7.1,16.8L7.1,16.8l-3-3.6l0,0l0,0h-4.9l-0.8-0.3l-3,3.6l0,0l1.3,7h0.7h0.8h1l-0.3-1l-0.7-6l0,0l1-1l4.4,0.3
			l0.9,1l-1,6.6h2.3L7.1,16.8L7.1,16.8L7.1,16.8L7.1,16.8z M-2.5,22.8l-1-5.6h1l0.7,5.6H-2.5z M5.1,22.8H4.4l0.3-5.6H6L5.1,22.8z"/>
	</g>
</g>
<g id="Layer_6" class="st0">
	<path class="st3" d="M27.3,21.1L27.3,21.1L27.3,21.1z M37.4,23.3h-1C36.6,23.6,37.1,23.6,37.4,23.3 M36.9,19.8L36.9,19.8L36.9,19.8
		z M29.1,9.8c-0.2,0.1-0.5,0.2-0.7,0.4c-0.3,0.2-0.8,0.2-1.1-0.1l-0.8-0.9l-1.3,1.3l0.8,0.8c0.3,0.3,0.3,0.7,0.1,1
		c-0.1,0.2-0.3,0.5-0.4,0.7v0.1c-0.1,0.2-0.2,0.5-0.3,0.8c-0.1,0.4-0.4,0.7-0.8,0.7h-1.1v1.8h1.1c0.4,0,0.7,0.3,0.8,0.7
		c0.1,0.3,0.2,0.6,0.3,0.8s0.2,0.5,0.4,0.7c0.2,0.3,0.2,0.8-0.1,1.1l-0.8,0.9l1.3,1.3l0.8-0.8c0.3-0.3,0.7-0.4,1.1-0.2
		c0.2,0.1,0.5,0.3,0.7,0.4l0,0c0.2,0.1,0.5,0.2,0.7,0.3c0.4,0.1,0.7,0.4,0.7,0.9v1.1h1.8v-1.1c0-0.4,0.3-0.7,0.6-0.8
		s0.5-0.2,0.8-0.3c0.2-0.1,0.5-0.2,0.7-0.4c0.3-0.2,0.8-0.2,1.1,0.1l0.8,0.8l1.3-1.3l-0.8-0.8c-0.3-0.3-0.4-0.7-0.2-1.1
		c0.1-0.3,0.3-0.5,0.4-0.8c0.1-0.3,0.2-0.5,0.3-0.8c0.1-0.4,0.4-0.7,0.8-0.7h1.1v-1.8h-1c-0.4,0-0.7-0.3-0.8-0.6
		c-0.1-0.3-0.2-0.6-0.3-0.8c-0.1-0.2-0.2-0.5-0.3-0.7c-0.2-0.3-0.2-0.8,0.1-1.1l0.8-0.8l-1.4-1.4L35.5,10c-0.3,0.3-0.7,0.3-1,0.1
		C34.3,10,34,9.8,33.8,9.7h-0.1c-0.2-0.1-0.5-0.2-0.7-0.3c-0.4-0.1-0.7-0.4-0.7-0.9V7.3h-1.8v1.2l0,0c0,0.4-0.2,0.7-0.6,0.8
		C29.6,9.5,29.4,9.6,29.1,9.8L29.1,9.8z M28,8.3c0.1-0.1,0.3-0.1,0.4-0.2l0,0c0.1,0,0.2-0.1,0.4-0.1V7.3c0-0.4,0.2-0.8,0.5-1.1
		c0.3-0.3,0.7-0.5,1.1-0.5h2.1c0.4,0,0.8,0.2,1.1,0.5l0,0c0.3,0.3,0.5,0.7,0.5,1.1V8c0.1,0.1,0.3,0.1,0.4,0.2l0,0
		c0.1,0.1,0.2,0.1,0.4,0.2l0.5-0.5c0.3-0.3,0.7-0.5,1.1-0.5c0.4,0,0.8,0.2,1.1,0.5l0,0L39,9.4l0,0c0.3,0.3,0.4,0.7,0.4,1.1
		s-0.1,0.8-0.4,1.1l-0.5,0.5c0.1,0.1,0.1,0.3,0.2,0.4c0.1,0.1,0.1,0.3,0.2,0.4h0.7c0.4,0,0.8,0.2,1.1,0.5s0.5,0.7,0.5,1.1v2.1
		c0,0.4-0.2,0.8-0.5,1.1l0,0c-0.5,0.3-0.8,0.5-1.3,0.5h-0.7c0,0.1-0.1,0.3-0.2,0.4c-0.1,0.1-0.1,0.3-0.2,0.4l0.4,0.5l0,0
		c0.3,0.3,0.4,0.7,0.4,1.1c0,0.4-0.1,0.8-0.4,1.1l-1.3,1.5l-0.1,0.1c-0.3,0.3-0.7,0.4-1,0.4c-0.4,0-0.8-0.2-1.1-0.5l0,0l-0.4-0.5
		c-0.1,0.1-0.3,0.1-0.4,0.2C34.3,23,34.1,23,34,23.1v0.7c0,0.4-0.2,0.8-0.5,1.1s-0.7,0.5-1.1,0.5h-2.1c-0.4,0-0.8-0.2-1.1-0.5
		s-0.4-0.7-0.4-1.1v-0.7c-0.1,0-0.3-0.1-0.4-0.2l0,0c-0.1-0.1-0.2-0.1-0.4-0.2l-0.4,0.5l0,0c-0.3,0.3-0.7,0.5-1.1,0.5
		c-0.4,0-0.8-0.2-1.1-0.5l0,0l-1.5-1.5c-0.3-0.3-0.4-0.7-0.4-1.1c0-0.4,0.1-0.8,0.4-1.1l0.5-0.5c-0.1-0.1-0.1-0.3-0.2-0.4l0,0
		c0-0.1-0.1-0.3-0.2-0.4h-0.6c-0.4,0-0.8-0.2-1.1-0.5s-0.4-0.7-0.4-1.1v-2.1c0-0.4,0.2-0.8,0.5-1.1l0,0c0.3-0.3,0.7-0.5,1.1-0.5h0.6
		c0-0.1,0.1-0.3,0.2-0.4v-0.1c0.1-0.1,0.1-0.2,0.2-0.4L24,11.5c-0.3-0.3-0.4-0.7-0.4-1.1s0.1-0.8,0.4-1.1l1.5-1.5
		c0.3-0.3,0.7-0.5,1.1-0.5c0.4,0,0.8,0.2,1.1,0.5L28,8.3z"/>
	<path class="st3" d="M33.3,13.6c-0.5-0.5-1.1-0.8-1.9-0.8c-0.7,0-1.4,0.3-1.8,0.8l0,0c-0.5,0.5-0.8,1.2-0.8,1.9
		c0,0.7,0.3,1.4,0.8,1.9c0.5,0.5,1.1,0.8,1.9,0.8c0.7,0,1.4-0.3,1.9-0.8l0,0c0.5-0.5,0.8-1.2,0.8-1.9C34.1,14.8,33.8,14.1,33.3,13.6
		 M31.4,11.1c1.2,0,2.3,0.5,3.1,1.3s1.3,1.9,1.3,3.1s-0.5,2.3-1.3,3.1s-1.9,1.3-3.1,1.3c-1.2,0-2.3-0.5-3.1-1.3S27,16.7,27,15.5
		s0.5-2.3,1.3-3.1h0.1C29.2,11.6,30.3,11.1,31.4,11.1"/>
	<path class="st3" d="M28.2,37.4c0.3-0.3,0.9-0.3,1.2,0s0.3,0.9,0,1.2c-2.3,2.3-5,4.2-8.1,5.5l-0.1,0.1c-2.9,1.2-6.1,1.9-9.4,1.9
		c-0.5,0-0.8-0.4-0.8-0.9s0.4-0.9,0.8-0.9c3.1,0,6.1-0.6,8.8-1.8l0,0C23.5,41.3,26,39.6,28.2,37.4"/>
	<path class="st3" d="M11.8,44.3c0.5,0,0.8,0.4,0.8,0.9s-0.4,0.9-0.8,0.9H9.6c-0.8,0-1.6-0.3-2.1-0.9l0,0C7,44.6,6.6,43.9,6.6,43
		v-1.8c0-0.8,0.3-1.6,0.9-2.2l0,0c0.5-0.6,1.3-0.9,2.1-0.9h2.2c0.5,0,0.8,0.4,0.8,0.9s-0.4,0.9-0.8,0.9H9.6c-0.4,0-0.7,0.2-0.9,0.4
		l0,0c-0.2,0.2-0.4,0.6-0.4,1V43c0,0.4,0.1,0.7,0.4,1c0.2,0.2,0.6,0.4,0.9,0.4h2.2V44.3z"/>
	<path class="st3" d="M7.5,37.6c-0.5,0-0.8-0.4-0.8-0.9s0.4-0.9,0.8-0.9c0.8,0,1.6,0.4,2.1,0.9l0,0c0.5,0.6,0.9,1.3,0.9,2.2
		c0,0.5-0.4,0.9-0.8,0.9c-0.5,0-0.8-0.4-0.8-0.9c0-0.4-0.2-0.7-0.4-1l0,0C8.2,37.8,7.8,37.6,7.5,37.6"/>
	<path class="st3" d="M4.2,32.1c-0.5,0-0.8-0.4-0.8-0.9s0.4-0.9,0.8-0.9c0.5,0,1.1,0.1,1.6,0.3l0,0c0.5,0.2,1,0.5,1.3,0.9l0.1,0.1
		C7.6,32,7.8,32.4,8,32.9c0.2,0.5,0.3,1,0.3,1.6v2.2c0,0.5-0.4,0.9-0.8,0.9c-0.5,0-0.9-0.4-0.9-0.9v-2.2c0-0.3-0.1-0.7-0.2-0.9
		c-0.1-0.3-0.3-0.5-0.5-0.8l0,0c-0.2-0.2-0.5-0.4-0.8-0.5C4.8,32.1,4.5,32.1,4.2,32.1"/>
	<path class="st3" d="M4.9,31.7c-0.3,0.4-0.8,0.5-1.2,0.2c-0.4-0.3-0.5-0.8-0.2-1.2l2.7-3.9l1.4-2c0.3-0.4,0.8-0.5,1.2-0.2
		c0.4,0.3,0.5,0.8,0.2,1.2l-1.4,2L4.9,31.7z"/>
	<path class="st3" d="M8.8,14.7c-0.1,0.5-0.6,0.8-1,0.7c-0.5-0.1-0.7-0.6-0.6-1c0.4-1.9,1.1-3.8,2-5.5c0.9-1.7,2.1-3.3,3.5-4.7
		c1.9-2,4.2-3.5,6.6-4.5c2.4-1,5.1-1.6,7.8-1.6s5.3,0.5,7.8,1.6c2.4,1,4.7,2.6,6.6,4.5l0,0c0.4,0.5,0.9,0.9,1.3,1.5
		c0.4,0.5,0.8,1.1,1.2,1.6c1.5,2.3,2.6,4.9,3.1,7.6s0.5,5.5,0,8.3c-0.4,2-1.1,3.9-2,5.7s-2.1,3.4-3.5,4.9c-0.3,0.3-0.9,0.3-1.2,0
		s-0.3-0.9,0-1.2c1.3-1.3,2.4-2.8,3.2-4.5c0.9-1.6,1.5-3.4,1.9-5.2c0.5-2.5,0.5-5.1,0-7.6s-1.4-4.9-2.8-7c-0.3-0.5-0.7-1-1.1-1.5
		s-0.8-0.9-1.2-1.4c-1.8-1.8-3.8-3.2-6.1-4.2c-2.2-0.9-4.7-1.4-7.2-1.4s-4.9,0.5-7.2,1.4c-2.2,0.9-4.3,2.4-6.1,4.2l0,0
		c-1.3,1.3-2.3,2.8-3.2,4.3C9.8,11.2,9.2,12.9,8.8,14.7"/>
	<path class="st3" d="M13,22.5c-0.4,0.2-0.9,0-1.1-0.5c-0.2-0.4,0-0.9,0.5-1.1c0.4-0.2,0.9-0.3,1.4-0.4c0.5-0.1,1-0.1,1.5-0.1
		s1,0.1,1.5,0.1c0.5,0.1,1,0.3,1.4,0.4c0.4,0.2,0.6,0.7,0.4,1.1c-0.2,0.4-0.7,0.6-1.1,0.5c-0.4-0.2-0.7-0.3-1.1-0.3
		c-0.4-0.1-0.7-0.1-1.1-0.1c-0.4,0-0.8,0-1.1,0.1C13.7,22.2,13.4,22.3,13,22.5"/>
	<path class="st3" d="M40.3,32.4c0.3-0.3,0.9-0.3,1.2,0c0.3,0.3,0.3,0.9,0,1.2c-0.2,0.2-0.4,0.5-0.6,0.7c-0.2,0.2-0.4,0.5-0.6,0.7
		l0,0c-0.2,0.2-0.4,0.4-0.5,0.7c-0.2,0.2-0.4,0.5-0.5,0.7c-0.2,0.3-0.3,0.5-0.5,0.8l0,0c-0.1,0.2-0.3,0.5-0.4,0.8l0,0
		c-0.1,0.2-0.3,0.5-0.4,0.8l0,0c-0.1,0.3-0.2,0.5-0.4,0.8l0,0c-0.1,0.3-0.2,0.6-0.3,0.9l0,0c-0.1,0.3-0.2,0.6-0.3,0.9l0,0
		c-0.1,0.3-0.2,0.6-0.2,0.9v0.1c-0.1,0.3-0.1,0.6-0.2,0.9c-0.1,0.3-0.1,0.6-0.2,0.9c0,0.3-0.1,0.7-0.1,1l0,0c0,0.3-0.1,0.6-0.1,0.9
		l0,0c0,0.3,0,0.6,0,1s0,0.7,0,1s0,0.6,0.1,1c0,0.3,0.1,0.6,0.1,1c0.1,0.3,0.1,0.7,0.2,0.9l0.1,0.6l0,0l0.1,0.5
		c0.1,0.5-0.2,0.9-0.6,1c-0.4,0.1-0.9-0.2-1-0.6L35.1,52v-0.1L35,51.3l0,0l0,0c-0.1-0.4-0.1-0.7-0.2-1c0-0.3-0.1-0.7-0.1-1
		c0-0.4-0.1-0.7-0.1-1.1c0-0.4,0-0.7,0-1.1c0-0.3,0-0.7,0-1.1c0-0.4,0-0.7,0.1-1.1c0-0.4,0.1-0.7,0.1-1c0.1-0.3,0.1-0.7,0.2-1
		c0.1-0.3,0.1-0.6,0.2-0.9v-0.1c0.1-0.3,0.2-0.6,0.3-1l0,0c0.1-0.3,0.2-0.6,0.3-0.9v-0.1c0.1-0.3,0.2-0.6,0.4-0.9l0,0
		c0.1-0.3,0.2-0.6,0.4-0.9l0,0c0.1-0.3,0.3-0.6,0.4-0.9l0,0c0.1-0.3,0.3-0.5,0.5-0.8v-0.1c0.2-0.3,0.4-0.6,0.5-0.9
		c0.2-0.3,0.4-0.5,0.6-0.8c0.2-0.2,0.4-0.5,0.6-0.8l0,0c0.2-0.3,0.4-0.5,0.6-0.8C39.8,32.8,40.1,32.6,40.3,32.4"/>
	<path class="st3" d="M19.1,47.2c0-0.5,0.4-0.9,0.8-0.9c0.5,0,0.8,0.4,0.8,0.9c0,0.3-0.1,1-0.3,1.9c-0.1,0.8-0.3,1.8-0.4,2.4h11.4
		c0.5,0,0.8,0.4,0.8,0.9s-0.4,0.9-0.8,0.9H19.3c-0.6,0-0.9-0.4-0.9-1.2l0,0c0-0.7,0.3-2.1,0.5-3.3C19,48,19.1,47.4,19.1,47.2"/>
	<path class="st3" d="M7.4,15c-0.3-0.4-0.2-0.9,0.2-1.2C8,13.5,8.5,13.6,8.8,14c0.6,0.9,1.1,1.9,1.5,2.9c0.3,1,0.5,2.1,0.5,3.2
		c0,1-0.1,2-0.4,3c-0.3,1-0.7,1.9-1.3,2.7c-0.3,0.4-0.8,0.5-1.2,0.2c-0.4-0.3-0.5-0.8-0.2-1.2c0.5-0.7,0.8-1.5,1.1-2.3
		C9,21.7,9.2,20.9,9.2,20s-0.1-1.8-0.4-2.7C8.3,16.6,7.9,15.8,7.4,15"/>
</g>
</svg>
