<?xml version="1.0" encoding="utf-8"?>
<!-- Generator: Adobe Illustrator 26.2.1, SVG Export Plug-In . SVG Version: 6.00 Build 0)  -->
<svg version="1.1" id="Layer_1" xmlns="http://www.w3.org/2000/svg" xmlns:xlink="http://www.w3.org/1999/xlink" x="0px" y="0px"
	 viewBox="0 0 272 78" style="enable-background:new 0 0 272 78;" xml:space="preserve">
<style type="text/css">
	.st0{fill:#FFFFFF;}
</style>
<path class="st0" d="M146.9,68.9c0.8,0,1.5,0.3,2.1,0.8c0.5,0.5,0.8,1.2,0.8,2.1c0,0.8-0.3,1.5-0.8,2.1c-2.9,2.5-6.3,3.8-10.2,3.8
	c-4.3,0-8-1.5-11.1-4.6s-4.6-6.7-4.6-11.1s1.5-8,4.6-11.1s6.7-4.6,11.1-4.6c4.3,0,8,1.5,11.1,4.6c1.5,1.5,2.7,3.2,3.4,5
	c0.8,1.9,1.1,3.9,1.1,6c0,0.8-0.3,1.5-0.9,2.1c-0.6,0.5-1.3,0.8-2.1,0.8h-22.1c0.3,1,0.8,2,1.4,2.8c0.6,0.8,1.3,1.6,2.2,2.2
	c0.8,0.6,1.7,1.1,2.7,1.4s2,0.5,3.1,0.5c1.2,0,2.4-0.2,3.4-0.6s2-0.9,2.8-1.7C145.5,69.2,146.1,69,146.9,68.9z M148.1,59.2
	c-0.3-1-0.8-2-1.4-2.8c-0.6-0.8-1.3-1.6-2.2-2.2c-0.8-0.6-1.7-1.1-2.7-1.4c-1-0.3-2-0.5-3.1-0.5s-2.1,0.2-3.1,0.5s-1.9,0.8-2.8,1.4
	c-0.8,0.6-1.6,1.3-2.2,2.2c-0.6,0.8-1.1,1.8-1.4,2.8H148.1z"/>
<path class="st0" d="M166.7,62.1l-9-10.8c-0.4-0.5-0.7-1.1-0.7-1.9c0-0.4,0.1-0.8,0.2-1.1c0.1-0.4,0.4-0.7,0.6-0.9
	c0.3-0.3,0.6-0.5,0.9-0.6c0.4-0.1,0.7-0.2,1.1-0.2c0.9,0,1.6,0.3,2.2,0.9l8.4,10.1l8.4-10.1c0.6-0.6,1.3-0.9,2.2-0.9
	c0.4,0,0.8,0.1,1.1,0.2c0.4,0.1,0.7,0.4,0.9,0.6c0.3,0.3,0.5,0.6,0.6,0.9c0.2,0.4,0.2,0.7,0.2,1.1c0,0.7-0.2,1.4-0.7,1.9l-9,10.8
	l9.1,10.9c0.4,0.5,0.6,1.1,0.6,1.8c0,0.4-0.1,0.8-0.2,1.1c-0.2,0.4-0.4,0.7-0.6,0.9c-0.3,0.3-0.6,0.5-0.9,0.6
	c-0.4,0.1-0.7,0.2-1.1,0.2c-0.8,0-1.5-0.3-2.1-0.9l-8.5-10.2L162,76.8c-0.6,0.6-1.2,0.9-2.1,0.9c-0.4,0-0.8-0.1-1.1-0.2
	c-0.4-0.1-0.7-0.4-0.9-0.6c-0.3-0.3-0.5-0.6-0.6-0.9c-0.2-0.4-0.2-0.7-0.2-1.1c0-0.7,0.2-1.3,0.6-1.8L166.7,62.1z"/>
<path class="st0" d="M196.2,38c0,0.9-0.3,1.8-1,2.4c-0.7,0.7-1.5,1-2.4,1s-1.8-0.3-2.4-1c-0.7-0.7-1-1.5-1-2.4s0.3-1.8,1-2.4
	c0.7-0.7,1.5-1,2.4-1s1.8,0.3,2.4,1C195.9,36.2,196.2,37,196.2,38z"/>
<path class="st0" d="M189.9,74.8V49.4c0-0.8,0.3-1.5,0.9-2.1c0.6-0.6,1.3-0.9,2.1-0.9s1.5,0.3,2.1,0.9c0.6,0.6,0.9,1.3,0.9,2.1v25.4
	c0,0.8-0.3,1.5-0.9,2.1c-0.6,0.6-1.3,0.9-2.1,0.9s-1.5-0.3-2.1-0.9C190.2,76.3,189.9,75.6,189.9,74.8z"/>
<path class="st0" d="M216.5,46.5c3.7,0,7,1.1,9.8,3.4V36c0-0.8,0.3-1.5,0.8-2.1c0.6-0.5,1.2-0.8,2.1-0.8c0.8,0,1.5,0.3,2.1,0.8
	c0.6,0.6,0.9,1.2,0.9,2.1v26.1c0,4.4-1.5,8-4.6,11.1s-6.8,4.6-11.1,4.6s-8-1.5-11.1-4.6s-4.6-6.7-4.6-11.1c0-4.3,1.5-8,4.6-11.1
	C208.5,48,212.2,46.5,216.5,46.5z M226.3,62.1c0-1.3-0.3-2.6-0.8-3.8s-1.2-2.2-2.1-3.1c-0.9-0.9-1.9-1.6-3.1-2.1
	c-1.2-0.5-2.5-0.8-3.8-0.8c-1.4,0-2.7,0.3-3.9,0.8s-2.2,1.2-3.1,2.1c-0.9,0.9-1.6,1.9-2.1,3.1c-0.5,1.2-0.8,2.5-0.8,3.8
	s0.3,2.6,0.8,3.8c0.5,1.2,1.2,2.2,2.1,3.1c0.9,0.9,1.9,1.6,3.1,2.1c1.2,0.5,2.5,0.8,3.9,0.8s2.6-0.3,3.8-0.8s2.2-1.2,3.1-2.1
	c0.9-0.9,1.6-1.9,2.1-3.1C226.1,64.7,226.3,63.4,226.3,62.1z"/>
<path class="st0" d="M267.9,62.1c0,4.4-1.5,8-4.6,11.1s-6.8,4.6-11.1,4.6c-4.3,0-8-1.5-11.1-4.6s-4.6-6.7-4.6-11.1
	c0-4.3,1.5-8,4.6-11.1s6.7-4.6,11.1-4.6c4.3,0,8,1.5,11.1,4.6c1.5,1.5,2.7,3.2,3.4,5.1C267.5,57.9,267.9,59.9,267.9,62.1z
	 M252.3,52.3c-1.4,0-2.7,0.3-3.9,0.8s-2.2,1.2-3.1,2.1c-0.9,0.9-1.6,1.9-2.1,3.1c-0.5,1.2-0.8,2.5-0.8,3.8s0.3,2.6,0.8,3.8
	s1.2,2.2,2.1,3.1c0.9,0.9,1.9,1.6,3.1,2.1c1.2,0.5,2.5,0.8,3.9,0.8s2.6-0.3,3.8-0.8c1.2-0.5,2.2-1.2,3.1-2.1s1.6-1.9,2.1-3.1
	s0.8-2.4,0.8-3.8c0-1.3-0.3-2.6-0.8-3.8s-1.2-2.2-2.1-3.1c-0.9-0.9-1.9-1.6-3.1-2.1S253.6,52.3,252.3,52.3z"/>
<path class="st0" d="M99.1,38.9c0.8,0,1.5-0.3,2.1-0.9c0.6-0.6,0.9-1.3,0.9-2.1s-0.3-1.5-0.9-2.1s-1.3-0.9-2.1-0.9
	c-9,0-13.5,4.5-13.5,13.5V48v5.8v20.9c0,0.4,0.1,0.8,0.2,1.1c0.1,0.4,0.4,0.7,0.6,0.9c0.3,0.3,0.6,0.5,0.9,0.6s0.7,0.2,1.1,0.2
	s0.8-0.1,1.1-0.2c0.4-0.1,0.7-0.4,0.9-0.6c0.3-0.3,0.5-0.6,0.6-0.9c0.1-0.4,0.2-0.7,0.2-1.1V53.9H97c0.8,0,1.5-0.3,2.1-0.8
	c0.6-0.6,0.9-1.3,0.9-2.1s-0.3-1.5-0.9-2.1C98.5,48.3,97.8,48,97,48h-5.6v-1.5C91.4,41.5,93.9,38.9,99.1,38.9z"/>
<path class="st0" d="M121.7,72.8c-0.6-0.6-1.3-0.8-2.1-0.8c-5.1,0-7.7-2.6-7.7-7.7v-1.5V36c0-0.8-0.3-1.5-0.8-2.1S109.9,33,109,33
	s-1.5,0.3-2.1,0.9c-0.5,0.6-0.8,1.3-0.8,2.1v26.8v1.5c0,9,4.5,13.5,13.5,13.5c0.8,0,1.5-0.3,2.1-0.9s0.9-1.3,0.9-2.1
	C122.5,74,122.2,73.3,121.7,72.8z"/>
<path class="st0" d="M81.7,8.5c0,1.6-0.6,3-1.7,4.1s-2.5,1.7-4.1,1.7s-3-0.6-4.1-1.7s-1.7-2.5-1.7-4.1s0.6-3,1.7-4.1
	s2.5-1.7,4.1-1.7s3,0.6,4.1,1.7S81.7,6.9,81.7,8.5z"/>
<path class="st0" d="M34.3,34.7L16.7,17.1c-2.3-2.3-6-2.3-8.3,0s-2.3,6,0,8.3L25.9,43c2.3,2.3,6,2.3,8.3,0
	C36.6,40.7,36.6,37,34.3,34.7z"/>
<path class="st0" d="M16.7,76l17.6-17.6c2.3-2.3,2.3-6,0-8.3s-6-2.3-8.3,0L8.4,67.7c-2.3,2.3-2.3,6,0,8.3S14.4,78.3,16.7,76z"/>
<path class="st0" d="M41.5,58.5L59,76c2.3,2.3,6,2.3,8.3,0s2.3-6,0-8.3L49.8,50.2c-2.3-2.3-6-2.3-8.3,0
	C39.2,52.4,39.2,56.2,41.5,58.5z"/>
<path class="st0" d="M59,17.1L41.5,34.7c-2.3,2.3-2.3,6,0,8.3s6,2.3,8.3,0l17.6-17.6c2.3-2.3,2.3-6,0-8.3C65,14.8,61.3,14.8,59,17.1
	z"/>
</svg>
