<?xml version="1.0" encoding="utf-8"?>
<!-- Generator: Adobe Illustrator 26.2.1, SVG Export Plug-In . SVG Version: 6.00 Build 0)  -->
<svg version="1.1" id="Layer_1" xmlns="http://www.w3.org/2000/svg" xmlns:xlink="http://www.w3.org/1999/xlink" x="0px" y="0px"
	 viewBox="0 0 261.2 75.1" style="enable-background:new 0 0 261.2 75.1;" xml:space="preserve">
<style type="text/css">
	.st0{fill:#0D0802;}
	.st1{fill:#0082CA;}
	.st2{display:none;}
</style>
<g id="Layer_1_00000061470822134556442920000004243253947135362233_">
	<path class="st0" d="M140.2,66.2c0.8,0,1.5,0.3,2.1,0.8c0.5,0.5,0.8,1.2,0.8,2.1c0,0.8-0.3,1.5-0.8,2.1c-2.9,2.5-6.3,3.8-10.2,3.8
		c-4.3,0-8-1.5-11.1-4.6s-4.6-6.7-4.6-11.1s1.5-8,4.6-11.1s6.7-4.6,11.1-4.6c4.3,0,8,1.5,11.1,4.6c1.5,1.5,2.7,3.2,3.4,5
		c0.8,1.9,1.1,3.9,1.1,6c0,0.8-0.3,1.5-0.9,2.1c-0.6,0.5-1.3,0.8-2.1,0.8h-22.1c0.3,1,0.8,2,1.4,2.8c0.6,0.8,1.3,1.6,2.2,2.2
		c0.8,0.6,1.7,1.1,2.7,1.4s2,0.5,3.1,0.5c1.2,0,2.4-0.2,3.4-0.6s2-0.9,2.8-1.7C138.8,66.5,139.4,66.3,140.2,66.2z M141.4,56.5
		c-0.3-1-0.8-2-1.4-2.8c-0.6-0.8-1.3-1.6-2.2-2.2c-0.8-0.6-1.7-1.1-2.7-1.4c-1-0.3-2-0.5-3.1-0.5s-2.1,0.2-3.1,0.5s-1.9,0.8-2.8,1.4
		c-0.8,0.6-1.6,1.3-2.2,2.2c-0.6,0.8-1.1,1.8-1.4,2.8H141.4z"/>
	<path class="st0" d="M160,59.4l-9-10.8c-0.4-0.5-0.7-1.1-0.7-1.9c0-0.4,0.1-0.8,0.2-1.1c0.1-0.4,0.4-0.7,0.6-0.9
		c0.3-0.3,0.6-0.5,0.9-0.6c0.4-0.1,0.7-0.2,1.1-0.2c0.9,0,1.6,0.3,2.2,0.9l8.4,10.1l8.4-10.1c0.6-0.6,1.3-0.9,2.2-0.9
		c0.4,0,0.8,0.1,1.1,0.2c0.4,0.1,0.7,0.4,0.9,0.6c0.3,0.3,0.5,0.6,0.6,0.9c0.2,0.4,0.2,0.7,0.2,1.1c0,0.7-0.2,1.4-0.7,1.9l-9,10.8
		l9.1,10.9c0.4,0.5,0.6,1.1,0.6,1.8c0,0.4-0.1,0.8-0.2,1.1c-0.2,0.4-0.4,0.7-0.6,0.9c-0.3,0.3-0.6,0.5-0.9,0.6
		c-0.4,0.1-0.7,0.2-1.1,0.2c-0.8,0-1.5-0.3-2.1-0.9l-8.5-10.2l-8.4,10.3c-0.6,0.6-1.2,0.9-2.1,0.9c-0.4,0-0.8-0.1-1.1-0.2
		c-0.4-0.1-0.7-0.4-0.9-0.6c-0.3-0.3-0.5-0.6-0.6-0.9c-0.2-0.4-0.2-0.7-0.2-1.1c0-0.7,0.2-1.3,0.6-1.8L160,59.4z"/>
	<path class="st1" d="M189.5,35.3c0,0.9-0.3,1.8-1,2.4c-0.7,0.7-1.5,1-2.4,1s-1.8-0.3-2.4-1c-0.7-0.7-1-1.5-1-2.4s0.3-1.8,1-2.4
		c0.7-0.7,1.5-1,2.4-1s1.8,0.3,2.4,1C189.2,33.5,189.5,34.3,189.5,35.3z"/>
	<path class="st0" d="M183.2,72.1V46.7c0-0.8,0.3-1.5,0.9-2.1c0.6-0.6,1.3-0.9,2.1-0.9s1.5,0.3,2.1,0.9c0.6,0.6,0.9,1.3,0.9,2.1
		v25.4c0,0.8-0.3,1.5-0.9,2.1c-0.6,0.6-1.3,0.9-2.1,0.9s-1.5-0.3-2.1-0.9C183.5,73.6,183.2,72.9,183.2,72.1z"/>
	<path class="st0" d="M209.8,43.8c3.7,0,7,1.1,9.8,3.4V33.3c0-0.8,0.3-1.5,0.8-2.1c0.6-0.5,1.2-0.8,2.1-0.8c0.8,0,1.5,0.3,2.1,0.8
		c0.6,0.6,0.9,1.2,0.9,2.1v26.1c0,4.4-1.5,8-4.6,11.1s-6.8,4.6-11.1,4.6s-8-1.5-11.1-4.6s-4.6-6.7-4.6-11.1c0-4.3,1.5-8,4.6-11.1
		C201.8,45.3,205.5,43.8,209.8,43.8z M219.6,59.4c0-1.3-0.3-2.6-0.8-3.8s-1.2-2.2-2.1-3.1c-0.9-0.9-1.9-1.6-3.1-2.1
		c-1.2-0.5-2.5-0.8-3.8-0.8c-1.4,0-2.7,0.3-3.9,0.8s-2.2,1.2-3.1,2.1c-0.9,0.9-1.6,1.9-2.1,3.1c-0.5,1.2-0.8,2.5-0.8,3.8
		s0.3,2.6,0.8,3.8c0.5,1.2,1.2,2.2,2.1,3.1c0.9,0.9,1.9,1.6,3.1,2.1c1.2,0.5,2.5,0.8,3.9,0.8s2.6-0.3,3.8-0.8s2.2-1.2,3.1-2.1
		c0.9-0.9,1.6-1.9,2.1-3.1C219.4,62,219.6,60.7,219.6,59.4z"/>
	<path class="st0" d="M261.2,59.4c0,4.4-1.5,8-4.6,11.1c-3.1,3.1-6.8,4.6-11.1,4.6c-4.3,0-8-1.5-11.1-4.6s-4.6-6.7-4.6-11.1
		c0-4.3,1.5-8,4.6-11.1s6.7-4.6,11.1-4.6c4.3,0,8,1.5,11.1,4.6c1.5,1.5,2.7,3.2,3.4,5.1C260.8,55.2,261.2,57.2,261.2,59.4z
		 M245.6,49.6c-1.4,0-2.7,0.3-3.9,0.8s-2.2,1.2-3.1,2.1c-0.9,0.9-1.6,1.9-2.1,3.1c-0.5,1.2-0.8,2.5-0.8,3.8s0.3,2.6,0.8,3.8
		c0.5,1.2,1.2,2.2,2.1,3.1c0.9,0.9,1.9,1.6,3.1,2.1c1.2,0.5,2.5,0.8,3.9,0.8s2.6-0.3,3.8-0.8c1.2-0.5,2.2-1.2,3.1-2.1
		s1.6-1.9,2.1-3.1c0.5-1.2,0.8-2.4,0.8-3.8c0-1.3-0.3-2.6-0.8-3.8s-1.2-2.2-2.1-3.1c-0.9-0.9-1.9-1.6-3.1-2.1S246.9,49.6,245.6,49.6
		z"/>
	<path class="st0" d="M92.4,36.2c0.8,0,1.5-0.3,2.1-0.9c0.6-0.6,0.9-1.3,0.9-2.1s-0.3-1.5-0.9-2.1s-1.3-0.9-2.1-0.9
		c-9,0-13.5,4.5-13.5,13.5v1.6v5.8V72c0,0.4,0.1,0.8,0.2,1.1c0.1,0.4,0.4,0.7,0.6,0.9c0.3,0.3,0.6,0.5,0.9,0.6s0.7,0.2,1.1,0.2
		s0.8-0.1,1.1-0.2c0.4-0.1,0.7-0.4,0.9-0.6c0.3-0.3,0.5-0.6,0.6-0.9c0.1-0.4,0.2-0.7,0.2-1.1V51.2h5.8c0.8,0,1.5-0.3,2.1-0.8
		c0.6-0.6,0.9-1.3,0.9-2.1s-0.3-1.5-0.9-2.1c-0.6-0.6-1.3-0.9-2.1-0.9h-5.6v-1.5C84.7,38.8,87.2,36.2,92.4,36.2z"/>
	<path class="st0" d="M115,70.1c-0.6-0.6-1.3-0.8-2.1-0.8c-5.1,0-7.7-2.6-7.7-7.7v-1.5V33.3c0-0.8-0.3-1.5-0.8-2.1s-1.2-0.9-2.1-0.9
		s-1.5,0.3-2.1,0.9c-0.5,0.6-0.8,1.3-0.8,2.1v26.8v1.5c0,9,4.5,13.5,13.5,13.5c0.8,0,1.5-0.3,2.1-0.9s0.9-1.3,0.9-2.1
		C115.8,71.3,115.5,70.6,115,70.1z"/>
	<path class="st1" d="M75,5.8c0,1.6-0.6,3-1.7,4.1s-2.5,1.7-4.1,1.7s-3-0.6-4.1-1.7s-1.7-2.5-1.7-4.1s0.6-3,1.7-4.1S67.6,0,69.2,0
		s3,0.6,4.1,1.7S75,4.2,75,5.8z"/>
	<path class="st0" d="M27.6,32L10,14.4c-2.3-2.3-6-2.3-8.3,0s-2.3,6,0,8.3l17.5,17.6c2.3,2.3,6,2.3,8.3,0C29.9,38,29.9,34.3,27.6,32
		z"/>
	<path class="st0" d="M10,73.3l17.6-17.6c2.3-2.3,2.3-6,0-8.3s-6-2.3-8.3,0L1.7,65c-2.3,2.3-2.3,6,0,8.3S7.7,75.6,10,73.3z"/>
	<path class="st1" d="M34.8,55.8l17.5,17.5c2.3,2.3,6,2.3,8.3,0s2.3-6,0-8.3L43.1,47.5c-2.3-2.3-6-2.3-8.3,0
		C32.5,49.7,32.5,53.5,34.8,55.8z"/>
	<path class="st1" d="M52.3,14.4L34.8,32c-2.3,2.3-2.3,6,0,8.3s6,2.3,8.3,0l17.6-17.6c2.3-2.3,2.3-6,0-8.3
		C58.3,12.1,54.6,12.1,52.3,14.4z"/>
</g>
<g id="Layer_2_00000047759129228455679290000005364311070871073727_" class="st2">
</g>
</svg>
