<?xml version="1.0" encoding="utf-8"?>
<!-- Generator: Adobe Illustrator 22.1.0, SVG Export Plug-In . SVG Version: 6.00 Build 0)  -->
<svg version="1.1" xmlns="http://www.w3.org/2000/svg" xmlns:xlink="http://www.w3.org/1999/xlink" x="0px" y="0px"
	 viewBox="0 0 272 100" style="enable-background:new 0 0 272 100;" xml:space="preserve">
<g id="Layer_1">
	<g>
		<path style="fill:#FFFFFF;" d="M49.1-90.5c0.9,0,1.6,0.3,2.2,0.9c0.6,0.6,0.9,1.3,0.9,2.2c0,0.9-0.3,1.6-0.9,2.2
			c-3,2.7-6.6,4-10.7,4c-4.5,0-8.4-1.6-11.6-4.8c-3.2-3.2-4.8-7.1-4.8-11.6c0-4.5,1.6-8.4,4.8-11.6c3.2-3.2,7.1-4.8,11.6-4.8
			c4.5,0,8.4,1.6,11.6,4.8c1.6,1.6,2.8,3.3,3.6,5.3c0.8,1.9,1.2,4.1,1.2,6.3c0,0.9-0.3,1.6-0.9,2.2c-0.6,0.6-1.3,0.9-2.2,0.9H30.6
			c0.3,1.1,0.8,2.1,1.5,3c0.6,0.9,1.4,1.7,2.3,2.3c0.9,0.6,1.8,1.1,2.9,1.5c1,0.4,2.1,0.5,3.3,0.5c1.3,0,2.5-0.2,3.6-0.6
			c1.1-0.4,2.1-1,3-1.8C47.6-90.3,48.3-90.5,49.1-90.5z M50.4-100.8c-0.3-1.1-0.8-2.1-1.5-3c-0.7-0.9-1.4-1.7-2.3-2.3
			c-0.9-0.6-1.8-1.1-2.9-1.5c-1-0.4-2.1-0.5-3.2-0.5c-1.1,0-2.2,0.2-3.3,0.5c-1.1,0.4-2,0.8-2.9,1.5c-0.9,0.6-1.6,1.4-2.3,2.3
			c-0.6,0.9-1.1,1.9-1.4,3H50.4z"/>
		<path style="fill:#FFFFFF;" d="M69.9-97.8l-9.5-11.3c-0.5-0.5-0.7-1.2-0.7-2c0-0.4,0.1-0.8,0.2-1.2c0.2-0.4,0.4-0.7,0.6-1
			c0.3-0.3,0.6-0.5,1-0.7c0.4-0.2,0.8-0.2,1.2-0.2c0.9,0,1.7,0.3,2.3,1l8.9,10.6l8.9-10.6c0.6-0.7,1.3-1,2.3-1
			c0.4,0,0.8,0.1,1.2,0.2c0.4,0.2,0.7,0.4,1,0.7c0.3,0.3,0.5,0.6,0.7,1c0.2,0.4,0.2,0.8,0.2,1.2c0,0.7-0.2,1.4-0.7,2l-9.5,11.3
			l9.6,11.5c0.4,0.5,0.6,1.1,0.6,1.9c0,0.4-0.1,0.8-0.2,1.2c-0.2,0.4-0.4,0.7-0.7,1c-0.3,0.3-0.6,0.5-1,0.7
			c-0.4,0.2-0.8,0.2-1.2,0.2c-0.8,0-1.6-0.3-2.2-0.9L73.9-93l-9,10.7c-0.6,0.6-1.3,0.9-2.2,0.9c-0.4,0-0.8-0.1-1.2-0.2
			c-0.4-0.2-0.7-0.4-1-0.7c-0.3-0.3-0.5-0.6-0.6-1c-0.2-0.4-0.2-0.8-0.2-1.2c0-0.8,0.2-1.4,0.6-1.9L69.9-97.8z"/>
		<path style="fill:#FFFFFF;" d="M101-123.1c0,1-0.4,1.8-1.1,2.6c-0.7,0.7-1.6,1.1-2.6,1.1c-1,0-1.8-0.4-2.6-1.1
			c-0.7-0.7-1.1-1.6-1.1-2.6c0-1,0.4-1.8,1.1-2.6c0.7-0.7,1.6-1.1,2.6-1.1c1,0,1.8,0.4,2.6,1.1C100.6-124.9,101-124.1,101-123.1z"/>
		<path style="fill:#FFFFFF;" d="M94.3-84.4v-26.7c0-0.9,0.3-1.6,0.9-2.2c0.6-0.6,1.3-0.9,2.2-0.9c0.8,0,1.6,0.3,2.2,0.9
			c0.6,0.6,0.9,1.3,0.9,2.2v26.7c0,0.9-0.3,1.6-0.9,2.2c-0.6,0.6-1.3,0.9-2.2,0.9c-0.8,0-1.6-0.3-2.2-0.9
			C94.6-82.8,94.3-83.5,94.3-84.4z"/>
		<path style="fill:#FFFFFF;" d="M122.3-114.2c3.9,0,7.3,1.2,10.3,3.6v-14.6c0-0.9,0.3-1.6,0.9-2.2c0.6-0.6,1.3-0.9,2.2-0.9
			c0.9,0,1.6,0.3,2.2,0.9c0.6,0.6,0.9,1.3,0.9,2.2v27.5c0,4.6-1.6,8.5-4.8,11.6c-3.2,3.2-7.1,4.8-11.6,4.8c-4.5,0-8.4-1.6-11.6-4.8
			c-3.2-3.2-4.8-7.1-4.8-11.6c0-4.5,1.6-8.4,4.8-11.6C113.9-112.6,117.8-114.2,122.3-114.2z M132.6-97.7c0-1.4-0.3-2.7-0.8-4
			c-0.5-1.2-1.3-2.3-2.2-3.3c-0.9-0.9-2-1.7-3.3-2.2c-1.3-0.5-2.6-0.8-4-0.8c-1.4,0-2.8,0.3-4,0.8c-1.3,0.5-2.3,1.3-3.3,2.2
			c-0.9,0.9-1.6,2-2.2,3.3c-0.5,1.3-0.8,2.6-0.8,4c0,1.4,0.3,2.7,0.8,4c0.5,1.3,1.3,2.3,2.2,3.3c0.9,0.9,2,1.7,3.3,2.2
			c1.3,0.5,2.6,0.8,4,0.8c1.4,0,2.8-0.3,4-0.8c1.3-0.5,2.3-1.3,3.3-2.2c0.9-0.9,1.7-2,2.2-3.3C132.3-95,132.6-96.3,132.6-97.7z"/>
		<path style="fill:#FFFFFF;" d="M176.3-97.7c0,4.6-1.6,8.5-4.8,11.6c-3.2,3.2-7.1,4.8-11.6,4.8c-4.5,0-8.4-1.6-11.6-4.8
			c-3.2-3.2-4.8-7.1-4.8-11.6c0-4.5,1.6-8.4,4.8-11.6c3.2-3.2,7.1-4.8,11.6-4.8c4.5,0,8.4,1.6,11.6,4.8c1.6,1.6,2.8,3.4,3.6,5.3
			C175.9-102.1,176.3-100,176.3-97.7z M159.9-108c-1.4,0-2.8,0.3-4,0.8c-1.3,0.5-2.3,1.3-3.3,2.2c-0.9,0.9-1.7,2-2.2,3.3
			c-0.5,1.3-0.8,2.6-0.8,4c0,1.4,0.3,2.7,0.8,4c0.5,1.3,1.3,2.3,2.2,3.3c0.9,0.9,2,1.7,3.3,2.2c1.3,0.5,2.6,0.8,4,0.8
			c1.4,0,2.8-0.3,4-0.8c1.3-0.5,2.3-1.3,3.3-2.2c0.9-0.9,1.7-2,2.2-3.3c0.5-1.2,0.8-2.6,0.8-4c0-1.4-0.3-2.7-0.8-4
			c-0.5-1.2-1.3-2.3-2.2-3.3c-0.9-0.9-2-1.7-3.3-2.2C162.6-107.8,161.3-108,159.9-108z"/>
		<path style="fill:#FFFFFF;" d="M-1.1-122.1c0.8,0,1.6-0.3,2.2-0.9c0.6-0.6,0.9-1.3,0.9-2.2c0-0.8-0.3-1.6-0.9-2.2
			c-0.6-0.6-1.3-0.9-2.2-0.9c-9.5,0-14.2,4.7-14.2,14.2v1.5v6.1v22c0,0.4,0.1,0.8,0.2,1.2c0.2,0.4,0.4,0.7,0.6,1
			c0.3,0.3,0.6,0.5,1,0.7c0.4,0.2,0.8,0.2,1.2,0.2c0.4,0,0.8-0.1,1.2-0.2c0.4-0.2,0.7-0.4,1-0.7c0.3-0.3,0.5-0.6,0.6-1
			c0.2-0.4,0.2-0.8,0.2-1.2v-22h5.9c0.8,0,1.6-0.3,2.2-0.9c0.6-0.6,0.9-1.3,0.9-2.2c0-0.8-0.3-1.6-0.9-2.2c-0.6-0.6-1.3-0.9-2.2-0.9
			h-5.9v-1.5C-9.2-119.4-6.5-122.1-1.1-122.1z"/>
		<path style="fill:#FFFFFF;" d="M22.6-86.5c-0.6-0.6-1.3-0.9-2.2-0.9c-5.4,0-8.1-2.7-8.1-8.1V-97v-28.2c0-0.9-0.3-1.6-0.9-2.2
			c-0.6-0.6-1.3-0.9-2.2-0.9c-0.9,0-1.6,0.3-2.2,0.9c-0.6,0.6-0.9,1.3-0.9,2.2V-97v1.5c0,9.5,4.7,14.2,14.2,14.2
			c0.8,0,1.6-0.3,2.2-0.9c0.6-0.6,0.9-1.3,0.9-2.2C23.5-85.2,23.2-85.9,22.6-86.5z"/>
		<path style="fill:#FFFFFF;" d="M-19.5-154.1c0,1.7-0.6,3.1-1.8,4.3c-1.2,1.2-2.6,1.8-4.3,1.8c-1.7,0-3.1-0.6-4.3-1.8
			c-1.2-1.2-1.8-2.6-1.8-4.3c0-1.7,0.6-3.1,1.8-4.3c1.2-1.2,2.6-1.8,4.3-1.8c1.7,0,3.1,0.6,4.3,1.8C-20-157.2-19.5-155.8-19.5-154.1
			z"/>
		<path style="fill:#FFFFFF;" d="M-69.3-126.6L-87.7-145c-2.4-2.4-6.3-2.4-8.7,0c-2.4,2.4-2.4,6.3,0,8.7l18.5,18.5
			c2.4,2.4,6.3,2.4,8.7,0C-66.9-120.2-66.9-124.1-69.3-126.6z"/>
		<path style="fill:#FFFFFF;" d="M-87.7-83.1l18.5-18.5c2.4-2.4,2.4-6.3,0-8.7c-2.4-2.4-6.3-2.4-8.7,0l-18.5,18.5
			c-2.4,2.4-2.4,6.3,0,8.7C-94.1-80.7-90.1-80.7-87.7-83.1z"/>
		<path style="fill:#FFFFFF;" d="M-61.7-101.5l18.5,18.5c2.4,2.4,6.3,2.4,8.7,0c2.4-2.4,2.4-6.3,0-8.7l-18.5-18.5
			c-2.4-2.4-6.3-2.4-8.7,0C-64.1-107.9-64.1-104-61.7-101.5z"/>
		<path style="fill:#FFFFFF;" d="M-43.2-145l-18.5,18.5c-2.4,2.4-2.4,6.3,0,8.7c2.4,2.4,6.3,2.4,8.7,0l18.5-18.5
			c2.4-2.4,2.4-6.3,0-8.7C-36.9-147.4-40.8-147.4-43.2-145z"/>
	</g>
	<path style="fill:#0D0802;" d="M146.9,68.9c0.8,0,1.5,0.3,2.1,0.8c0.5,0.5,0.8,1.2,0.8,2.1c0,0.8-0.3,1.5-0.8,2.1
		c-2.9,2.5-6.3,3.8-10.2,3.8c-4.3,0-8-1.5-11.1-4.6c-3.1-3.1-4.6-6.7-4.6-11.1s1.5-8,4.6-11.1c3.1-3.1,6.7-4.6,11.1-4.6
		c4.3,0,8,1.5,11.1,4.6c1.5,1.5,2.7,3.2,3.4,5c0.8,1.9,1.1,3.9,1.1,6c0,0.8-0.3,1.5-0.9,2.1c-0.6,0.5-1.3,0.8-2.1,0.8h-22.1
		c0.3,1,0.8,2,1.4,2.8c0.6,0.8,1.3,1.6,2.2,2.2c0.8,0.6,1.7,1.1,2.7,1.4c1,0.3,2,0.5,3.1,0.5c1.2,0,2.4-0.2,3.4-0.6
		c1-0.4,2-0.9,2.8-1.7C145.5,69.2,146.1,69,146.9,68.9z M148.1,59.2c-0.3-1-0.8-2-1.4-2.8c-0.6-0.8-1.3-1.6-2.2-2.2
		c-0.8-0.6-1.7-1.1-2.7-1.4c-1-0.3-2-0.5-3.1-0.5c-1.1,0-2.1,0.2-3.1,0.5c-1,0.3-1.9,0.8-2.8,1.4c-0.8,0.6-1.6,1.3-2.2,2.2
		c-0.6,0.8-1.1,1.8-1.4,2.8H148.1z"/>
	<path style="fill:#0D0802;" d="M166.7,62.1l-9-10.8c-0.4-0.5-0.7-1.1-0.7-1.9c0-0.4,0.1-0.8,0.2-1.1c0.1-0.4,0.4-0.7,0.6-0.9
		c0.3-0.3,0.6-0.5,0.9-0.6c0.4-0.1,0.7-0.2,1.1-0.2c0.9,0,1.6,0.3,2.2,0.9l8.4,10.1l8.4-10.1c0.6-0.6,1.3-0.9,2.2-0.9
		c0.4,0,0.8,0.1,1.1,0.2c0.4,0.1,0.7,0.4,0.9,0.6c0.3,0.3,0.5,0.6,0.6,0.9c0.2,0.4,0.2,0.7,0.2,1.1c0,0.7-0.2,1.4-0.7,1.9l-9,10.8
		l9.1,10.9c0.4,0.5,0.6,1.1,0.6,1.8c0,0.4-0.1,0.8-0.2,1.1c-0.2,0.4-0.4,0.7-0.6,0.9c-0.3,0.3-0.6,0.5-0.9,0.6
		c-0.4,0.1-0.7,0.2-1.1,0.2c-0.8,0-1.5-0.3-2.1-0.9l-8.5-10.2L162,76.8c-0.6,0.6-1.2,0.9-2.1,0.9c-0.4,0-0.8-0.1-1.1-0.2
		c-0.4-0.1-0.7-0.4-0.9-0.6c-0.3-0.3-0.5-0.6-0.6-0.9c-0.2-0.4-0.2-0.7-0.2-1.1c0-0.7,0.2-1.3,0.6-1.8L166.7,62.1z"/>
	<path style="fill:#0082CA;" d="M196.2,38c0,0.9-0.3,1.8-1,2.4c-0.7,0.7-1.5,1-2.4,1c-0.9,0-1.8-0.3-2.4-1c-0.7-0.7-1-1.5-1-2.4
		c0-0.9,0.3-1.8,1-2.4c0.7-0.7,1.5-1,2.4-1c0.9,0,1.8,0.3,2.4,1C195.9,36.2,196.2,37,196.2,38z"/>
	<path style="fill:#0D0802;" d="M189.9,74.8V49.4c0-0.8,0.3-1.5,0.9-2.1c0.6-0.6,1.3-0.9,2.1-0.9c0.8,0,1.5,0.3,2.1,0.9
		c0.6,0.6,0.9,1.3,0.9,2.1v25.4c0,0.8-0.3,1.5-0.9,2.1c-0.6,0.6-1.3,0.9-2.1,0.9c-0.8,0-1.5-0.3-2.1-0.9
		C190.2,76.3,189.9,75.6,189.9,74.8z"/>
	<path style="fill:#0D0802;" d="M216.5,46.5c3.7,0,7,1.1,9.8,3.4V36c0-0.8,0.3-1.5,0.8-2.1c0.6-0.5,1.2-0.8,2.1-0.8
		c0.8,0,1.5,0.3,2.1,0.8c0.6,0.6,0.9,1.2,0.9,2.1v26.1c0,4.4-1.5,8-4.6,11.1c-3.1,3.1-6.8,4.6-11.1,4.6c-4.3,0-8-1.5-11.1-4.6
		c-3.1-3.1-4.6-6.7-4.6-11.1c0-4.3,1.5-8,4.6-11.1C208.5,48,212.2,46.5,216.5,46.5z M226.3,62.1c0-1.3-0.3-2.6-0.8-3.8
		c-0.5-1.2-1.2-2.2-2.1-3.1c-0.9-0.9-1.9-1.6-3.1-2.1c-1.2-0.5-2.5-0.8-3.8-0.8c-1.4,0-2.7,0.3-3.9,0.8c-1.2,0.5-2.2,1.2-3.1,2.1
		c-0.9,0.9-1.6,1.9-2.1,3.1c-0.5,1.2-0.8,2.5-0.8,3.8c0,1.3,0.3,2.6,0.8,3.8c0.5,1.2,1.2,2.2,2.1,3.1c0.9,0.9,1.9,1.6,3.1,2.1
		c1.2,0.5,2.5,0.8,3.9,0.8c1.4,0,2.6-0.3,3.8-0.8c1.2-0.5,2.2-1.2,3.1-2.1c0.9-0.9,1.6-1.9,2.1-3.1
		C226.1,64.7,226.3,63.4,226.3,62.1z"/>
	<path style="fill:#0D0802;" d="M267.9,62.1c0,4.4-1.5,8-4.6,11.1c-3.1,3.1-6.8,4.6-11.1,4.6c-4.3,0-8-1.5-11.1-4.6
		c-3.1-3.1-4.6-6.7-4.6-11.1c0-4.3,1.5-8,4.6-11.1c3.1-3.1,6.7-4.6,11.1-4.6c4.3,0,8,1.5,11.1,4.6c1.5,1.5,2.7,3.2,3.4,5.1
		C267.5,57.9,267.9,59.9,267.9,62.1z M252.3,52.3c-1.4,0-2.7,0.3-3.9,0.8c-1.2,0.5-2.2,1.2-3.1,2.1c-0.9,0.9-1.6,1.9-2.1,3.1
		c-0.5,1.2-0.8,2.5-0.8,3.8c0,1.3,0.3,2.6,0.8,3.8c0.5,1.2,1.2,2.2,2.1,3.1c0.9,0.9,1.9,1.6,3.1,2.1c1.2,0.5,2.5,0.8,3.9,0.8
		c1.4,0,2.6-0.3,3.8-0.8c1.2-0.5,2.2-1.2,3.1-2.1c0.9-0.9,1.6-1.9,2.1-3.1c0.5-1.2,0.8-2.4,0.8-3.8c0-1.3-0.3-2.6-0.8-3.8
		c-0.5-1.2-1.2-2.2-2.1-3.1c-0.9-0.9-1.9-1.6-3.1-2.1C254.9,52.6,253.6,52.3,252.3,52.3z"/>
	<path style="fill:#0D0802;" d="M99.1,38.9c0.8,0,1.5-0.3,2.1-0.9c0.6-0.6,0.9-1.3,0.9-2.1c0-0.8-0.3-1.5-0.9-2.1
		c-0.6-0.6-1.3-0.9-2.1-0.9c-9,0-13.5,4.5-13.5,13.5V48v5.8v20.9c0,0.4,0.1,0.8,0.2,1.1c0.1,0.4,0.4,0.7,0.6,0.9
		c0.3,0.3,0.6,0.5,0.9,0.6s0.7,0.2,1.1,0.2s0.8-0.1,1.1-0.2c0.4-0.1,0.7-0.4,0.9-0.6c0.3-0.3,0.5-0.6,0.6-0.9
		c0.1-0.4,0.2-0.7,0.2-1.1V53.9H97c0.8,0,1.5-0.3,2.1-0.8c0.6-0.6,0.9-1.3,0.9-2.1c0-0.8-0.3-1.5-0.9-2.1C98.5,48.3,97.8,48,97,48
		h-5.6v-1.5C91.4,41.5,93.9,38.9,99.1,38.9z"/>
	<path style="fill:#0D0802;" d="M121.7,72.8c-0.6-0.6-1.3-0.8-2.1-0.8c-5.1,0-7.7-2.6-7.7-7.7v-1.5V36c0-0.8-0.3-1.5-0.8-2.1
		c-0.5-0.6-1.2-0.9-2.1-0.9s-1.5,0.3-2.1,0.9c-0.5,0.6-0.8,1.3-0.8,2.1v26.8v1.5c0,9,4.5,13.5,13.5,13.5c0.8,0,1.5-0.3,2.1-0.9
		c0.6-0.6,0.9-1.3,0.9-2.1C122.5,74,122.2,73.3,121.7,72.8z"/>
	<path style="fill:#0082CA;" d="M81.7,8.5c0,1.6-0.6,3-1.7,4.1c-1.1,1.1-2.5,1.7-4.1,1.7c-1.6,0-3-0.6-4.1-1.7
		c-1.1-1.1-1.7-2.5-1.7-4.1c0-1.6,0.6-3,1.7-4.1c1.1-1.1,2.5-1.7,4.1-1.7c1.6,0,3,0.6,4.1,1.7C81.1,5.5,81.7,6.9,81.7,8.5z"/>
	<path style="fill:#0D0802;" d="M34.3,34.7L16.7,17.1c-2.3-2.3-6-2.3-8.3,0c-2.3,2.3-2.3,6,0,8.3L25.9,43c2.3,2.3,6,2.3,8.3,0
		C36.6,40.7,36.6,37,34.3,34.7z"/>
	<path style="fill:#0D0802;" d="M16.7,76l17.6-17.6c2.3-2.3,2.3-6,0-8.3c-2.3-2.3-6-2.3-8.3,0L8.4,67.7c-2.3,2.3-2.3,6,0,8.3
		C10.7,78.3,14.4,78.3,16.7,76z"/>
	<path style="fill:#0082CA;" d="M41.5,58.5L59,76c2.3,2.3,6,2.3,8.3,0c2.3-2.3,2.3-6,0-8.3L49.8,50.2c-2.3-2.3-6-2.3-8.3,0
		C39.2,52.4,39.2,56.2,41.5,58.5z"/>
	<path style="fill:#0082CA;" d="M59,17.1L41.5,34.7c-2.3,2.3-2.3,6,0,8.3c2.3,2.3,6,2.3,8.3,0l17.6-17.6c2.3-2.3,2.3-6,0-8.3
		C65,14.8,61.3,14.8,59,17.1z"/>
	<g>
		<path style="fill:#777777;" d="M20.5,98.2h-1.6l-2.8-9.4c-0.1-0.4-0.3-0.9-0.5-1.6c-0.2-0.6-0.3-1-0.3-1.1
			c-0.1,0.8-0.4,1.8-0.7,2.8L12,98.2h-1.6L6.6,84.1h1.7l2.2,8.7c0.3,1.2,0.5,2.3,0.7,3.3c0.2-1.2,0.4-2.3,0.8-3.4l2.5-8.6h1.7
			l2.6,8.6c0.3,1,0.6,2.1,0.8,3.4c0.1-0.9,0.4-2,0.7-3.3l2.2-8.7h1.7L20.5,98.2z"/>
		<path style="fill:#777777;" d="M30.7,98.4c-1.6,0-2.8-0.5-3.7-1.4c-0.9-0.9-1.4-2.3-1.4-4c0-1.7,0.4-3.1,1.3-4.1s2-1.5,3.4-1.5
			c1.3,0,2.4,0.4,3.1,1.3c0.8,0.9,1.2,2,1.2,3.4v1h-7.3c0,1.2,0.3,2.2,0.9,2.8s1.4,1,2.5,1c1.1,0,2.3-0.2,3.4-0.7v1.4
			c-0.6,0.2-1.1,0.4-1.6,0.5C32.1,98.3,31.4,98.4,30.7,98.4z M30.3,88.8c-0.8,0-1.5,0.3-2,0.8c-0.5,0.6-0.8,1.3-0.9,2.3h5.5
			c0-1-0.2-1.8-0.7-2.3C31.8,89.1,31.1,88.8,30.3,88.8z"/>
		<path style="fill:#777777;" d="M55.9,98.2v-6.9c0-0.8-0.2-1.5-0.5-1.9s-0.9-0.6-1.7-0.6c-1,0-1.7,0.3-2.2,0.9
			c-0.5,0.6-0.7,1.5-0.7,2.6v5.9h-1.6v-6.9c0-0.8-0.2-1.5-0.5-1.9s-0.9-0.6-1.7-0.6c-1,0-1.7,0.3-2.2,0.9c-0.5,0.6-0.7,1.6-0.7,3
			v5.5h-1.6V87.7h1.3l0.3,1.4h0.1c0.3-0.5,0.7-0.9,1.3-1.2s1.2-0.4,1.8-0.4c1.6,0,2.7,0.6,3.2,1.8h0.1c0.3-0.6,0.8-1,1.4-1.3
			c0.6-0.3,1.3-0.5,2-0.5c1.2,0,2.1,0.3,2.7,0.9s0.9,1.6,0.9,2.9v6.9H55.9z"/>
		<path style="fill:#777777;" d="M67.3,98.2L67,96.7h-0.1c-0.5,0.7-1.1,1.1-1.6,1.3c-0.5,0.2-1.2,0.4-2,0.4c-1,0-1.9-0.3-2.5-0.8
			c-0.6-0.5-0.9-1.3-0.9-2.3c0-2.1,1.7-3.2,5.1-3.3l1.8-0.1v-0.7c0-0.8-0.2-1.4-0.5-1.8s-0.9-0.6-1.7-0.6c-0.9,0-1.9,0.3-3,0.8
			l-0.5-1.2c0.5-0.3,1.1-0.5,1.7-0.7s1.2-0.2,1.9-0.2c1.3,0,2.2,0.3,2.8,0.8s0.9,1.5,0.9,2.7v7.2H67.3z M63.7,97.1
			c1,0,1.8-0.3,2.3-0.8c0.6-0.5,0.9-1.3,0.9-2.3v-1l-1.6,0.1c-1.3,0-2.2,0.2-2.7,0.6c-0.6,0.4-0.8,0.9-0.8,1.6c0,0.6,0.2,1,0.5,1.3
			C62.6,96.9,63,97.1,63.7,97.1z"/>
		<path style="fill:#777777;" d="M73.3,92.8c0.3-0.4,0.7-0.9,1.3-1.5l3.4-3.6h1.9l-4.3,4.5l4.6,6.1h-1.9l-3.7-5l-1.2,1v3.9h-1.6v-15
			h1.6v7.9C73.3,91.5,73.3,92.1,73.3,92.8L73.3,92.8z"/>
		<path style="fill:#777777;" d="M86.6,98.4c-1.6,0-2.8-0.5-3.7-1.4c-0.9-0.9-1.4-2.3-1.4-4c0-1.7,0.4-3.1,1.3-4.1s2-1.5,3.4-1.5
			c1.3,0,2.4,0.4,3.1,1.3c0.8,0.9,1.2,2,1.2,3.4v1h-7.3c0,1.2,0.3,2.2,0.9,2.8s1.4,1,2.5,1c1.1,0,2.3-0.2,3.4-0.7v1.4
			c-0.6,0.2-1.1,0.4-1.6,0.5C87.9,98.3,87.3,98.4,86.6,98.4z M86.1,88.8c-0.8,0-1.5,0.3-2,0.8c-0.5,0.6-0.8,1.3-0.9,2.3h5.5
			c0-1-0.2-1.8-0.7-2.3C87.6,89.1,87,88.8,86.1,88.8z"/>
		<path style="fill:#777777;" d="M104.8,98.2l-0.3-1.5h-0.1c-0.5,0.7-1.1,1.1-1.6,1.3c-0.5,0.2-1.2,0.4-2,0.4c-1,0-1.9-0.3-2.5-0.8
			c-0.6-0.5-0.9-1.3-0.9-2.3c0-2.1,1.7-3.2,5.1-3.3l1.8-0.1v-0.7c0-0.8-0.2-1.4-0.5-1.8s-0.9-0.6-1.7-0.6c-0.9,0-1.9,0.3-3,0.8
			l-0.5-1.2c0.5-0.3,1.1-0.5,1.7-0.7s1.2-0.2,1.9-0.2c1.3,0,2.2,0.3,2.8,0.8s0.9,1.5,0.9,2.7v7.2H104.8z M101.2,97.1
			c1,0,1.8-0.3,2.3-0.8c0.6-0.5,0.9-1.3,0.9-2.3v-1l-1.6,0.1c-1.3,0-2.2,0.2-2.7,0.6c-0.6,0.4-0.8,0.9-0.8,1.6c0,0.6,0.2,1,0.5,1.3
			C100,96.9,100.5,97.1,101.2,97.1z"/>
		<path style="fill:#777777;" d="M110.8,87.7v6.8c0,0.9,0.2,1.5,0.6,1.9c0.4,0.4,1,0.6,1.8,0.6c1.1,0,1.9-0.3,2.4-0.9
			c0.5-0.6,0.8-1.6,0.8-3v-5.5h1.6v10.5h-1.3l-0.2-1.4h-0.1c-0.3,0.5-0.8,0.9-1.4,1.2c-0.6,0.3-1.2,0.4-2,0.4
			c-1.3,0-2.2-0.3-2.9-0.9c-0.6-0.6-1-1.6-1-2.9v-6.9H110.8z"/>
		<path style="fill:#777777;" d="M124.8,97.1c0.3,0,0.6,0,0.8-0.1c0.3,0,0.5-0.1,0.6-0.1v1.2c-0.2,0.1-0.4,0.2-0.8,0.2
			s-0.6,0.1-0.9,0.1c-2,0-3.1-1.1-3.1-3.2v-6.3H120v-0.8l1.5-0.7l0.7-2.3h0.9v2.4h3.1v1.2h-3.1v6.2c0,0.6,0.2,1.1,0.5,1.5
			C123.8,96.9,124.2,97.1,124.8,97.1z"/>
		<path style="fill:#777777;" d="M137.4,92.9c0,1.7-0.4,3.1-1.3,4s-2.1,1.4-3.6,1.4c-0.9,0-1.8-0.2-2.5-0.7s-1.3-1.1-1.7-1.9
			c-0.4-0.8-0.6-1.8-0.6-2.9c0-1.7,0.4-3.1,1.3-4c0.9-1,2.1-1.4,3.6-1.4c1.5,0,2.6,0.5,3.5,1.5C137,89.9,137.4,91.2,137.4,92.9z
			 M129.4,92.9c0,1.3,0.3,2.4,0.8,3.1s1.3,1.1,2.4,1.1s1.8-0.4,2.4-1.1c0.5-0.7,0.8-1.7,0.8-3.1c0-1.3-0.3-2.4-0.8-3.1
			c-0.5-0.7-1.3-1-2.4-1c-1,0-1.8,0.3-2.4,1S129.4,91.6,129.4,92.9z"/>
		<path style="fill:#777777;" d="M153.7,98.2v-6.9c0-0.8-0.2-1.5-0.5-1.9s-0.9-0.6-1.7-0.6c-1,0-1.7,0.3-2.2,0.9
			c-0.5,0.6-0.7,1.5-0.7,2.6v5.9h-1.6v-6.9c0-0.8-0.2-1.5-0.5-1.9s-0.9-0.6-1.7-0.6c-1,0-1.7,0.3-2.2,0.9c-0.5,0.6-0.7,1.6-0.7,3
			v5.5h-1.6V87.7h1.3l0.3,1.4h0.1c0.3-0.5,0.7-0.9,1.3-1.2s1.2-0.4,1.8-0.4c1.6,0,2.7,0.6,3.2,1.8h0.1c0.3-0.6,0.8-1,1.4-1.3
			c0.6-0.3,1.3-0.5,2-0.5c1.2,0,2.1,0.3,2.7,0.9s0.9,1.6,0.9,2.9v6.9H153.7z"/>
		<path style="fill:#777777;" d="M165,98.2l-0.3-1.5h-0.1c-0.5,0.7-1.1,1.1-1.6,1.3c-0.5,0.2-1.2,0.4-2,0.4c-1,0-1.9-0.3-2.5-0.8
			c-0.6-0.5-0.9-1.3-0.9-2.3c0-2.1,1.7-3.2,5.1-3.3l1.8-0.1v-0.7c0-0.8-0.2-1.4-0.5-1.8s-0.9-0.6-1.7-0.6c-0.9,0-1.9,0.3-3,0.8
			l-0.5-1.2c0.5-0.3,1.1-0.5,1.7-0.7s1.2-0.2,1.9-0.2c1.3,0,2.2,0.3,2.8,0.8s0.9,1.5,0.9,2.7v7.2H165z M161.4,97.1
			c1,0,1.8-0.3,2.3-0.8c0.6-0.5,0.9-1.3,0.9-2.3v-1l-1.6,0.1c-1.3,0-2.2,0.2-2.7,0.6c-0.6,0.4-0.8,0.9-0.8,1.6c0,0.6,0.2,1,0.5,1.3
			C160.3,96.9,160.8,97.1,161.4,97.1z"/>
		<path style="fill:#777777;" d="M172.9,97.1c0.3,0,0.6,0,0.8-0.1c0.3,0,0.5-0.1,0.6-0.1v1.2c-0.2,0.1-0.4,0.2-0.8,0.2
			s-0.6,0.1-0.9,0.1c-2,0-3.1-1.1-3.1-3.2v-6.3h-1.5v-0.8l1.5-0.7l0.7-2.3h0.9v2.4h3.1v1.2h-3.1v6.2c0,0.6,0.2,1.1,0.5,1.5
			C172,96.9,172.4,97.1,172.9,97.1z"/>
		<path style="fill:#777777;" d="M176.3,84.8c0-0.4,0.1-0.6,0.3-0.8c0.2-0.2,0.4-0.3,0.7-0.3c0.3,0,0.5,0.1,0.7,0.3s0.3,0.4,0.3,0.8
			s-0.1,0.6-0.3,0.8c-0.2,0.2-0.4,0.3-0.7,0.3c-0.3,0-0.5-0.1-0.7-0.3C176.4,85.4,176.3,85.2,176.3,84.8z M178.1,98.2h-1.6V87.7h1.6
			V98.2z"/>
		<path style="fill:#777777;" d="M190.6,92.9c0,1.7-0.4,3.1-1.3,4s-2.1,1.4-3.6,1.4c-0.9,0-1.8-0.2-2.5-0.7s-1.3-1.1-1.7-1.9
			c-0.4-0.8-0.6-1.8-0.6-2.9c0-1.7,0.4-3.1,1.3-4c0.9-1,2.1-1.4,3.6-1.4c1.5,0,2.6,0.5,3.5,1.5C190.1,89.9,190.6,91.2,190.6,92.9z
			 M182.5,92.9c0,1.3,0.3,2.4,0.8,3.1s1.3,1.1,2.4,1.1s1.8-0.4,2.4-1.1c0.5-0.7,0.8-1.7,0.8-3.1c0-1.3-0.3-2.4-0.8-3.1
			c-0.5-0.7-1.3-1-2.4-1c-1,0-1.8,0.3-2.4,1S182.5,91.6,182.5,92.9z"/>
		<path style="fill:#777777;" d="M200.6,98.2v-6.8c0-0.9-0.2-1.5-0.6-1.9c-0.4-0.4-1-0.6-1.8-0.6c-1.1,0-1.9,0.3-2.4,0.9
			c-0.5,0.6-0.8,1.6-0.8,3v5.5h-1.6V87.7h1.3l0.3,1.4h0.1c0.3-0.5,0.8-0.9,1.4-1.2c0.6-0.3,1.2-0.4,2-0.4c1.3,0,2.2,0.3,2.9,0.9
			s1,1.6,1,2.9v6.9H200.6z"/>
		<path style="fill:#777777;" d="M215,98.4c-1.6,0-2.8-0.5-3.7-1.4c-0.9-0.9-1.4-2.3-1.4-4c0-1.7,0.4-3.1,1.3-4.1s2-1.5,3.4-1.5
			c1.3,0,2.4,0.4,3.1,1.3c0.8,0.9,1.2,2,1.2,3.4v1h-7.3c0,1.2,0.3,2.2,0.9,2.8s1.4,1,2.5,1c1.1,0,2.3-0.2,3.4-0.7v1.4
			c-0.6,0.2-1.1,0.4-1.6,0.5C216.4,98.3,215.8,98.4,215,98.4z M214.6,88.8c-0.8,0-1.5,0.3-2,0.8c-0.5,0.6-0.8,1.3-0.9,2.3h5.5
			c0-1-0.2-1.8-0.7-2.3C216.1,89.1,215.5,88.8,214.6,88.8z"/>
		<path style="fill:#777777;" d="M228.1,98.2l-0.3-1.5h-0.1c-0.5,0.7-1.1,1.1-1.6,1.3c-0.5,0.2-1.2,0.4-2,0.4c-1,0-1.9-0.3-2.5-0.8
			c-0.6-0.5-0.9-1.3-0.9-2.3c0-2.1,1.7-3.2,5.1-3.3l1.8-0.1v-0.7c0-0.8-0.2-1.4-0.5-1.8s-0.9-0.6-1.7-0.6c-0.9,0-1.9,0.3-3,0.8
			l-0.5-1.2c0.5-0.3,1.1-0.5,1.7-0.7s1.2-0.2,1.9-0.2c1.3,0,2.2,0.3,2.8,0.8s0.9,1.5,0.9,2.7v7.2H228.1z M224.5,97.1
			c1,0,1.8-0.3,2.3-0.8c0.6-0.5,0.9-1.3,0.9-2.3v-1l-1.6,0.1c-1.3,0-2.2,0.2-2.7,0.6c-0.6,0.4-0.8,0.9-0.8,1.6c0,0.6,0.2,1,0.5,1.3
			C223.4,96.9,223.9,97.1,224.5,97.1z"/>
		<path style="fill:#777777;" d="M239.4,95.3c0,1-0.4,1.7-1.1,2.3c-0.7,0.5-1.8,0.8-3.1,0.8c-1.4,0-2.5-0.2-3.3-0.7v-1.5
			c0.5,0.3,1.1,0.5,1.6,0.6c0.6,0.1,1.1,0.2,1.7,0.2c0.8,0,1.5-0.1,1.9-0.4c0.4-0.3,0.7-0.7,0.7-1.2c0-0.4-0.2-0.8-0.5-1.1
			c-0.4-0.3-1.1-0.6-2.1-1c-1-0.4-1.7-0.7-2.1-1c-0.4-0.3-0.7-0.6-0.9-0.9s-0.3-0.8-0.3-1.2c0-0.9,0.3-1.5,1-2
			c0.7-0.5,1.7-0.7,2.9-0.7c1.1,0,2.2,0.2,3.3,0.7l-0.6,1.3c-1.1-0.4-2-0.7-2.9-0.7c-0.8,0-1.3,0.1-1.7,0.4c-0.4,0.2-0.6,0.6-0.6,1
			c0,0.3,0.1,0.5,0.2,0.7s0.4,0.4,0.7,0.6s0.9,0.4,1.8,0.8c1.3,0.5,2.1,0.9,2.5,1.4C239.2,94.1,239.4,94.6,239.4,95.3z"/>
		<path style="fill:#777777;" d="M241.9,84.8c0-0.4,0.1-0.6,0.3-0.8c0.2-0.2,0.4-0.3,0.7-0.3c0.3,0,0.5,0.1,0.7,0.3s0.3,0.4,0.3,0.8
			s-0.1,0.6-0.3,0.8c-0.2,0.2-0.4,0.3-0.7,0.3c-0.3,0-0.5-0.1-0.7-0.3C242,85.4,241.9,85.2,241.9,84.8z M243.6,98.2H242V87.7h1.6
			V98.2z"/>
		<path style="fill:#777777;" d="M251.5,98.4c-1.6,0-2.8-0.5-3.7-1.4c-0.9-0.9-1.4-2.3-1.4-4c0-1.7,0.4-3.1,1.3-4.1s2-1.5,3.4-1.5
			c1.3,0,2.4,0.4,3.1,1.3c0.8,0.9,1.2,2,1.2,3.4v1h-7.3c0,1.2,0.3,2.2,0.9,2.8s1.4,1,2.5,1c1.1,0,2.3-0.2,3.4-0.7v1.4
			c-0.6,0.2-1.1,0.4-1.6,0.5C252.8,98.3,252.2,98.4,251.5,98.4z M251,88.8c-0.8,0-1.5,0.3-2,0.8c-0.5,0.6-0.8,1.3-0.9,2.3h5.5
			c0-1-0.2-1.8-0.7-2.3C252.5,89.1,251.9,88.8,251,88.8z"/>
		<path style="fill:#777777;" d="M262.9,87.5c0.5,0,0.9,0,1.3,0.1l-0.2,1.5c-0.4-0.1-0.8-0.1-1.2-0.1c-0.9,0-1.6,0.3-2.2,1
			c-0.6,0.7-0.9,1.6-0.9,2.6v5.7h-1.6V87.7h1.3l0.2,2h0.1c0.4-0.7,0.9-1.2,1.4-1.6S262.2,87.5,262.9,87.5z"/>
		<path style="fill:#777777;" d="M265.9,97.2c0-0.4,0.1-0.8,0.3-1c0.2-0.2,0.5-0.3,0.8-0.3c0.4,0,0.7,0.1,0.9,0.3
			c0.2,0.2,0.3,0.5,0.3,1c0,0.4-0.1,0.7-0.3,1c-0.2,0.2-0.5,0.3-0.9,0.3c-0.3,0-0.6-0.1-0.8-0.3C266,98,265.9,97.7,265.9,97.2z"/>
	</g>
</g>
<g id="Layer_2" style="display:none;">
</g>
</svg>
